<svg xmlns="http://www.w3.org/2000/svg" xmlns:xlink="http://www.w3.org/1999/xlink" contentStyleType="text/css" data-diagram-type="CLASS" height="201px" preserveAspectRatio="none" style="width:1131px;height:201px;background:#FFFFFF;" version="1.1" viewBox="0 0 1131 201" width="1131px" zoomAndPan="magnify"><?plantuml 1.2026.5?><defs/><g><!--class ChatWindowUI--><g class="entity" data-qualified-name="ChatWindowUI" data-source-line="5" id="ent0001"><rect fill="#F1F1F1" height="105.1563" rx="2.5" ry="2.5" style="stroke:#181818;stroke-width:0.5;" width="139.2646" x="7" y="72.71"/><ellipse cx="24.0988" cy="92.8428" fill="#C2C2C2" rx="11" ry="11" style="stroke:#181818;stroke-width:1;"/><path d="M27.0676,98.4834 Q26.4895,98.7803 25.8488,98.9209 Q25.2082,99.0772 24.5051,99.0772 Q22.0051,99.0772 20.677,97.4366 Q19.3645,95.7803 19.3645,92.6553 Q19.3645,89.5303 20.677,87.8741 Q22.0051,86.2178 24.5051,86.2178 Q25.2082,86.2178 25.8488,86.3741 Q26.5051,86.5303 27.0676,86.8272 L27.0676,89.5459 Q26.4426,88.9678 25.8488,88.7022 Q25.2551,88.4209 24.6301,88.4209 Q23.2863,88.4209 22.5988,89.4991 Q21.9113,90.5616 21.9113,92.6553 Q21.9113,94.7491 22.5988,95.8272 Q23.2863,96.8897 24.6301,96.8897 Q25.2551,96.8897 25.8488,96.6241 Q26.4426,96.3428 27.0676,95.7647 L27.0676,98.4834 Z " fill="#000000"/><text fill="#000000" font-family="sans-serif" font-size="12" font-style="italic" lengthAdjust="spacing" textLength="71.8594" x="53.9358" y="88.8487">&#171;boundary&#187;</text><text fill="#000000" font-family="sans-serif" font-size="14" lengthAdjust="spacing" textLength="102.6006" x="38.5652" y="104.6739">ChatWindowUI</text><line style="stroke:#181818;stroke-width:0.5;" x1="8" x2="145.2646" y1="112.9756" y2="112.9756"/><line style="stroke:#181818;stroke-width:0.5;" x1="8" x2="145.2646" y1="120.9756" y2="120.9756"/><text fill="#000000" font-family="sans-serif" font-size="14" lengthAdjust="spacing" textLength="91.2803" x="13" y="137.9707">+moChatAI()</text><text fill="#000000" font-family="sans-serif" font-size="14" lengthAdjust="spacing" textLength="108.0762" x="13" y="154.2676">+nhapCauHoi()</text><text fill="#000000" font-family="sans-serif" font-size="14" lengthAdjust="spacing" textLength="127.2646" x="13" y="170.5645">+renderTinNhan()</text></g><!--class AIChatController--><g class="entity" data-qualified-name="AIChatController" data-source-line="11" id="ent0002"><rect fill="#F1F1F1" height="72.5625" rx="2.5" ry="2.5" style="stroke:#181818;stroke-width:0.5;" width="260.5889" x="181.34" y="89"/><ellipse cx="249.5866" cy="109.1328" fill="#C2C2C2" rx="11" ry="11" style="stroke:#181818;stroke-width:1;"/><path d="M252.5553,114.7734 Q251.9772,115.0703 251.3366,115.2109 Q250.696,115.3672 249.9928,115.3672 Q247.4928,115.3672 246.1647,113.7266 Q244.8522,112.0703 244.8522,108.9453 Q244.8522,105.8203 246.1647,104.1641 Q247.4928,102.5078 249.9928,102.5078 Q250.696,102.5078 251.3366,102.6641 Q251.9928,102.8203 252.5553,103.1172 L252.5553,105.8359 Q251.9303,105.2578 251.3366,104.9922 Q250.7428,104.7109 250.1178,104.7109 Q248.7741,104.7109 248.0866,105.7891 Q247.3991,106.8516 247.3991,108.9453 Q247.3991,111.0391 248.0866,112.1172 Q248.7741,113.1797 250.1178,113.1797 Q250.7428,113.1797 251.3366,112.9141 Q251.9303,112.6328 252.5553,112.0547 L252.5553,114.7734 Z " fill="#000000"/><text fill="#000000" font-family="sans-serif" font-size="12" font-style="italic" lengthAdjust="spacing" textLength="56.543" x="299.6129" y="105.1387">&#171;control&#187;</text><text fill="#000000" font-family="sans-serif" font-size="14" lengthAdjust="spacing" textLength="115.5957" x="270.0866" y="120.9639">AIChatController</text><line style="stroke:#181818;stroke-width:0.5;" x1="182.34" x2="440.9289" y1="129.2656" y2="129.2656"/><line style="stroke:#181818;stroke-width:0.5;" x1="182.34" x2="440.9289" y1="137.2656" y2="137.2656"/><text fill="#000000" font-family="sans-serif" font-size="14" lengthAdjust="spacing" textLength="248.5889" x="187.34" y="154.2607">+aiChatAction(message, sessionId)</text></g><!--class GeminiAI--><g class="entity" data-qualified-name="GeminiAI" data-source-line="15" id="ent0003"><rect fill="#F1F1F1" height="72.5625" rx="2.5" ry="2.5" style="stroke:#181818;stroke-width:0.5;" width="204.9785" x="911.14" y="89"/><ellipse cx="977.6503" cy="109.1328" fill="#C2C2C2" rx="11" ry="11" style="stroke:#181818;stroke-width:1;"/><path d="M980.619,114.7734 Q980.0409,115.0703 979.4003,115.2109 Q978.7596,115.3672 978.0565,115.3672 Q975.5565,115.3672 974.2284,113.7266 Q972.9159,112.0703 972.9159,108.9453 Q972.9159,105.8203 974.2284,104.1641 Q975.5565,102.5078 978.0565,102.5078 Q978.7596,102.5078 979.4003,102.6641 Q980.0565,102.8203 980.619,103.1172 L980.619,105.8359 Q979.994,105.2578 979.4003,104.9922 Q978.8065,104.7109 978.1815,104.7109 Q976.8378,104.7109 976.1503,105.7891 Q975.4628,106.8516 975.4628,108.9453 Q975.4628,111.0391 976.1503,112.1172 Q976.8378,113.1797 978.1815,113.1797 Q978.8065,113.1797 979.4003,112.9141 Q979.994,112.6328 980.619,112.0547 L980.619,114.7734 Z " fill="#000000"/><text fill="#000000" font-family="sans-serif" font-size="12" font-style="italic" lengthAdjust="spacing" textLength="56.543" x="1001.6078" y="105.1387">&#171;control&#187;</text><text fill="#000000" font-family="sans-serif" font-size="14" lengthAdjust="spacing" textLength="63.458" x="998.1503" y="120.9639">GeminiAI</text><line style="stroke:#181818;stroke-width:0.5;" x1="912.14" x2="1115.1185" y1="129.2656" y2="129.2656"/><line style="stroke:#181818;stroke-width:0.5;" x1="912.14" x2="1115.1185" y1="137.2656" y2="137.2656"/><text fill="#000000" font-family="sans-serif" font-size="14" lengthAdjust="spacing" textLength="192.9785" x="917.14" y="154.2607">+generateContent(prompt)</text></g><!--class CARS--><g class="entity" data-qualified-name="CARS" data-source-line="19" id="ent0004"><rect fill="#F1F1F1" height="121.4531" rx="2.5" ry="2.5" style="stroke:#181818;stroke-width:0.5;" width="164.1748" x="711.54" y="64.56"/><ellipse cx="766.6186" cy="84.6928" fill="#C2C2C2" rx="11" ry="11" style="stroke:#181818;stroke-width:1;"/><path d="M769.5874,90.3334 Q769.0092,90.6303 768.3686,90.7709 Q767.728,90.9272 767.0249,90.9272 Q764.5249,90.9272 763.1967,89.2866 Q761.8842,87.6303 761.8842,84.5053 Q761.8842,81.3803 763.1967,79.7241 Q764.5249,78.0678 767.0249,78.0678 Q767.728,78.0678 768.3686,78.2241 Q769.0249,78.3803 769.5874,78.6772 L769.5874,81.3959 Q768.9624,80.8178 768.3686,80.5522 Q767.7749,80.2709 767.1499,80.2709 Q765.8061,80.2709 765.1186,81.3491 Q764.4311,82.4116 764.4311,84.5053 Q764.4311,86.5991 765.1186,87.6772 Q765.8061,88.7397 767.1499,88.7397 Q767.7749,88.7397 768.3686,88.4741 Q768.9624,88.1928 769.5874,87.6147 L769.5874,90.3334 Z " fill="#000000"/><text fill="#000000" font-family="sans-serif" font-size="12" font-style="italic" lengthAdjust="spacing" textLength="49.5176" x="785.1186" y="80.6987">&#171;entity&#187;</text><text fill="#000000" font-family="sans-serif" font-size="14" lengthAdjust="spacing" textLength="37.9668" x="790.894" y="96.5239">CARS</text><line style="stroke:#181818;stroke-width:0.5;" x1="712.54" x2="874.7148" y1="104.8256" y2="104.8256"/><text fill="#000000" font-family="sans-serif" font-size="14" lengthAdjust="spacing" textLength="101.2471" x="717.54" y="121.8207">-price : BIGINT</text><text fill="#000000" font-family="sans-serif" font-size="14" lengthAdjust="spacing" textLength="103.332" x="717.54" y="138.1176">-status : ENUM</text><line style="stroke:#181818;stroke-width:0.5;" x1="712.54" x2="874.7148" y1="145.4194" y2="145.4194"/><text fill="#000000" font-family="sans-serif" font-size="14" lengthAdjust="spacing" textLength="128.6729" x="717.54" y="162.4145">-id : VARCHAR(36)</text><text fill="#000000" font-family="sans-serif" font-size="14" lengthAdjust="spacing" textLength="152.1748" x="717.54" y="178.7114">-title : VARCHAR(255)</text></g><!--class CHAT_MESSAGES--><g class="entity" data-qualified-name="CHAT_MESSAGES" data-source-line="26" id="ent0005"><rect fill="#F1F1F1" height="121.4531" rx="2.5" ry="2.5" style="stroke:#181818;stroke-width:0.5;" width="199.4961" x="476.88" y="64.56"/><ellipse cx="512.2236" cy="84.6928" fill="#C2C2C2" rx="11" ry="11" style="stroke:#181818;stroke-width:1;"/><path d="M515.1924,90.3334 Q514.6142,90.6303 513.9736,90.7709 Q513.333,90.9272 512.6299,90.9272 Q510.1299,90.9272 508.8017,89.2866 Q507.4892,87.6303 507.4892,84.5053 Q507.4892,81.3803 508.8017,79.7241 Q510.1299,78.0678 512.6299,78.0678 Q513.333,78.0678 513.9736,78.2241 Q514.6299,78.3803 515.1924,78.6772 L515.1924,81.3959 Q514.5674,80.8178 513.9736,80.5522 Q513.3799,80.2709 512.7549,80.2709 Q511.4111,80.2709 510.7236,81.3491 Q510.0361,82.4116 510.0361,84.5053 Q510.0361,86.5991 510.7236,87.6772 Q511.4111,88.7397 512.7549,88.7397 Q513.3799,88.7397 513.9736,88.4741 Q514.5674,88.1928 515.1924,87.6147 L515.1924,90.3334 Z " fill="#000000"/><text fill="#000000" font-family="sans-serif" font-size="12" font-style="italic" lengthAdjust="spacing" textLength="49.5176" x="567.1297" y="80.6987">&#171;entity&#187;</text><text fill="#000000" font-family="sans-serif" font-size="14" lengthAdjust="spacing" textLength="122.2881" x="530.7444" y="96.5239">CHAT_MESSAGES</text><line style="stroke:#181818;stroke-width:0.5;" x1="477.88" x2="675.3761" y1="104.8256" y2="104.8256"/><text fill="#000000" font-family="sans-serif" font-size="14" lengthAdjust="spacing" textLength="142.1738" x="482.88" y="121.8207">-sender_role : ENUM</text><text fill="#000000" font-family="sans-serif" font-size="14" lengthAdjust="spacing" textLength="152.0039" x="482.88" y="138.1176">-message_text : TEXT</text><line style="stroke:#181818;stroke-width:0.5;" x1="477.88" x2="675.3761" y1="145.4194" y2="145.4194"/><text fill="#000000" font-family="sans-serif" font-size="14" lengthAdjust="spacing" textLength="128.6729" x="482.88" y="162.4145">-id : VARCHAR(36)</text><text fill="#000000" font-family="sans-serif" font-size="14" lengthAdjust="spacing" textLength="187.4961" x="482.88" y="178.7114">-session_id : VARCHAR(50)</text></g><!--link ChatWindowUI to AIChatController--><g class="link" data-entity-1="ent0001" data-entity-2="ent0002" data-link-type="association" data-source-line="33" id="lnk6"><path codeLine="33" d="M146.4,125.28 C157.91,125.28 169.42,125.28 180.93,125.28" fill="none" id="ChatWindowUI-AIChatController" style="stroke:#181818;stroke-width:1;"/><text fill="#000000" font-family="sans-serif" font-size="13" lengthAdjust="spacing" textLength="8.271" x="154.4832" y="121.533">1</text><text fill="#000000" font-family="sans-serif" font-size="13" lengthAdjust="spacing" textLength="8.271" x="165.1502" y="121.9171">1</text></g><!--link AIChatController to GeminiAI--><g class="link" data-entity-1="ent0002" data-entity-2="ent0003" data-link-type="association" data-source-line="34" id="lnk7"><path codeLine="34" d="M362.45,88.66 C393.83,68.36 435.87,45.13 477.13,34.56 C563.03,12.56 791.21,9.06 876.13,34.56 C911.61,45.21 946.37,68.3 972.08,88.52" fill="none" id="AIChatController-GeminiAI" style="stroke:#181818;stroke-width:1;"/><text fill="#000000" font-family="sans-serif" font-size="13" lengthAdjust="spacing" textLength="8.271" x="362.8132" y="77.8796">1</text><text fill="#000000" font-family="sans-serif" font-size="13" lengthAdjust="spacing" textLength="8.271" x="956.2745" y="77.9909">1</text></g><!--link AIChatController to CARS--><g class="link" data-entity-1="ent0002" data-entity-2="ent0004" data-link-type="association" data-source-line="35" id="lnk8"><path codeLine="35" d="M362.45,88.66 C393.83,68.36 435.87,45.13 477.13,34.56 C562.81,12.61 592.42,6 676.13,34.56 C695.16,41.05 713.5,52.01 729.8,64.11" fill="none" id="AIChatController-CARS" style="stroke:#181818;stroke-width:1;"/><text fill="#000000" font-family="sans-serif" font-size="13" lengthAdjust="spacing" textLength="8.271" x="372.2382" y="77.8796">1</text><text fill="#000000" font-family="sans-serif" font-size="13" lengthAdjust="spacing" textLength="8.2393" x="714.3945" y="53.6727">n</text></g><!--link AIChatController to CHAT_MESSAGES--><g class="link" data-entity-1="ent0002" data-entity-2="ent0005" data-link-type="association" data-source-line="36" id="lnk9"><path codeLine="36" d="M442.32,125.28 C453.69,125.28 465.06,125.28 476.42,125.28" fill="none" id="AIChatController-CHAT_MESSAGES" style="stroke:#181818;stroke-width:1;"/><text fill="#000000" font-family="sans-serif" font-size="13" lengthAdjust="spacing" textLength="8.271" x="450.1143" y="121.9171">1</text><text fill="#000000" font-family="sans-serif" font-size="13" lengthAdjust="spacing" textLength="8.2393" x="460.776" y="121.8005">n</text></g><?plantuml-src ZL7BJiCm4BpdAwoUWg1I0PK3gYgPA6fzQ0zj2jmYDraQYsGTsHln4l-EdJQGWa1SekpCxentrZughAMH5QiqwgmmkW96fe70VZAsaBb-KhXZ3xAqVIOhfRMSoAXjGo0oZMlr2cmK12t3eaBIdK8tlH5iCjdg1dDfNgPJzXOmTbffty15UE8hB6GToMQkrRusW3cOHE6oaEYWzqwL2pyMQIIZonACKyxsHISiLIkSaT8OLc2jtC4Pi-x70IBlQSsWKgYu-Acn0mGZ2RmF88MrYwQctcZ4LsitvZX5tKf3bRDhTijNqPolmiihlyZGyINqu8lnkCLhepAFtuYPM2OUiIIfiGwAbvj5psdEatGHhzTy5l_Fyh1gUiIDHmVEvvgwLQ5pSkWXfPJWcHoSnFU9Vy3H1GVd0pPilzzF4FouoLTl5_6lFJXei_oJxoVm0G00?></g></svg>