<svg xmlns="http://www.w3.org/2000/svg" xmlns:xlink="http://www.w3.org/1999/xlink" contentStyleType="text/css" data-diagram-type="CLASS" height="143px" preserveAspectRatio="none" style="width:730px;height:143px;background:#FFFFFF;" version="1.1" viewBox="0 0 730 143" width="730px" zoomAndPan="magnify"><?plantuml 1.2026.5?><defs/><g><!--class SoSanhXeUI--><g class="entity" data-qualified-name="SoSanhXeUI" data-source-line="5" id="ent0001"><rect fill="#F1F1F1" height="105.1563" rx="2.5" ry="2.5" style="stroke:#181818;stroke-width:0.5;" width="190.2949" x="7" y="15.15"/><ellipse cx="55.2754" cy="35.2828" fill="#C2C2C2" rx="11" ry="11" style="stroke:#181818;stroke-width:1;"/><path d="M58.2441,40.9234 Q57.666,41.2203 57.0254,41.3609 Q56.3848,41.5172 55.6816,41.5172 Q53.1816,41.5172 51.8535,39.8766 Q50.541,38.2203 50.541,35.0953 Q50.541,31.9703 51.8535,30.3141 Q53.1816,28.6578 55.6816,28.6578 Q56.3848,28.6578 57.0254,28.8141 Q57.6816,28.9703 58.2441,29.2672 L58.2441,31.9859 Q57.6191,31.4078 57.0254,31.1422 Q56.4316,30.8609 55.8066,30.8609 Q54.4629,30.8609 53.7754,31.9391 Q53.0879,33.0016 53.0879,35.0953 Q53.0879,37.1891 53.7754,38.2672 Q54.4629,39.3297 55.8066,39.3297 Q56.4316,39.3297 57.0254,39.0641 Q57.6191,38.7828 58.2441,38.2047 L58.2441,40.9234 Z " fill="#000000"/><text fill="#000000" font-family="sans-serif" font-size="12" font-style="italic" lengthAdjust="spacing" textLength="71.8594" x="82.4678" y="31.2887">&#171;boundary&#187;</text><text fill="#000000" font-family="sans-serif" font-size="14" lengthAdjust="spacing" textLength="85.2441" x="75.7754" y="47.1139">SoSanhXeUI</text><line style="stroke:#181818;stroke-width:0.5;" x1="8" x2="196.2949" y1="55.4156" y2="55.4156"/><line style="stroke:#181818;stroke-width:0.5;" x1="8" x2="196.2949" y1="63.4156" y2="63.4156"/><text fill="#000000" font-family="sans-serif" font-size="14" lengthAdjust="spacing" textLength="154.7588" x="13" y="80.4107">+chonXeCanSoSanh()</text><text fill="#000000" font-family="sans-serif" font-size="14" lengthAdjust="spacing" textLength="178.2949" x="13" y="96.7076">+soSanhVaRenderBang()</text><text fill="#000000" font-family="sans-serif" font-size="14" lengthAdjust="spacing" textLength="162.8252" x="13" y="113.0045">+hienThiBangSoSanh()</text></g><!--class XeController--><g class="entity" data-qualified-name="XeController" data-source-line="11" id="ent0002"><rect fill="#F1F1F1" height="88.8594" rx="2.5" ry="2.5" style="stroke:#181818;stroke-width:0.5;" width="269.9473" x="232.17" y="23.29"/><ellipse cx="319.2052" cy="43.4228" fill="#C2C2C2" rx="11" ry="11" style="stroke:#181818;stroke-width:1;"/><path d="M322.1739,49.0634 Q321.5958,49.3603 320.9552,49.5009 Q320.3145,49.6572 319.6114,49.6572 Q317.1114,49.6572 315.7833,48.0166 Q314.4708,46.3603 314.4708,43.2353 Q314.4708,40.1103 315.7833,38.4541 Q317.1114,36.7978 319.6114,36.7978 Q320.3145,36.7978 320.9552,36.9541 Q321.6114,37.1103 322.1739,37.4072 L322.1739,40.1259 Q321.5489,39.5478 320.9552,39.2822 Q320.3614,39.0009 319.7364,39.0009 Q318.3927,39.0009 317.7052,40.0791 Q317.0177,41.1416 317.0177,43.2353 Q317.0177,45.3291 317.7052,46.4072 Q318.3927,47.4697 319.7364,47.4697 Q320.3614,47.4697 320.9552,47.2041 Q321.5489,46.9228 322.1739,46.3447 L322.1739,49.0634 Z " fill="#000000"/><text fill="#000000" font-family="sans-serif" font-size="12" font-style="italic" lengthAdjust="spacing" textLength="56.543" x="355.1221" y="39.4287">&#171;control&#187;</text><text fill="#000000" font-family="sans-serif" font-size="14" lengthAdjust="spacing" textLength="87.377" x="339.7052" y="55.2539">XeController</text><line style="stroke:#181818;stroke-width:0.5;" x1="233.17" x2="501.1173" y1="63.5556" y2="63.5556"/><line style="stroke:#181818;stroke-width:0.5;" x1="233.17" x2="501.1173" y1="71.5556" y2="71.5556"/><text fill="#000000" font-family="sans-serif" font-size="14" lengthAdjust="spacing" textLength="257.9473" x="238.17" y="88.5507">+layThongTinSoSanh(carId1, carId2)</text><text fill="#000000" font-family="sans-serif" font-size="14" lengthAdjust="spacing" textLength="161.7246" x="238.17" y="104.8476">+layThongTinXe(carId)</text></g><!--class CARS--><g class="entity" data-qualified-name="CARS" data-source-line="16" id="ent0003"><rect fill="#F1F1F1" height="121.4531" rx="2.5" ry="2.5" style="stroke:#181818;stroke-width:0.5;" width="177.7852" x="537.25" y="7"/><ellipse cx="599.1338" cy="27.1328" fill="#C2C2C2" rx="11" ry="11" style="stroke:#181818;stroke-width:1;"/><path d="M602.1025,32.7734 Q601.5244,33.0703 600.8838,33.2109 Q600.2432,33.3672 599.54,33.3672 Q597.04,33.3672 595.7119,31.7266 Q594.3994,30.0703 594.3994,26.9453 Q594.3994,23.8203 595.7119,22.1641 Q597.04,20.5078 599.54,20.5078 Q600.2432,20.5078 600.8838,20.6641 Q601.54,20.8203 602.1025,21.1172 L602.1025,23.8359 Q601.4775,23.2578 600.8838,22.9922 Q600.29,22.7109 599.665,22.7109 Q598.3213,22.7109 597.6338,23.7891 Q596.9463,24.8516 596.9463,26.9453 Q596.9463,29.0391 597.6338,30.1172 Q598.3213,31.1797 599.665,31.1797 Q600.29,31.1797 600.8838,30.9141 Q601.4775,30.6328 602.1025,30.0547 L602.1025,32.7734 Z " fill="#000000"/><text fill="#000000" font-family="sans-serif" font-size="12" font-style="italic" lengthAdjust="spacing" textLength="49.5176" x="617.6338" y="23.1387">&#171;entity&#187;</text><text fill="#000000" font-family="sans-serif" font-size="14" lengthAdjust="spacing" textLength="37.9668" x="623.4092" y="38.9639">CARS</text><line style="stroke:#181818;stroke-width:0.5;" x1="538.25" x2="714.0352" y1="47.2656" y2="47.2656"/><text fill="#000000" font-family="sans-serif" font-size="14" lengthAdjust="spacing" textLength="101.2471" x="543.25" y="64.2607">-price : BIGINT</text><line style="stroke:#181818;stroke-width:0.5;" x1="538.25" x2="714.0352" y1="71.5625" y2="71.5625"/><text fill="#000000" font-family="sans-serif" font-size="14" lengthAdjust="spacing" textLength="128.6729" x="543.25" y="88.5576">-id : VARCHAR(36)</text><text fill="#000000" font-family="sans-serif" font-size="14" lengthAdjust="spacing" textLength="152.1748" x="543.25" y="104.8545">-title : VARCHAR(255)</text><text fill="#000000" font-family="sans-serif" font-size="14" lengthAdjust="spacing" textLength="165.7852" x="543.25" y="121.1514">-brand : VARCHAR(100)</text></g><!--link SoSanhXeUI to XeController--><g class="link" data-entity-1="ent0001" data-entity-2="ent0002" data-link-type="association" data-source-line="23" id="lnk4"><path codeLine="23" d="M197.64,67.72 C209.01,67.72 220.37,67.72 231.74,67.72" fill="none" id="SoSanhXeUI-XeController" style="stroke:#181818;stroke-width:1;"/><text fill="#000000" font-family="sans-serif" font-size="13" lengthAdjust="spacing" textLength="8.271" x="205.2678" y="64.2171">1</text><text fill="#000000" font-family="sans-serif" font-size="13" lengthAdjust="spacing" textLength="8.271" x="215.6886" y="64.3572">1</text></g><!--link XeController to CARS--><g class="link" data-entity-1="ent0002" data-entity-2="ent0003" data-link-type="association" data-source-line="24" id="lnk5"><path codeLine="24" d="M502.46,67.72 C513.9,67.72 525.33,67.72 536.77,67.72" fill="none" id="XeController-CARS" style="stroke:#181818;stroke-width:1;"/><text fill="#000000" font-family="sans-serif" font-size="13" lengthAdjust="spacing" textLength="8.271" x="510.0863" y="64.3804">1</text><text fill="#000000" font-family="sans-serif" font-size="13" lengthAdjust="spacing" textLength="8.2393" x="521.0475" y="64.1708">n</text></g><?plantuml-src NP3DReCm48JlFCMAKw8s4gHA3rKKYN1ekVG0DEAwc2rOXNLa6rLfrNSlc1AHNlpppMXcRVCX-OmQE-WKAz5erH5OtPDdheffi5AVacjunzOi5T6YCP6rMfQzfKGepkGNGU1vJe5CPSXDGMy9xFUbwhb2VJaSuDi3k1EDue9YvCcrMe_GkFC9K-AAz16vddWZYVD6Zk1g_vbhXXJ5Lgks9JqKYUaozxHuoOUgEfTpaq2TLE4zk7sx_cSgQ38i2k8epOPWOYljFFz6Ll04foYDNw9qzV0uncm6lQK5tkvsZf-r52C_9i_9QpwIKYCl0y8WS8MBB_D37pPkNJxGktdjduTzD-Cl?></g></svg>