<svg xmlns="http://www.w3.org/2000/svg" xmlns:xlink="http://www.w3.org/1999/xlink" contentStyleType="text/css" data-diagram-type="CLASS" height="228px" preserveAspectRatio="none" style="width:1414px;height:228px;background:#FFFFFF;" version="1.1" viewBox="0 0 1414 228" width="1414px" zoomAndPan="magnify"><?plantuml 1.2026.5?><defs/><g><!--class YeuCauTuVanUI--><g class="entity" data-qualified-name="YeuCauTuVanUI" data-source-line="5" id="ent0001"><rect fill="#F1F1F1" height="137.75" rx="2.5" ry="2.5" style="stroke:#181818;stroke-width:0.5;" width="236.5674" x="7" y="75.6"/><ellipse cx="64.9858" cy="95.7328" fill="#C2C2C2" rx="11" ry="11" style="stroke:#181818;stroke-width:1;"/><path d="M67.9546,101.3734 Q67.3765,101.6703 66.7358,101.8109 Q66.0952,101.9672 65.3921,101.9672 Q62.8921,101.9672 61.564,100.3266 Q60.2515,98.6703 60.2515,95.5453 Q60.2515,92.4203 61.564,90.7641 Q62.8921,89.1078 65.3921,89.1078 Q66.0952,89.1078 66.7358,89.2641 Q67.3921,89.4203 67.9546,89.7172 L67.9546,92.4359 Q67.3296,91.8578 66.7358,91.5922 Q66.1421,91.3109 65.5171,91.3109 Q64.1733,91.3109 63.4858,92.3891 Q62.7983,93.4516 62.7983,95.5453 Q62.7983,97.6391 63.4858,98.7172 Q64.1733,99.7797 65.5171,99.7797 Q66.1421,99.7797 66.7358,99.5141 Q67.3296,99.2328 67.9546,98.6547 L67.9546,101.3734 Z " fill="#000000"/><text fill="#000000" font-family="sans-serif" font-size="12" font-style="italic" lengthAdjust="spacing" textLength="71.8594" x="105.604" y="91.7387">&#171;boundary&#187;</text><text fill="#000000" font-family="sans-serif" font-size="14" lengthAdjust="spacing" textLength="112.0957" x="85.4858" y="107.5639">YeuCauTuVanUI</text><line style="stroke:#181818;stroke-width:0.5;" x1="8" x2="242.5674" y1="115.8656" y2="115.8656"/><line style="stroke:#181818;stroke-width:0.5;" x1="8" x2="242.5674" y1="123.8656" y2="123.8656"/><text fill="#000000" font-family="sans-serif" font-size="14" lengthAdjust="spacing" textLength="154.3828" x="13" y="140.8607">+chonYeuCauTuVan()</text><text fill="#000000" font-family="sans-serif" font-size="14" lengthAdjust="spacing" textLength="154.6836" x="13" y="157.1576">+hienThiFormTuVan()</text><text fill="#000000" font-family="sans-serif" font-size="14" lengthAdjust="spacing" textLength="167.3848" x="13" y="173.4545">+nhapThongTinTuVan()</text><text fill="#000000" font-family="sans-serif" font-size="14" lengthAdjust="spacing" textLength="152.9336" x="13" y="189.7514">+kichNutGuiYeuCau()</text><text fill="#000000" font-family="sans-serif" font-size="14" lengthAdjust="spacing" textLength="224.5674" x="13" y="206.0482">+hienThiThongBaoThanhCong()</text></g><!--class YeuCauTuVanController--><g class="entity" data-qualified-name="YeuCauTuVanController" data-source-line="13" id="ent0002"><rect fill="#F1F1F1" height="137.75" rx="2.5" ry="2.5" style="stroke:#181818;stroke-width:0.5;" width="264.9639" x="278.8" y="75.6"/><ellipse cx="323.5856" cy="95.7328" fill="#C2C2C2" rx="11" ry="11" style="stroke:#181818;stroke-width:1;"/><path d="M326.5544,101.3734 Q325.9763,101.6703 325.3356,101.8109 Q324.695,101.9672 323.9919,101.9672 Q321.4919,101.9672 320.1638,100.3266 Q318.8513,98.6703 318.8513,95.5453 Q318.8513,92.4203 320.1638,90.7641 Q321.4919,89.1078 323.9919,89.1078 Q324.695,89.1078 325.3356,89.2641 Q325.9919,89.4203 326.5544,89.7172 L326.5544,92.4359 Q325.9294,91.8578 325.3356,91.5922 Q324.7419,91.3109 324.1169,91.3109 Q322.7731,91.3109 322.0856,92.3891 Q321.3981,93.4516 321.3981,95.5453 Q321.3981,97.6391 322.0856,98.7172 Q322.7731,99.7797 324.1169,99.7797 Q324.7419,99.7797 325.3356,99.5141 Q325.9294,99.2328 326.5544,98.6547 L326.5544,101.3734 Z " fill="#000000"/><text fill="#000000" font-family="sans-serif" font-size="12" font-style="italic" lengthAdjust="spacing" textLength="56.543" x="399.2604" y="91.7387">&#171;control&#187;</text><text fill="#000000" font-family="sans-serif" font-size="14" lengthAdjust="spacing" textLength="166.8926" x="344.0856" y="107.5639">YeuCauTuVanController</text><line style="stroke:#181818;stroke-width:0.5;" x1="279.8" x2="542.7639" y1="115.8656" y2="115.8656"/><line style="stroke:#181818;stroke-width:0.5;" x1="279.8" x2="542.7639" y1="123.8656" y2="123.8656"/><text fill="#000000" font-family="sans-serif" font-size="14" lengthAdjust="spacing" textLength="142.0234" x="284.8" y="140.8607">+guiYeuCauTuVan()</text><text fill="#000000" font-family="sans-serif" font-size="14" lengthAdjust="spacing" textLength="142.0098" x="284.8" y="157.1576">+luuYeuCauTuVan()</text><text fill="#000000" font-family="sans-serif" font-size="14" lengthAdjust="spacing" textLength="252.9639" x="284.8" y="173.4545">+taoHoacCapNhatKhachHangCRM()</text><text fill="#000000" font-family="sans-serif" font-size="14" lengthAdjust="spacing" textLength="158.3135" x="284.8" y="189.7514">+luuGhiChuHeThong()</text><text fill="#000000" font-family="sans-serif" font-size="14" lengthAdjust="spacing" textLength="174.2002" x="284.8" y="206.0482">+taoThongBaoLeadMoi()</text></g><!--class CONTACT_REQUESTS--><g class="entity" data-qualified-name="CONTACT_REQUESTS" data-source-line="21" id="ent0003"><rect fill="#F1F1F1" height="121.4531" rx="2.5" ry="2.5" style="stroke:#181818;stroke-width:0.5;" width="205.0879" x="1194.74" y="83.75"/><ellipse cx="1220.2491" cy="103.8828" fill="#C2C2C2" rx="11" ry="11" style="stroke:#181818;stroke-width:1;"/><path d="M1223.2178,109.5234 Q1222.6397,109.8203 1221.9991,109.9609 Q1221.3585,110.1172 1220.6553,110.1172 Q1218.1553,110.1172 1216.8272,108.4766 Q1215.5147,106.8203 1215.5147,103.6953 Q1215.5147,100.5703 1216.8272,98.9141 Q1218.1553,97.2578 1220.6553,97.2578 Q1221.3585,97.2578 1221.9991,97.4141 Q1222.6553,97.5703 1223.2178,97.8672 L1223.2178,100.5859 Q1222.5928,100.0078 1221.9991,99.7422 Q1221.4053,99.4609 1220.7803,99.4609 Q1219.4366,99.4609 1218.7491,100.5391 Q1218.0616,101.6016 1218.0616,103.6953 Q1218.0616,105.7891 1218.7491,106.8672 Q1219.4366,107.9297 1220.7803,107.9297 Q1221.4053,107.9297 1221.9991,107.6641 Q1222.5928,107.3828 1223.2178,106.8047 L1223.2178,109.5234 Z " fill="#000000"/><text fill="#000000" font-family="sans-serif" font-size="12" font-style="italic" lengthAdjust="spacing" textLength="49.5176" x="1286.6928" y="99.8887">&#171;entity&#187;</text><text fill="#000000" font-family="sans-serif" font-size="14" lengthAdjust="spacing" textLength="149.7344" x="1236.5844" y="115.7139">CONTACT_REQUESTS</text><line style="stroke:#181818;stroke-width:0.5;" x1="1195.74" x2="1398.8279" y1="124.0156" y2="124.0156"/><text fill="#000000" font-family="sans-serif" font-size="14" lengthAdjust="spacing" textLength="99.1758" x="1200.74" y="141.0107">-stage : ENUM</text><line style="stroke:#181818;stroke-width:0.5;" x1="1195.74" x2="1398.8279" y1="148.3125" y2="148.3125"/><text fill="#000000" font-family="sans-serif" font-size="14" lengthAdjust="spacing" textLength="128.6729" x="1200.74" y="165.3076">-id : VARCHAR(36)</text><text fill="#000000" font-family="sans-serif" font-size="14" lengthAdjust="spacing" textLength="193.0879" x="1200.74" y="181.6045">-full_name : VARCHAR(255)</text><text fill="#000000" font-family="sans-serif" font-size="14" lengthAdjust="spacing" textLength="159.708" x="1200.74" y="197.9014">-phone : VARCHAR(50)</text></g><!--class CUSTOMERS--><g class="entity" data-qualified-name="CUSTOMERS" data-source-line="28" id="ent0004"><rect fill="#F1F1F1" height="105.1563" rx="2.5" ry="2.5" style="stroke:#181818;stroke-width:0.5;" width="205.0879" x="954.74" y="91.9"/><ellipse cx="1009.0242" cy="112.0328" fill="#C2C2C2" rx="11" ry="11" style="stroke:#181818;stroke-width:1;"/><path d="M1011.9929,117.6734 Q1011.4148,117.9703 1010.7742,118.1109 Q1010.1336,118.2672 1009.4304,118.2672 Q1006.9304,118.2672 1005.6023,116.6266 Q1004.2898,114.9703 1004.2898,111.8453 Q1004.2898,108.7203 1005.6023,107.0641 Q1006.9304,105.4078 1009.4304,105.4078 Q1010.1336,105.4078 1010.7742,105.5641 Q1011.4304,105.7203 1011.9929,106.0172 L1011.9929,108.7359 Q1011.3679,108.1578 1010.7742,107.8922 Q1010.1804,107.6109 1009.5554,107.6109 Q1008.2117,107.6109 1007.5242,108.6891 Q1006.8367,109.7516 1006.8367,111.8453 Q1006.8367,113.9391 1007.5242,115.0172 Q1008.2117,116.0797 1009.5554,116.0797 Q1010.1804,116.0797 1010.7742,115.8141 Q1011.3679,115.5328 1011.9929,114.9547 L1011.9929,117.6734 Z " fill="#000000"/><text fill="#000000" font-family="sans-serif" font-size="12" font-style="italic" lengthAdjust="spacing" textLength="49.5176" x="1048.7752" y="108.0387">&#171;entity&#187;</text><text fill="#000000" font-family="sans-serif" font-size="14" lengthAdjust="spacing" textLength="88.0195" x="1029.5242" y="123.8639">CUSTOMERS</text><line style="stroke:#181818;stroke-width:0.5;" x1="955.74" x2="1158.8279" y1="132.1656" y2="132.1656"/><text fill="#000000" font-family="sans-serif" font-size="14" lengthAdjust="spacing" textLength="99.1758" x="960.74" y="149.1607">-stage : ENUM</text><line style="stroke:#181818;stroke-width:0.5;" x1="955.74" x2="1158.8279" y1="156.4625" y2="156.4625"/><text fill="#000000" font-family="sans-serif" font-size="14" lengthAdjust="spacing" textLength="128.6729" x="960.74" y="173.4576">-id : VARCHAR(36)</text><text fill="#000000" font-family="sans-serif" font-size="14" lengthAdjust="spacing" textLength="193.0879" x="960.74" y="189.7545">-full_name : VARCHAR(255)</text></g><!--class CUSTOMER_NOTES--><g class="entity" data-qualified-name="CUSTOMER_NOTES" data-source-line="34" id="ent0005"><rect fill="#F1F1F1" height="88.8594" rx="2.5" ry="2.5" style="stroke:#181818;stroke-width:0.5;" width="165.9092" x="754.33" y="100.05"/><ellipse cx="769.33" cy="120.1828" fill="#C2C2C2" rx="11" ry="11" style="stroke:#181818;stroke-width:1;"/><path d="M772.2988,125.8234 Q771.7206,126.1203 771.08,126.2609 Q770.4394,126.4172 769.7363,126.4172 Q767.2363,126.4172 765.9081,124.7766 Q764.5956,123.1203 764.5956,119.9953 Q764.5956,116.8703 765.9081,115.2141 Q767.2363,113.5578 769.7363,113.5578 Q770.4394,113.5578 771.08,113.7141 Q771.7363,113.8703 772.2988,114.1672 L772.2988,116.8859 Q771.6738,116.3078 771.08,116.0422 Q770.4863,115.7609 769.8613,115.7609 Q768.5175,115.7609 767.83,116.8391 Q767.1425,117.9016 767.1425,119.9953 Q767.1425,122.0891 767.83,123.1672 Q768.5175,124.2297 769.8613,124.2297 Q770.4863,124.2297 771.08,123.9641 Q771.6738,123.6828 772.2988,123.1047 L772.2988,125.8234 Z " fill="#000000"/><text fill="#000000" font-family="sans-serif" font-size="12" font-style="italic" lengthAdjust="spacing" textLength="49.5176" x="825.5258" y="116.1887">&#171;entity&#187;</text><text fill="#000000" font-family="sans-serif" font-size="14" lengthAdjust="spacing" textLength="133.9092" x="783.33" y="132.0139">CUSTOMER_NOTES</text><line style="stroke:#181818;stroke-width:0.5;" x1="755.33" x2="919.2392" y1="140.3156" y2="140.3156"/><text fill="#000000" font-family="sans-serif" font-size="14" lengthAdjust="spacing" textLength="107.8096" x="760.33" y="157.3107">-content : TEXT</text><line style="stroke:#181818;stroke-width:0.5;" x1="755.33" x2="919.2392" y1="164.6125" y2="164.6125"/><text fill="#000000" font-family="sans-serif" font-size="14" lengthAdjust="spacing" textLength="128.6729" x="760.33" y="181.6076">-id : VARCHAR(36)</text></g><!--class NOTIFICATIONS--><g class="entity" data-qualified-name="NOTIFICATIONS" data-source-line="39" id="ent0006"><rect fill="#F1F1F1" height="88.8594" rx="2.5" ry="2.5" style="stroke:#181818;stroke-width:0.5;" width="140.7666" x="578.9" y="100.05"/><ellipse cx="593.9" cy="120.1828" fill="#C2C2C2" rx="11" ry="11" style="stroke:#181818;stroke-width:1;"/><path d="M596.8688,125.8234 Q596.2906,126.1203 595.65,126.2609 Q595.0094,126.4172 594.3063,126.4172 Q591.8063,126.4172 590.4781,124.7766 Q589.1656,123.1203 589.1656,119.9953 Q589.1656,116.8703 590.4781,115.2141 Q591.8063,113.5578 594.3063,113.5578 Q595.0094,113.5578 595.65,113.7141 Q596.3063,113.8703 596.8688,114.1672 L596.8688,116.8859 Q596.2438,116.3078 595.65,116.0422 Q595.0563,115.7609 594.4313,115.7609 Q593.0875,115.7609 592.4,116.8391 Q591.7125,117.9016 591.7125,119.9953 Q591.7125,122.0891 592.4,123.1672 Q593.0875,124.2297 594.4313,124.2297 Q595.0563,124.2297 595.65,123.9641 Q596.2438,123.6828 596.8688,123.1047 L596.8688,125.8234 Z " fill="#000000"/><text fill="#000000" font-family="sans-serif" font-size="12" font-style="italic" lengthAdjust="spacing" textLength="49.5176" x="637.5245" y="116.1887">&#171;entity&#187;</text><text fill="#000000" font-family="sans-serif" font-size="14" lengthAdjust="spacing" textLength="108.7666" x="607.9" y="132.0139">NOTIFICATIONS</text><line style="stroke:#181818;stroke-width:0.5;" x1="579.9" x2="718.6666" y1="140.3156" y2="140.3156"/><text fill="#000000" font-family="sans-serif" font-size="14" lengthAdjust="spacing" textLength="107.8096" x="584.9" y="157.3107">-content : TEXT</text><line style="stroke:#181818;stroke-width:0.5;" x1="579.9" x2="718.6666" y1="164.6125" y2="164.6125"/><text fill="#000000" font-family="sans-serif" font-size="14" lengthAdjust="spacing" textLength="128.6729" x="584.9" y="181.6076">-id : VARCHAR(36)</text></g><!--link YeuCauTuVanUI to YeuCauTuVanController--><g class="link" data-entity-1="ent0001" data-entity-2="ent0002" data-link-type="association" data-source-line="44" id="lnk7"><path codeLine="44" d="M243.98,144.48 C255.53,144.48 267.08,144.48 278.62,144.48" fill="none" id="YeuCauTuVanUI-YeuCauTuVanController" style="stroke:#181818;stroke-width:1;"/><text fill="#000000" font-family="sans-serif" font-size="13" lengthAdjust="spacing" textLength="8.271" x="251.4651" y="141.0942">1</text><text fill="#000000" font-family="sans-serif" font-size="13" lengthAdjust="spacing" textLength="8.271" x="262.7271" y="141.1174">1</text></g><!--link YeuCauTuVanController to CONTACT_REQUESTS--><g class="link" data-entity-1="ent0002" data-entity-2="ent0003" data-link-type="association" data-source-line="45" id="lnk8"><path codeLine="45" d="M508.79,75.34 C530.84,63.07 554.84,52.14 578.78,45.6 C703.33,11.58 1036.89,6 1159.78,45.6 C1184.69,53.63 1208.9,68.02 1229.88,83.39" fill="none" id="YeuCauTuVanController-CONTACT_REQUESTS" style="stroke:#181818;stroke-width:1;"/><text fill="#000000" font-family="sans-serif" font-size="13" lengthAdjust="spacing" textLength="8.271" x="510.447" y="64.5108">1</text><text fill="#000000" font-family="sans-serif" font-size="13" lengthAdjust="spacing" textLength="8.2393" x="1213.6378" y="72.5343">n</text></g><!--link YeuCauTuVanController to CUSTOMERS--><g class="link" data-entity-1="ent0002" data-entity-2="ent0004" data-link-type="association" data-source-line="46" id="lnk9"><path codeLine="46" d="M508.79,75.34 C530.84,63.07 554.84,52.14 578.78,45.6 C651.88,25.63 847.66,22.36 919.78,45.6 C949.03,55.02 977.31,73.23 1000.54,91.48" fill="none" id="YeuCauTuVanController-CUSTOMERS" style="stroke:#181818;stroke-width:1;"/><text fill="#000000" font-family="sans-serif" font-size="13" lengthAdjust="spacing" textLength="8.271" x="519.272" y="64.5108">1</text><text fill="#000000" font-family="sans-serif" font-size="13" lengthAdjust="spacing" textLength="8.2393" x="984.7725" y="80.8041">n</text></g><!--link YeuCauTuVanController to CUSTOMER_NOTES--><g class="link" data-entity-1="ent0002" data-entity-2="ent0005" data-link-type="association" data-source-line="47" id="lnk10"><path codeLine="47" d="M508.79,75.34 C530.84,63.07 554.84,52.14 578.78,45.6 C639.24,29.09 660.91,24.13 719.78,45.6 C749.84,56.56 777.54,78.97 798.48,99.69" fill="none" id="YeuCauTuVanController-CUSTOMER_NOTES" style="stroke:#181818;stroke-width:1;"/><text fill="#000000" font-family="sans-serif" font-size="13" lengthAdjust="spacing" textLength="8.271" x="535.3211" y="64.7035">1</text><text fill="#000000" font-family="sans-serif" font-size="13" lengthAdjust="spacing" textLength="8.2393" x="784.2106" y="89.0866">n</text></g><!--link YeuCauTuVanController to NOTIFICATIONS--><g class="link" data-entity-1="ent0002" data-entity-2="ent0006" data-link-type="association" data-source-line="48" id="lnk11"><path codeLine="48" d="M544.23,144.48 C555.72,144.48 567.21,144.48 578.7,144.48" fill="none" id="YeuCauTuVanController-NOTIFICATIONS" style="stroke:#181818;stroke-width:1;"/><text fill="#000000" font-family="sans-serif" font-size="13" lengthAdjust="spacing" textLength="8.271" x="551.7268" y="141.1406">1</text><text fill="#000000" font-family="sans-serif" font-size="13" lengthAdjust="spacing" textLength="8.2393" x="562.5555" y="140.7339">n</text></g><?plantuml-src fLBHQi8m57tlLmIV74Dm6-vX3A4BrPQjbTKesvDSQso2RLBIXB6D_VjYNRMYJDbUIdhEkUSUxhtbYei25EGebq8cJCcS8gqCTSejKp9Oo3SkKhI4h6moIGPbwMgj-Dne6YHIZFa7HLt7gHZqIWq6GymKn2H0z_TpQSG2r7k_ZpuTX2uJ9aL3qxvOWunJGHWVI9KtKC6W85QU4YuQy8edB39wQFZ6Py-YqZ-090m4m_PjsQyZsIobbSmogcp6PFDJHqnhvqRJp9W3J8Fq9IGOYeY1VcIGC1z4YkDmMpDa73FZqohMjgeE-KHX4KhUZ8X74N4ncSNUyyGRax5DHuNckfvVXo_G7PgwCVRTk7rpkxRiB4sMpGJODUwewrwluWhRgudtkXLSQaZNi1TDmaRtoPYCGY_-VzlV_MVHY7ZdDLdlngeiGRmNihEo3i4Wm2u9Hj5VdVPljNNLGftgU_HEdEFNyrCbMWUhErrGJ_jivMPk9-Lxi_a6?></g></svg>