<svg xmlns="http://www.w3.org/2000/svg" xmlns:xlink="http://www.w3.org/1999/xlink" contentStyleType="text/css" data-diagram-type="CLASS" height="208px" preserveAspectRatio="none" style="width:1304px;height:208px;background:#FFFFFF;" version="1.1" viewBox="0 0 1304 208" width="1304px" zoomAndPan="magnify"><?plantuml 1.2026.5?><defs/><g><!--class LichHenCaNhanUI--><g class="entity" data-qualified-name="LichHenCaNhanUI" data-source-line="5" id="ent0001"><rect fill="#F1F1F1" height="88.8594" rx="2.5" ry="2.5" style="stroke:#181818;stroke-width:0.5;" width="213.6328" x="7" y="88.74"/><ellipse cx="47.124" cy="108.8728" fill="#C2C2C2" rx="11" ry="11" style="stroke:#181818;stroke-width:1;"/><path d="M50.0927,114.5134 Q49.5146,114.8103 48.874,114.9509 Q48.2333,115.1072 47.5302,115.1072 Q45.0302,115.1072 43.7021,113.4666 Q42.3896,111.8103 42.3896,108.6853 Q42.3896,105.5603 43.7021,103.9041 Q45.0302,102.2478 47.5302,102.2478 Q48.2333,102.2478 48.874,102.4041 Q49.5302,102.5603 50.0927,102.8572 L50.0927,105.5759 Q49.4677,104.9978 48.874,104.7322 Q48.2802,104.4509 47.6552,104.4509 Q46.3115,104.4509 45.624,105.5291 Q44.9365,106.5916 44.9365,108.6853 Q44.9365,110.7791 45.624,111.8572 Q46.3115,112.9197 47.6552,112.9197 Q48.2802,112.9197 48.874,112.6541 Q49.4677,112.3728 50.0927,111.7947 L50.0927,114.5134 Z " fill="#000000"/><text fill="#000000" font-family="sans-serif" font-size="12" font-style="italic" lengthAdjust="spacing" textLength="71.8594" x="93.6783" y="104.8787">&#171;boundary&#187;</text><text fill="#000000" font-family="sans-serif" font-size="14" lengthAdjust="spacing" textLength="125.8018" x="66.7071" y="120.7039">LichHenCaNhanUI</text><line style="stroke:#181818;stroke-width:0.5;" x1="8" x2="219.6328" y1="129.0056" y2="129.0056"/><line style="stroke:#181818;stroke-width:0.5;" x1="8" x2="219.6328" y1="137.0056" y2="137.0056"/><text fill="#000000" font-family="sans-serif" font-size="14" lengthAdjust="spacing" textLength="170.7754" x="13" y="154.0007">+chonTheoDoiLichHen()</text><text fill="#000000" font-family="sans-serif" font-size="14" lengthAdjust="spacing" textLength="201.6328" x="13" y="170.2976">+hienThiDanhSachLichHen()</text></g><!--class XacThucController--><g class="entity" data-qualified-name="XacThucController" data-source-line="10" id="ent0002"><rect fill="#F1F1F1" height="72.5625" rx="2.5" ry="2.5" style="stroke:#181818;stroke-width:0.5;" width="186.4326" x="828.6" y="96.89"/><ellipse cx="855.0289" cy="117.0228" fill="#C2C2C2" rx="11" ry="11" style="stroke:#181818;stroke-width:1;"/><path d="M857.9976,122.6634 Q857.4195,122.9603 856.7789,123.1009 Q856.1382,123.2572 855.4351,123.2572 Q852.9351,123.2572 851.607,121.6166 Q850.2945,119.9603 850.2945,116.8353 Q850.2945,113.7103 851.607,112.0541 Q852.9351,110.3978 855.4351,110.3978 Q856.1382,110.3978 856.7789,110.5541 Q857.4351,110.7103 857.9976,111.0072 L857.9976,113.7259 Q857.3726,113.1478 856.7789,112.8822 Q856.1851,112.6009 855.5601,112.6009 Q854.2164,112.6009 853.5289,113.6791 Q852.8414,114.7416 852.8414,116.8353 Q852.8414,118.9291 853.5289,120.0072 Q854.2164,121.0697 855.5601,121.0697 Q856.1851,121.0697 856.7789,120.8041 Q857.3726,120.5228 857.9976,119.9447 L857.9976,122.6634 Z " fill="#000000"/><text fill="#000000" font-family="sans-serif" font-size="12" font-style="italic" lengthAdjust="spacing" textLength="56.543" x="907.8147" y="113.0287">&#171;control&#187;</text><text fill="#000000" font-family="sans-serif" font-size="14" lengthAdjust="spacing" textLength="129.0352" x="871.5686" y="128.8539">XacThucController</text><line style="stroke:#181818;stroke-width:0.5;" x1="829.6" x2="1014.0326" y1="137.1556" y2="137.1556"/><line style="stroke:#181818;stroke-width:0.5;" x1="829.6" x2="1014.0326" y1="145.1556" y2="145.1556"/><text fill="#000000" font-family="sans-serif" font-size="14" lengthAdjust="spacing" textLength="174.4326" x="834.6" y="162.1507">+layNguoiDungHienTai()</text></g><!--class LichHenController--><g class="entity" data-qualified-name="LichHenController" data-source-line="14" id="ent0003"><rect fill="#F1F1F1" height="72.5625" rx="2.5" ry="2.5" style="stroke:#181818;stroke-width:0.5;" width="339.0791" x="255.28" y="96.89"/><ellipse cx="357.8464" cy="117.0228" fill="#C2C2C2" rx="11" ry="11" style="stroke:#181818;stroke-width:1;"/><path d="M360.8152,122.6634 Q360.237,122.9603 359.5964,123.1009 Q358.9558,123.2572 358.2527,123.2572 Q355.7527,123.2572 354.4245,121.6166 Q353.112,119.9603 353.112,116.8353 Q353.112,113.7103 354.4245,112.0541 Q355.7527,110.3978 358.2527,110.3978 Q358.9558,110.3978 359.5964,110.5541 Q360.2527,110.7103 360.8152,111.0072 L360.8152,113.7259 Q360.1902,113.1478 359.5964,112.8822 Q359.0027,112.6009 358.3777,112.6009 Q357.0339,112.6009 356.3464,113.6791 Q355.6589,114.7416 355.6589,116.8353 Q355.6589,118.9291 356.3464,120.0072 Q357.0339,121.0697 358.3777,121.0697 Q359.0027,121.0697 359.5964,120.8041 Q360.1902,120.5228 360.8152,119.9447 L360.8152,122.6634 Z " fill="#000000"/><text fill="#000000" font-family="sans-serif" font-size="12" font-style="italic" lengthAdjust="spacing" textLength="56.543" x="412.7981" y="113.0287">&#171;control&#187;</text><text fill="#000000" font-family="sans-serif" font-size="14" lengthAdjust="spacing" textLength="125.4463" x="378.3464" y="128.8539">LichHenController</text><line style="stroke:#181818;stroke-width:0.5;" x1="256.28" x2="593.3591" y1="137.1556" y2="137.1556"/><line style="stroke:#181818;stroke-width:0.5;" x1="256.28" x2="593.3591" y1="145.1556" y2="145.1556"/><text fill="#000000" font-family="sans-serif" font-size="14" lengthAdjust="spacing" textLength="327.0791" x="261.28" y="162.1507">+layDanhSachLichHenTheoNguoiDung(userId)</text></g><!--class APPOINTMENTS--><g class="entity" data-qualified-name="APPOINTMENTS" data-source-line="18" id="ent0004"><rect fill="#F1F1F1" height="121.4531" rx="2.5" ry="2.5" style="stroke:#181818;stroke-width:0.5;" width="240.1631" x="1049.73" y="72.45"/><ellipse cx="1110.8262" cy="92.5828" fill="#C2C2C2" rx="11" ry="11" style="stroke:#181818;stroke-width:1;"/><path d="M1113.7949,98.2234 Q1113.2168,98.5203 1112.5762,98.6609 Q1111.9356,98.8172 1111.2324,98.8172 Q1108.7324,98.8172 1107.4043,97.1766 Q1106.0918,95.5203 1106.0918,92.3953 Q1106.0918,89.2703 1107.4043,87.6141 Q1108.7324,85.9578 1111.2324,85.9578 Q1111.9356,85.9578 1112.5762,86.1141 Q1113.2324,86.2703 1113.7949,86.5672 L1113.7949,89.2859 Q1113.1699,88.7078 1112.5762,88.4422 Q1111.9824,88.1609 1111.3574,88.1609 Q1110.0137,88.1609 1109.3262,89.2391 Q1108.6387,90.3016 1108.6387,92.3953 Q1108.6387,94.4891 1109.3262,95.5672 Q1110.0137,96.6297 1111.3574,96.6297 Q1111.9824,96.6297 1112.5762,96.3641 Q1113.1699,96.0828 1113.7949,95.5047 L1113.7949,98.2234 Z " fill="#000000"/><text fill="#000000" font-family="sans-serif" font-size="12" font-style="italic" lengthAdjust="spacing" textLength="49.5176" x="1161.3028" y="88.5887">&#171;entity&#187;</text><text fill="#000000" font-family="sans-serif" font-size="14" lengthAdjust="spacing" textLength="109.4707" x="1131.3262" y="104.4139">APPOINTMENTS</text><line style="stroke:#181818;stroke-width:0.5;" x1="1050.73" x2="1288.8931" y1="112.7156" y2="112.7156"/><text fill="#000000" font-family="sans-serif" font-size="14" lengthAdjust="spacing" textLength="228.1631" x="1055.73" y="129.7107">-appointment_date : TIMESTAMP</text><text fill="#000000" font-family="sans-serif" font-size="14" lengthAdjust="spacing" textLength="103.332" x="1055.73" y="146.0076">-status : ENUM</text><line style="stroke:#181818;stroke-width:0.5;" x1="1050.73" x2="1288.8931" y1="153.3094" y2="153.3094"/><text fill="#000000" font-family="sans-serif" font-size="14" lengthAdjust="spacing" textLength="128.6729" x="1055.73" y="170.3045">-id : VARCHAR(36)</text><text fill="#000000" font-family="sans-serif" font-size="14" lengthAdjust="spacing" textLength="166.209" x="1055.73" y="186.6014">-user_id : VARCHAR(36)</text></g><!--class CARS--><g class="entity" data-qualified-name="CARS" data-source-line="25" id="ent0005"><rect fill="#F1F1F1" height="105.1563" rx="2.5" ry="2.5" style="stroke:#181818;stroke-width:0.5;" width="164.1748" x="629.73" y="80.6"/><ellipse cx="684.8086" cy="100.7328" fill="#C2C2C2" rx="11" ry="11" style="stroke:#181818;stroke-width:1;"/><path d="M687.7774,106.3734 Q687.1992,106.6703 686.5586,106.8109 Q685.918,106.9672 685.2149,106.9672 Q682.7149,106.9672 681.3867,105.3266 Q680.0742,103.6703 680.0742,100.5453 Q680.0742,97.4203 681.3867,95.7641 Q682.7149,94.1078 685.2149,94.1078 Q685.918,94.1078 686.5586,94.2641 Q687.2149,94.4203 687.7774,94.7172 L687.7774,97.4359 Q687.1524,96.8578 686.5586,96.5922 Q685.9649,96.3109 685.3399,96.3109 Q683.9961,96.3109 683.3086,97.3891 Q682.6211,98.4516 682.6211,100.5453 Q682.6211,102.6391 683.3086,103.7172 Q683.9961,104.7797 685.3399,104.7797 Q685.9649,104.7797 686.5586,104.5141 Q687.1524,104.2328 687.7774,103.6547 L687.7774,106.3734 Z " fill="#000000"/><text fill="#000000" font-family="sans-serif" font-size="12" font-style="italic" lengthAdjust="spacing" textLength="49.5176" x="703.3086" y="96.7387">&#171;entity&#187;</text><text fill="#000000" font-family="sans-serif" font-size="14" lengthAdjust="spacing" textLength="37.9668" x="709.084" y="112.5639">CARS</text><line style="stroke:#181818;stroke-width:0.5;" x1="630.73" x2="792.9048" y1="120.8656" y2="120.8656"/><text fill="#000000" font-family="sans-serif" font-size="14" lengthAdjust="spacing" textLength="101.2471" x="635.73" y="137.8607">-price : BIGINT</text><line style="stroke:#181818;stroke-width:0.5;" x1="630.73" x2="792.9048" y1="145.1625" y2="145.1625"/><text fill="#000000" font-family="sans-serif" font-size="14" lengthAdjust="spacing" textLength="128.6729" x="635.73" y="162.1576">-id : VARCHAR(36)</text><text fill="#000000" font-family="sans-serif" font-size="14" lengthAdjust="spacing" textLength="152.1748" x="635.73" y="178.4545">-title : VARCHAR(255)</text></g><!--link LichHenCaNhanUI to XacThucController--><g class="link" data-entity-1="ent0001" data-entity-2="ent0002" data-link-type="association" data-source-line="31" id="lnk6"><path codeLine="31" d="M167.66,88.31 C192.67,70.32 223.81,51.68 255.32,42.45 C370.26,8.76 680.22,6 794.32,42.45 C827.83,53.15 860.06,76.24 883.74,96.45" fill="none" id="LichHenCaNhanUI-XacThucController" style="stroke:#181818;stroke-width:1;"/><text fill="#000000" font-family="sans-serif" font-size="13" lengthAdjust="spacing" textLength="8.271" x="167.0007" y="77.6963">1</text><text fill="#000000" font-family="sans-serif" font-size="13" lengthAdjust="spacing" textLength="8.271" x="868.5314" y="85.9278">1</text></g><!--link LichHenCaNhanUI to LichHenController--><g class="link" data-entity-1="ent0001" data-entity-2="ent0003" data-link-type="association" data-source-line="32" id="lnk7"><path codeLine="32" d="M221.03,133.17 C232.3,133.17 243.58,133.17 254.86,133.17" fill="none" id="LichHenCaNhanUI-LichHenController" style="stroke:#181818;stroke-width:1;"/><text fill="#000000" font-family="sans-serif" font-size="13" lengthAdjust="spacing" textLength="8.271" x="228.5113" y="129.7375">1</text><text fill="#000000" font-family="sans-serif" font-size="13" lengthAdjust="spacing" textLength="8.271" x="238.9836" y="129.9">1</text></g><!--link XacThucController to APPOINTMENTS--><g class="link" data-entity-1="ent0002" data-entity-2="ent0004" data-link-type="association" data-source-line="33" id="lnk8"><path codeLine="33" d="M1015.3,133.17 C1026.67,133.17 1038.04,133.17 1049.4,133.17" fill="none" id="XacThucController-APPOINTMENTS" style="stroke:#181818;stroke-width:1;"/><text fill="#000000" font-family="sans-serif" font-size="13" lengthAdjust="spacing" textLength="8.271" x="1023.079" y="129.6444">1</text><text fill="#000000" font-family="sans-serif" font-size="13" lengthAdjust="spacing" textLength="8.2393" x="1033.4375" y="129.7603">n</text></g><!--link LichHenController to APPOINTMENTS--><g class="link" data-entity-1="ent0003" data-entity-2="ent0004" data-link-type="association" data-source-line="34" id="lnk9"><path codeLine="34" d="M488.77,96.48 C527.96,76.14 579.92,52.91 629.32,42.45 C713.23,24.67 932.54,19.94 1015.32,42.45 C1038.88,48.85 1062.52,59.86 1083.97,72.05" fill="none" id="LichHenController-APPOINTMENTS" style="stroke:#181818;stroke-width:1;"/><text fill="#000000" font-family="sans-serif" font-size="13" lengthAdjust="spacing" textLength="8.271" x="491.4728" y="85.6872">1</text><text fill="#000000" font-family="sans-serif" font-size="13" lengthAdjust="spacing" textLength="8.2393" x="1065.5959" y="61.1896">n</text></g><!--link LichHenController to CARS--><g class="link" data-entity-1="ent0003" data-entity-2="ent0005" data-link-type="association" data-source-line="35" id="lnk10"><path codeLine="35" d="M594.66,133.17 C606.26,133.17 617.85,133.17 629.44,133.17" fill="none" id="LichHenController-CARS" style="stroke:#181818;stroke-width:1;"/><text fill="#000000" font-family="sans-serif" font-size="13" lengthAdjust="spacing" textLength="8.271" x="602.5433" y="129.9">1</text><text fill="#000000" font-family="sans-serif" font-size="13" lengthAdjust="spacing" textLength="8.2393" x="613.4881" y="129.5509">n</text></g><?plantuml-src dP5RQy9048NVyoiMdon5w0NxK4H8ezH0auh6qZSPDrjtQB8RzaAnfV-zkzPeQegKlWJsdCENCpFw5KK52afIIY4fLx9an2ZB0hrtD8TSlg5OanSeTDEX1MWT6gDmPGsBgHHpV6Va8WYs3db0oYTCH91o48kO30OhQKKEQZCSae-0a7FAfSWuaoE9kt3tpEiScTDn18BFWVA3zrcpdu5ctD982gDaKJ3bwFJxKSCBsAHhAt5anNhYWO1DGjtkDE6eWY-xXtQjPYhE6ynmEdsCqomPfzdSuPWmQEfXUvYJM_8Kpg99EEjUt_X1Uvwm_Cs0gf8eJEaGonmCSuaiJiRpB4octjS6ZDLE7QUBv50W2cT_-x7p2zQGh_hzhLuff5w_Y-_T81vyVCNEPOVqjj_M3KvaMziEsXVSfKNdnnw3zg7-4VIB-G80?></g></svg>