<svg xmlns="http://www.w3.org/2000/svg" xmlns:xlink="http://www.w3.org/1999/xlink" contentStyleType="text/css" data-diagram-type="CLASS" height="143px" preserveAspectRatio="none" style="width:747px;height:143px;background:#FFFFFF;" version="1.1" viewBox="0 0 747 143" width="747px" zoomAndPan="magnify"><?plantuml 1.2026.5?><defs/><g><!--class QLTaiKhoanUI--><g class="entity" data-qualified-name="QLTaiKhoanUI" data-source-line="5" id="ent0001"><rect fill="#F1F1F1" height="121.4531" rx="2.5" ry="2.5" style="stroke:#181818;stroke-width:0.5;" width="226.0674" x="7" y="7"/><ellipse cx="66.6401" cy="27.1328" fill="#C2C2C2" rx="11" ry="11" style="stroke:#181818;stroke-width:1;"/><path d="M69.6089,32.7734 Q69.0308,33.0703 68.3901,33.2109 Q67.7495,33.3672 67.0464,33.3672 Q64.5464,33.3672 63.2183,31.7266 Q61.9058,30.0703 61.9058,26.9453 Q61.9058,23.8203 63.2183,22.1641 Q64.5464,20.5078 67.0464,20.5078 Q67.7495,20.5078 68.3901,20.6641 Q69.0464,20.8203 69.6089,21.1172 L69.6089,23.8359 Q68.9839,23.2578 68.3901,22.9922 Q67.7964,22.7109 67.1714,22.7109 Q65.8276,22.7109 65.1401,23.7891 Q64.4526,24.8516 64.4526,26.9453 Q64.4526,29.0391 65.1401,30.1172 Q65.8276,31.1797 67.1714,31.1797 Q67.7964,31.1797 68.3901,30.9141 Q68.9839,30.6328 69.6089,30.0547 L69.6089,32.7734 Z " fill="#000000"/><text fill="#000000" font-family="sans-serif" font-size="12" font-style="italic" lengthAdjust="spacing" textLength="71.8594" x="100.354" y="23.1387">&#171;boundary&#187;</text><text fill="#000000" font-family="sans-serif" font-size="14" lengthAdjust="spacing" textLength="98.2871" x="87.1401" y="38.9639">QLTaiKhoanUI</text><line style="stroke:#181818;stroke-width:0.5;" x1="8" x2="232.0674" y1="47.2656" y2="47.2656"/><line style="stroke:#181818;stroke-width:0.5;" x1="8" x2="232.0674" y1="55.2656" y2="55.2656"/><text fill="#000000" font-family="sans-serif" font-size="14" lengthAdjust="spacing" textLength="175.1846" x="13" y="72.2607">+chonQuanLyTaiKhoan()</text><text fill="#000000" font-family="sans-serif" font-size="14" lengthAdjust="spacing" textLength="210.4512" x="13" y="88.5576">+hienThiDanhSachTaiKhoan()</text><text fill="#000000" font-family="sans-serif" font-size="14" lengthAdjust="spacing" textLength="213.8691" x="13" y="104.8545">+chonTaiKhoanVaHanhDong()</text><text fill="#000000" font-family="sans-serif" font-size="14" lengthAdjust="spacing" textLength="214.0674" x="13" y="121.1514">+capNhatManHinhDanhSach()</text></g><!--class QLTaiKhoanController--><g class="entity" data-qualified-name="QLTaiKhoanController" data-source-line="12" id="ent0002"><rect fill="#F1F1F1" height="88.8594" rx="2.5" ry="2.5" style="stroke:#181818;stroke-width:0.5;" width="253.8691" x="268.1" y="23.29"/><ellipse cx="314.2426" cy="43.4228" fill="#C2C2C2" rx="11" ry="11" style="stroke:#181818;stroke-width:1;"/><path d="M317.2113,49.0634 Q316.6332,49.3603 315.9926,49.5009 Q315.352,49.6572 314.6488,49.6572 Q312.1488,49.6572 310.8207,48.0166 Q309.5082,46.3603 309.5082,43.2353 Q309.5082,40.1103 310.8207,38.4541 Q312.1488,36.7978 314.6488,36.7978 Q315.352,36.7978 315.9926,36.9541 Q316.6488,37.1103 317.2113,37.4072 L317.2113,40.1259 Q316.5863,39.5478 315.9926,39.2822 Q315.3988,39.0009 314.7738,39.0009 Q313.4301,39.0009 312.7426,40.0791 Q312.0551,41.1416 312.0551,43.2353 Q312.0551,45.3291 312.7426,46.4072 Q313.4301,47.4697 314.7738,47.4697 Q315.3988,47.4697 315.9926,47.2041 Q316.5863,46.9228 317.2113,46.3447 L317.2113,49.0634 Z " fill="#000000"/><text fill="#000000" font-family="sans-serif" font-size="12" font-style="italic" lengthAdjust="spacing" textLength="56.543" x="383.0131" y="39.4287">&#171;control&#187;</text><text fill="#000000" font-family="sans-serif" font-size="14" lengthAdjust="spacing" textLength="153.084" x="334.7426" y="55.2539">QLTaiKhoanController</text><line style="stroke:#181818;stroke-width:0.5;" x1="269.1" x2="520.9691" y1="63.5556" y2="63.5556"/><line style="stroke:#181818;stroke-width:0.5;" x1="269.1" x2="520.9691" y1="71.5556" y2="71.5556"/><text fill="#000000" font-family="sans-serif" font-size="14" lengthAdjust="spacing" textLength="179.6416" x="274.1" y="88.5507">+layDanhSachTaiKhoan()</text><text fill="#000000" font-family="sans-serif" font-size="14" lengthAdjust="spacing" textLength="241.8691" x="274.1" y="104.8476">+capNhatTaiKhoan(userId, action)</text></g><!--class USERS--><g class="entity" data-qualified-name="USERS" data-source-line="17" id="ent0003"><rect fill="#F1F1F1" height="121.4531" rx="2.5" ry="2.5" style="stroke:#181818;stroke-width:0.5;" width="175.4131" x="557.33" y="7"/><ellipse cx="617.4897" cy="27.1328" fill="#C2C2C2" rx="11" ry="11" style="stroke:#181818;stroke-width:1;"/><path d="M620.4584,32.7734 Q619.8803,33.0703 619.2397,33.2109 Q618.599,33.3672 617.8959,33.3672 Q615.3959,33.3672 614.0678,31.7266 Q612.7553,30.0703 612.7553,26.9453 Q612.7553,23.8203 614.0678,22.1641 Q615.3959,20.5078 617.8959,20.5078 Q618.599,20.5078 619.2397,20.6641 Q619.8959,20.8203 620.4584,21.1172 L620.4584,23.8359 Q619.8334,23.2578 619.2397,22.9922 Q618.6459,22.7109 618.0209,22.7109 Q616.6772,22.7109 615.9897,23.7891 Q615.3022,24.8516 615.3022,26.9453 Q615.3022,29.0391 615.9897,30.1172 Q616.6772,31.1797 618.0209,31.1797 Q618.6459,31.1797 619.2397,30.9141 Q619.8334,30.6328 620.4584,30.0547 L620.4584,32.7734 Z " fill="#000000"/><text fill="#000000" font-family="sans-serif" font-size="12" font-style="italic" lengthAdjust="spacing" textLength="49.5176" x="636.5278" y="23.1387">&#171;entity&#187;</text><text fill="#000000" font-family="sans-serif" font-size="14" lengthAdjust="spacing" textLength="46.5938" x="637.9897" y="38.9639">USERS</text><line style="stroke:#181818;stroke-width:0.5;" x1="558.33" x2="731.7431" y1="47.2656" y2="47.2656"/><text fill="#000000" font-family="sans-serif" font-size="14" lengthAdjust="spacing" textLength="87.1377" x="563.33" y="64.2607">-role : ENUM</text><text fill="#000000" font-family="sans-serif" font-size="14" lengthAdjust="spacing" textLength="103.332" x="563.33" y="80.5576">-status : ENUM</text><line style="stroke:#181818;stroke-width:0.5;" x1="558.33" x2="731.7431" y1="87.8594" y2="87.8594"/><text fill="#000000" font-family="sans-serif" font-size="14" lengthAdjust="spacing" textLength="128.6729" x="563.33" y="104.8545">-id : VARCHAR(36)</text><text fill="#000000" font-family="sans-serif" font-size="14" lengthAdjust="spacing" textLength="163.4131" x="563.33" y="121.1514">-email : VARCHAR(255)</text></g><!--link QLTaiKhoanUI to QLTaiKhoanController--><g class="link" data-entity-1="ent0001" data-entity-2="ent0002" data-link-type="association" data-source-line="24" id="lnk4"><path codeLine="24" d="M233.36,67.72 C244.84,67.72 256.31,67.72 267.78,67.72" fill="none" id="QLTaiKhoanUI-QLTaiKhoanController" style="stroke:#181818;stroke-width:1;"/><text fill="#000000" font-family="sans-serif" font-size="13" lengthAdjust="spacing" textLength="8.271" x="240.8849" y="64.3103">1</text><text fill="#000000" font-family="sans-serif" font-size="13" lengthAdjust="spacing" textLength="8.271" x="251.7899" y="64.3339">1</text></g><!--link QLTaiKhoanController to USERS--><g class="link" data-entity-1="ent0002" data-entity-2="ent0003" data-link-type="association" data-source-line="25" id="lnk5"><path codeLine="25" d="M521.99,67.72 C533.68,67.72 545.38,67.72 557.07,67.72" fill="none" id="QLTaiKhoanController-USERS" style="stroke:#181818;stroke-width:1;"/><text fill="#000000" font-family="sans-serif" font-size="13" lengthAdjust="spacing" textLength="8.271" x="529.9784" y="64.3339">1</text><text fill="#000000" font-family="sans-serif" font-size="13" lengthAdjust="spacing" textLength="8.2393" x="541.1769" y="64.1475">n</text></g><?plantuml-src TP1RQy9048NVyoi6donje1ViGn4Xg91G5KoCx-DcwovDPcLtGqbB_titDubeNnRcEpDppgpvb7H2ZGKKYXGJMXKSh2wvPywA4PYfBqb7-C3S31MMep61jLeUIiiZfYYHtnmUFQzHOBlQeNmN2YcDO3ezg98orDLi1ZyUm3qJYhObqghgsyPtDHUIqqx81P98a8bBiHxgoHv3rxDGTEmqF6q4sZLIA1tlvftsUvrehiXgbUTSksIiBVfWELR_cBS6PrWQhgFi0P1PgMZWaoRBE76BELbf-uDzcS4Rx8Du7WRn-EMrNkdp0cK-mC-JISDT7ExmSfEkwz9OjANfWVEv-DlHqmZyvhrre7Vpwcw6HctOFm00?></g></svg>