<svg xmlns="http://www.w3.org/2000/svg" xmlns:xlink="http://www.w3.org/1999/xlink" contentStyleType="text/css" data-diagram-type="CLASS" height="322px" preserveAspectRatio="none" style="width:907px;height:322px;background:#FFFFFF;" version="1.1" viewBox="0 0 907 322" width="907px" zoomAndPan="magnify"><?plantuml 1.2026.5?><defs/><g><!--class DangKyUI--><g class="entity" data-qualified-name="DangKyUI" data-source-line="5" id="ent0001"><rect fill="#F1F1F1" height="137.75" rx="2.5" ry="2.5" style="stroke:#181818;stroke-width:0.5;" width="236.5674" x="7" y="88.49"/><ellipse cx="86.5532" cy="108.6228" fill="#C2C2C2" rx="11" ry="11" style="stroke:#181818;stroke-width:1;"/><path d="M89.522,114.2634 Q88.9438,114.5603 88.3032,114.7009 Q87.6626,114.8572 86.9595,114.8572 Q84.4595,114.8572 83.1313,113.2166 Q81.8188,111.5603 81.8188,108.4353 Q81.8188,105.3103 83.1313,103.6541 Q84.4595,101.9978 86.9595,101.9978 Q87.6626,101.9978 88.3032,102.1541 Q88.9595,102.3103 89.522,102.6072 L89.522,105.3259 Q88.897,104.7478 88.3032,104.4822 Q87.7095,104.2009 87.0845,104.2009 Q85.7407,104.2009 85.0532,105.2791 Q84.3657,106.3416 84.3657,108.4353 Q84.3657,110.5291 85.0532,111.6072 Q85.7407,112.6697 87.0845,112.6697 Q87.7095,112.6697 88.3032,112.4041 Q88.897,112.1228 89.522,111.5447 L89.522,114.2634 Z " fill="#000000"/><text fill="#000000" font-family="sans-serif" font-size="12" font-style="italic" lengthAdjust="spacing" textLength="71.8594" x="105.604" y="104.6287">&#171;boundary&#187;</text><text fill="#000000" font-family="sans-serif" font-size="14" lengthAdjust="spacing" textLength="68.9609" x="107.0532" y="120.4539">DangKyUI</text><line style="stroke:#181818;stroke-width:0.5;" x1="8" x2="242.5674" y1="128.7556" y2="128.7556"/><line style="stroke:#181818;stroke-width:0.5;" x1="8" x2="242.5674" y1="136.7556" y2="136.7556"/><text fill="#000000" font-family="sans-serif" font-size="14" lengthAdjust="spacing" textLength="111.248" x="13" y="153.7507">+chonDangKy()</text><text fill="#000000" font-family="sans-serif" font-size="14" lengthAdjust="spacing" textLength="190.4971" x="13" y="170.0476">+hienThiManHinhDangKy()</text><text fill="#000000" font-family="sans-serif" font-size="14" lengthAdjust="spacing" textLength="177.5156" x="13" y="186.3445">+nhapThongTinDangKy()</text><text fill="#000000" font-family="sans-serif" font-size="14" lengthAdjust="spacing" textLength="130.6416" x="13" y="202.6414">+kichNutDangKy()</text><text fill="#000000" font-family="sans-serif" font-size="14" lengthAdjust="spacing" textLength="224.5674" x="13" y="218.9382">+hienThiThongBaoThanhCong()</text></g><!--class DangKyController--><g class="entity" data-qualified-name="DangKyController" data-source-line="13" id="ent0002"><rect fill="#F1F1F1" height="105.1563" rx="2.5" ry="2.5" style="stroke:#181818;stroke-width:0.5;" width="177.6416" x="368.46" y="104.78"/><ellipse cx="393.3077" cy="124.9128" fill="#C2C2C2" rx="11" ry="11" style="stroke:#181818;stroke-width:1;"/><path d="M396.2765,130.5534 Q395.6983,130.8503 395.0577,130.9909 Q394.4171,131.1472 393.714,131.1472 Q391.214,131.1472 389.8858,129.5066 Q388.5733,127.8503 388.5733,124.7253 Q388.5733,121.6003 389.8858,119.9441 Q391.214,118.2878 393.714,118.2878 Q394.4171,118.2878 395.0577,118.4441 Q395.714,118.6003 396.2765,118.8972 L396.2765,121.6159 Q395.6515,121.0378 395.0577,120.7722 Q394.464,120.4909 393.839,120.4909 Q392.4952,120.4909 391.8077,121.5691 Q391.1202,122.6316 391.1202,124.7253 Q391.1202,126.8191 391.8077,127.8972 Q392.4952,128.9597 393.839,128.9597 Q394.464,128.9597 395.0577,128.6941 Q395.6515,128.4128 396.2765,127.8347 L396.2765,130.5534 Z " fill="#000000"/><text fill="#000000" font-family="sans-serif" font-size="12" font-style="italic" lengthAdjust="spacing" textLength="56.543" x="443.1035" y="120.9187">&#171;control&#187;</text><text fill="#000000" font-family="sans-serif" font-size="14" lengthAdjust="spacing" textLength="123.7578" x="409.4961" y="136.7439">DangKyController</text><line style="stroke:#181818;stroke-width:0.5;" x1="369.46" x2="545.1016" y1="145.0456" y2="145.0456"/><line style="stroke:#181818;stroke-width:0.5;" x1="369.46" x2="545.1016" y1="153.0456" y2="153.0456"/><text fill="#000000" font-family="sans-serif" font-size="14" lengthAdjust="spacing" textLength="163.9531" x="374.46" y="170.0407">+guiThongTinDangKy()</text><text fill="#000000" font-family="sans-serif" font-size="14" lengthAdjust="spacing" textLength="165.6416" x="374.46" y="186.3376">+kiemTraEmailTonTai()</text><text fill="#000000" font-family="sans-serif" font-size="14" lengthAdjust="spacing" textLength="133.916" x="374.46" y="202.6345">+luuTaiKhoanMoi()</text></g><!--class USERS--><g class="entity" data-qualified-name="USERS" data-source-line="19" id="ent0003"><rect fill="#F1F1F1" height="300.7188" rx="2.5" ry="2.5" style="stroke:#181818;stroke-width:0.5;" width="205.0879" x="687.74" y="7"/><ellipse cx="762.7371" cy="27.1328" fill="#C2C2C2" rx="11" ry="11" style="stroke:#181818;stroke-width:1;"/><path d="M765.7058,32.7734 Q765.1277,33.0703 764.4871,33.2109 Q763.8464,33.3672 763.1433,33.3672 Q760.6433,33.3672 759.3152,31.7266 Q758.0027,30.0703 758.0027,26.9453 Q758.0027,23.8203 759.3152,22.1641 Q760.6433,20.5078 763.1433,20.5078 Q763.8464,20.5078 764.4871,20.6641 Q765.1433,20.8203 765.7058,21.1172 L765.7058,23.8359 Q765.0808,23.2578 764.4871,22.9922 Q763.8933,22.7109 763.2683,22.7109 Q761.9246,22.7109 761.2371,23.7891 Q760.5496,24.8516 760.5496,26.9453 Q760.5496,29.0391 761.2371,30.1172 Q761.9246,31.1797 763.2683,31.1797 Q763.8933,31.1797 764.4871,30.9141 Q765.0808,30.6328 765.7058,30.0547 L765.7058,32.7734 Z " fill="#000000"/><text fill="#000000" font-family="sans-serif" font-size="12" font-style="italic" lengthAdjust="spacing" textLength="49.5176" x="781.7752" y="23.1387">&#171;entity&#187;</text><text fill="#000000" font-family="sans-serif" font-size="14" lengthAdjust="spacing" textLength="46.5938" x="783.2371" y="38.9639">USERS</text><line style="stroke:#181818;stroke-width:0.5;" x1="688.74" x2="891.8279" y1="47.2656" y2="47.2656"/><text fill="#000000" font-family="sans-serif" font-size="14" lengthAdjust="spacing" textLength="87.1377" x="693.74" y="64.2607">-role : ENUM</text><text fill="#000000" font-family="sans-serif" font-size="14" lengthAdjust="spacing" textLength="103.332" x="693.74" y="80.5576">-status : ENUM</text><line style="stroke:#181818;stroke-width:0.5;" x1="688.74" x2="891.8279" y1="87.8594" y2="87.8594"/><text fill="#000000" font-family="sans-serif" font-size="14" lengthAdjust="spacing" textLength="128.6729" x="693.74" y="104.8545">-id : VARCHAR(36)</text><text fill="#000000" font-family="sans-serif" font-size="14" lengthAdjust="spacing" textLength="193.0879" x="693.74" y="121.1514">-full_name : VARCHAR(255)</text><text fill="#000000" font-family="sans-serif" font-size="14" lengthAdjust="spacing" textLength="163.4131" x="693.74" y="137.4482">-email : VARCHAR(255)</text><text fill="#000000" font-family="sans-serif" font-size="14" lengthAdjust="spacing" textLength="159.708" x="693.74" y="153.7451">-phone : VARCHAR(50)</text><text fill="#000000" font-family="sans-serif" font-size="14" lengthAdjust="spacing" textLength="191.5156" x="693.74" y="170.042">-password : VARCHAR(255)</text><text fill="#000000" font-family="sans-serif" font-size="14" lengthAdjust="spacing" textLength="58.6592" x="693.74" y="186.3389">+getId()</text><text fill="#000000" font-family="sans-serif" font-size="14" lengthAdjust="spacing" textLength="69.8428" x="693.74" y="202.6357">+setId(id)</text><text fill="#000000" font-family="sans-serif" font-size="14" lengthAdjust="spacing" textLength="111.6514" x="693.74" y="218.9326">+getFullName()</text><text fill="#000000" font-family="sans-serif" font-size="14" lengthAdjust="spacing" textLength="149.7617" x="693.74" y="235.2295">+setFullName(name)</text><text fill="#000000" font-family="sans-serif" font-size="14" lengthAdjust="spacing" textLength="84.4854" x="693.74" y="251.5264">+getEmail()</text><text fill="#000000" font-family="sans-serif" font-size="14" lengthAdjust="spacing" textLength="121.502" x="693.74" y="267.8232">+setEmail(email)</text><text fill="#000000" font-family="sans-serif" font-size="14" lengthAdjust="spacing" textLength="111.9111" x="693.74" y="284.1201">+getPassword()</text><text fill="#000000" font-family="sans-serif" font-size="14" lengthAdjust="spacing" textLength="142.3721" x="693.74" y="300.417">+setPassword(pass)</text></g><!--link DangKyUI to DangKyController--><g class="link" data-entity-1="ent0001" data-entity-2="ent0002" data-link-type="association" data-source-line="37" id="lnk4"><path codeLine="37" d="M243.74,157.36 C284.71,157.36 329.89,157.36 368.11,157.36" fill="none" id="DangKyUI-DangKyController" style="stroke:#181818;stroke-width:1;"/><polygon fill="#000000" points="271.02,145.9264,261.9749,142.9875,261.9749,148.8653,271.02,145.9264" style="stroke:#000000;stroke-width:1;stroke-linejoin:miter;stroke-miterlimit:10;"/><text fill="#000000" font-family="sans-serif" font-size="13" lengthAdjust="spacing" textLength="75.6514" x="275.02" y="150.4269">gui yeu cau</text><text fill="#000000" font-family="sans-serif" font-size="13" lengthAdjust="spacing" textLength="8.271" x="251.5935" y="153.9504">1</text><text fill="#000000" font-family="sans-serif" font-size="13" lengthAdjust="spacing" textLength="8.271" x="352.1148" y="153.7882">1</text></g><!--link DangKyController to USERS--><g class="link" data-entity-1="ent0002" data-entity-2="ent0003" data-link-type="association" data-source-line="38" id="lnk5"><path codeLine="38" d="M546.52,157.36 C589.96,157.36 642.43,157.36 687.53,157.36" fill="none" id="DangKyController-USERS" style="stroke:#181818;stroke-width:1;"/><polygon fill="#000000" points="573.42,145.9264,564.3749,142.9875,564.3749,148.8653,573.42,145.9264" style="stroke:#000000;stroke-width:1;stroke-linejoin:miter;stroke-miterlimit:10;"/><text fill="#000000" font-family="sans-serif" font-size="13" lengthAdjust="spacing" textLength="92.8979" x="577.42" y="150.4269">truy van &amp; luu</text><text fill="#000000" font-family="sans-serif" font-size="13" lengthAdjust="spacing" textLength="8.271" x="553.9608" y="153.8347">1</text><text fill="#000000" font-family="sans-serif" font-size="13" lengthAdjust="spacing" textLength="8.2393" x="671.3658" y="153.8578">n</text></g><?plantuml-src RL9DQm8n4BtlhnWy54K4ss8F8eAr5aMKecklPToDc-3kHF9HiQN_lTdiXufUminxRp8lCz5xGGTKc44cIKPSoOo1KPO5kcOqnrWU1IMmmrHVCb6AMe-CKM9h3Pj5ajRYXq4t23m3RqZ9_BIPmM2mbPPYLAVX47u3W7R49HLqivNdN30AkLWWJGNnIuOu7aAdJa9nLR4N4LzQS-SIhtv56N8aFdQnO_-kFJdKA9ccJ3blKP5KrX8hxlTZMQXmag58GqaXYW9FhNNnd4kaXHINhJRhoMhjxcTaXAbUtX4nzE5pj1fFHwlcyqj-HsTdq_IBqCt-J3trUfvZUSCx-C5vlDJtkWNiEX-bYkzKk3Vc1PFbPf6dsg2n-Woq4sPcSV4exKCHjqhytHbSEdyrMmEvwqhbPrDBYipRhmGVfRbQKmEvRJ-w-iyq7XlGyUVDolhWTWGdPY522yFWHb3MKgFSGJ__qoVuHe87S0k3uJy0?></g></svg>