<svg xmlns="http://www.w3.org/2000/svg" xmlns:xlink="http://www.w3.org/1999/xlink" contentStyleType="text/css" data-diagram-type="CLASS" height="231px" preserveAspectRatio="none" style="width:1335px;height:231px;background:#FFFFFF;" version="1.1" viewBox="0 0 1335 231" width="1335px" zoomAndPan="magnify"><?plantuml 1.2026.5?><defs/><g><!--class DatLichUI--><g class="entity" data-qualified-name="DatLichUI" data-source-line="5" id="ent0001"><rect fill="#F1F1F1" height="137.75" rx="2.5" ry="2.5" style="stroke:#181818;stroke-width:0.5;" width="289.6758" x="7" y="70.36"/><ellipse cx="113.6582" cy="90.4928" fill="#C2C2C2" rx="11" ry="11" style="stroke:#181818;stroke-width:1;"/><path d="M116.627,96.1334 Q116.0488,96.4303 115.4082,96.5709 Q114.7676,96.7272 114.0645,96.7272 Q111.5645,96.7272 110.2363,95.0866 Q108.9238,93.4303 108.9238,90.3053 Q108.9238,87.1803 110.2363,85.5241 Q111.5645,83.8678 114.0645,83.8678 Q114.7676,83.8678 115.4082,84.0241 Q116.0645,84.1803 116.627,84.4772 L116.627,87.1959 Q116.002,86.6178 115.4082,86.3522 Q114.8145,86.0709 114.1895,86.0709 Q112.8457,86.0709 112.1582,87.1491 Q111.4707,88.2116 111.4707,90.3053 Q111.4707,92.3991 112.1582,93.4772 Q112.8457,94.5397 114.1895,94.5397 Q114.8145,94.5397 115.4082,94.2741 Q116.002,93.9928 116.627,93.4147 L116.627,96.1334 Z " fill="#000000"/><text fill="#000000" font-family="sans-serif" font-size="12" font-style="italic" lengthAdjust="spacing" textLength="71.8594" x="132.1582" y="86.4987">&#171;boundary&#187;</text><text fill="#000000" font-family="sans-serif" font-size="14" lengthAdjust="spacing" textLength="67.4844" x="134.3457" y="102.3239">DatLichUI</text><line style="stroke:#181818;stroke-width:0.5;" x1="8" x2="295.6758" y1="110.6256" y2="110.6256"/><line style="stroke:#181818;stroke-width:0.5;" x1="8" x2="295.6758" y1="118.6256" y2="118.6256"/><text fill="#000000" font-family="sans-serif" font-size="14" lengthAdjust="spacing" textLength="182.2188" x="13" y="135.6207">+chonXeVaChonDatLich()</text><text fill="#000000" font-family="sans-serif" font-size="14" lengthAdjust="spacing" textLength="163.3379" x="13" y="151.9176">+hienThiFormDatLich()</text><text fill="#000000" font-family="sans-serif" font-size="14" lengthAdjust="spacing" textLength="236.7012" x="13" y="168.2145">+nhapThongTinVaChonNgayGio()</text><text fill="#000000" font-family="sans-serif" font-size="14" lengthAdjust="spacing" textLength="152.7764" x="13" y="184.5114">+kichNutGuiDatLich()</text><text fill="#000000" font-family="sans-serif" font-size="14" lengthAdjust="spacing" textLength="277.6758" x="13" y="200.8082">+hienThiThongBaoDatLichThanhCong()</text></g><!--class LichHenController--><g class="entity" data-qualified-name="LichHenController" data-source-line="13" id="ent0002"><rect fill="#F1F1F1" height="121.4531" rx="2.5" ry="2.5" style="stroke:#181818;stroke-width:0.5;" width="264.9639" x="331.36" y="78.51"/><ellipse cx="396.8688" cy="98.6428" fill="#C2C2C2" rx="11" ry="11" style="stroke:#181818;stroke-width:1;"/><path d="M399.8375,104.2834 Q399.2594,104.5803 398.6188,104.7209 Q397.9782,104.8772 397.275,104.8772 Q394.775,104.8772 393.4469,103.2366 Q392.1344,101.5803 392.1344,98.4553 Q392.1344,95.3303 393.4469,93.6741 Q394.775,92.0178 397.275,92.0178 Q397.9782,92.0178 398.6188,92.1741 Q399.275,92.3303 399.8375,92.6272 L399.8375,95.3459 Q399.2125,94.7678 398.6188,94.5022 Q398.025,94.2209 397.4,94.2209 Q396.0563,94.2209 395.3688,95.2991 Q394.6813,96.3616 394.6813,98.4553 Q394.6813,100.5491 395.3688,101.6272 Q396.0563,102.6897 397.4,102.6897 Q398.025,102.6897 398.6188,102.4241 Q399.2125,102.1428 399.8375,101.5647 L399.8375,104.2834 Z " fill="#000000"/><text fill="#000000" font-family="sans-serif" font-size="12" font-style="italic" lengthAdjust="spacing" textLength="56.543" x="451.8204" y="94.6487">&#171;control&#187;</text><text fill="#000000" font-family="sans-serif" font-size="14" lengthAdjust="spacing" textLength="125.4463" x="417.3688" y="110.4739">LichHenController</text><line style="stroke:#181818;stroke-width:0.5;" x1="332.36" x2="595.3239" y1="118.7756" y2="118.7756"/><line style="stroke:#181818;stroke-width:0.5;" x1="332.36" x2="595.3239" y1="126.7756" y2="126.7756"/><text fill="#000000" font-family="sans-serif" font-size="14" lengthAdjust="spacing" textLength="219.8779" x="337.36" y="143.7707">+kiemTraKhungGio(date, time)</text><text fill="#000000" font-family="sans-serif" font-size="14" lengthAdjust="spacing" textLength="101.5615" x="337.36" y="160.0676">+taoLichHen()</text><text fill="#000000" font-family="sans-serif" font-size="14" lengthAdjust="spacing" textLength="252.9639" x="337.36" y="176.3645">+taoHoacCapNhatKhachHangCRM()</text><text fill="#000000" font-family="sans-serif" font-size="14" lengthAdjust="spacing" textLength="196.5947" x="337.36" y="192.6614">+taoThongBaoLichHenMoi()</text></g><!--class APPOINTMENTS--><g class="entity" data-qualified-name="APPOINTMENTS" data-source-line="20" id="ent0003"><rect fill="#F1F1F1" height="154.0469" rx="2.5" ry="2.5" style="stroke:#181818;stroke-width:0.5;" width="249.4326" x="1071.12" y="62.21"/><ellipse cx="1136.851" cy="82.3428" fill="#C2C2C2" rx="11" ry="11" style="stroke:#181818;stroke-width:1;"/><path d="M1139.8197,87.9834 Q1139.2416,88.2803 1138.601,88.4209 Q1137.9603,88.5772 1137.2572,88.5772 Q1134.7572,88.5772 1133.4291,86.9366 Q1132.1166,85.2803 1132.1166,82.1553 Q1132.1166,79.0303 1133.4291,77.3741 Q1134.7572,75.7178 1137.2572,75.7178 Q1137.9603,75.7178 1138.601,75.8741 Q1139.2572,76.0303 1139.8197,76.3272 L1139.8197,79.0459 Q1139.1947,78.4678 1138.601,78.2022 Q1138.0072,77.9209 1137.3822,77.9209 Q1136.0385,77.9209 1135.351,78.9991 Q1134.6635,80.0616 1134.6635,82.1553 Q1134.6635,84.2491 1135.351,85.3272 Q1136.0385,86.3897 1137.3822,86.3897 Q1138.0072,86.3897 1138.601,86.1241 Q1139.1947,85.8428 1139.8197,85.2647 L1139.8197,87.9834 Z " fill="#000000"/><text fill="#000000" font-family="sans-serif" font-size="12" font-style="italic" lengthAdjust="spacing" textLength="49.5176" x="1187.3275" y="78.3487">&#171;entity&#187;</text><text fill="#000000" font-family="sans-serif" font-size="14" lengthAdjust="spacing" textLength="109.4707" x="1157.351" y="94.1739">APPOINTMENTS</text><line style="stroke:#181818;stroke-width:0.5;" x1="1072.12" x2="1319.5526" y1="102.4756" y2="102.4756"/><text fill="#000000" font-family="sans-serif" font-size="14" lengthAdjust="spacing" textLength="228.1631" x="1077.12" y="119.4707">-appointment_date : TIMESTAMP</text><text fill="#000000" font-family="sans-serif" font-size="14" lengthAdjust="spacing" textLength="103.332" x="1077.12" y="135.7676">-status : ENUM</text><line style="stroke:#181818;stroke-width:0.5;" x1="1072.12" x2="1319.5526" y1="143.0694" y2="143.0694"/><text fill="#000000" font-family="sans-serif" font-size="14" lengthAdjust="spacing" textLength="128.6729" x="1077.12" y="160.0645">-id : VARCHAR(36)</text><text fill="#000000" font-family="sans-serif" font-size="14" lengthAdjust="spacing" textLength="157.7051" x="1077.12" y="176.3614">-car_id : VARCHAR(36)</text><text fill="#000000" font-family="sans-serif" font-size="14" lengthAdjust="spacing" textLength="237.4326" x="1077.12" y="192.6582">-customer_name : VARCHAR(255)</text><text fill="#000000" font-family="sans-serif" font-size="14" lengthAdjust="spacing" textLength="232.6338" x="1077.12" y="208.9551">-customer_phone : VARCHAR(50)</text></g><!--class CUSTOMERS--><g class="entity" data-qualified-name="CUSTOMERS" data-source-line="29" id="ent0004"><rect fill="#F1F1F1" height="121.4531" rx="2.5" ry="2.5" style="stroke:#181818;stroke-width:0.5;" width="205.0879" x="831.29" y="78.51"/><ellipse cx="885.5742" cy="98.6428" fill="#C2C2C2" rx="11" ry="11" style="stroke:#181818;stroke-width:1;"/><path d="M888.5429,104.2834 Q887.9648,104.5803 887.3242,104.7209 Q886.6836,104.8772 885.9804,104.8772 Q883.4804,104.8772 882.1523,103.2366 Q880.8398,101.5803 880.8398,98.4553 Q880.8398,95.3303 882.1523,93.6741 Q883.4804,92.0178 885.9804,92.0178 Q886.6836,92.0178 887.3242,92.1741 Q887.9804,92.3303 888.5429,92.6272 L888.5429,95.3459 Q887.9179,94.7678 887.3242,94.5022 Q886.7304,94.2209 886.1054,94.2209 Q884.7617,94.2209 884.0742,95.2991 Q883.3867,96.3616 883.3867,98.4553 Q883.3867,100.5491 884.0742,101.6272 Q884.7617,102.6897 886.1054,102.6897 Q886.7304,102.6897 887.3242,102.4241 Q887.9179,102.1428 888.5429,101.5647 L888.5429,104.2834 Z " fill="#000000"/><text fill="#000000" font-family="sans-serif" font-size="12" font-style="italic" lengthAdjust="spacing" textLength="49.5176" x="925.3252" y="94.6487">&#171;entity&#187;</text><text fill="#000000" font-family="sans-serif" font-size="14" lengthAdjust="spacing" textLength="88.0195" x="906.0742" y="110.4739">CUSTOMERS</text><line style="stroke:#181818;stroke-width:0.5;" x1="832.29" x2="1035.3779" y1="118.7756" y2="118.7756"/><text fill="#000000" font-family="sans-serif" font-size="14" lengthAdjust="spacing" textLength="99.1758" x="837.29" y="135.7707">-stage : ENUM</text><line style="stroke:#181818;stroke-width:0.5;" x1="832.29" x2="1035.3779" y1="143.0725" y2="143.0725"/><text fill="#000000" font-family="sans-serif" font-size="14" lengthAdjust="spacing" textLength="128.6729" x="837.29" y="160.0676">-id : VARCHAR(36)</text><text fill="#000000" font-family="sans-serif" font-size="14" lengthAdjust="spacing" textLength="193.0879" x="837.29" y="176.3645">-full_name : VARCHAR(255)</text><text fill="#000000" font-family="sans-serif" font-size="14" lengthAdjust="spacing" textLength="159.708" x="837.29" y="192.6614">-phone : VARCHAR(50)</text></g><!--class NOTIFICATIONS--><g class="entity" data-qualified-name="NOTIFICATIONS" data-source-line="36" id="ent0005"><rect fill="#F1F1F1" height="105.1563" rx="2.5" ry="2.5" style="stroke:#181818;stroke-width:0.5;" width="164.1748" x="631.75" y="86.66"/><ellipse cx="657.2837" cy="106.7928" fill="#C2C2C2" rx="11" ry="11" style="stroke:#181818;stroke-width:1;"/><path d="M660.2524,112.4334 Q659.6743,112.7303 659.0337,112.8709 Q658.3931,113.0272 657.6899,113.0272 Q655.1899,113.0272 653.8618,111.3866 Q652.5493,109.7303 652.5493,106.6053 Q652.5493,103.4803 653.8618,101.8241 Q655.1899,100.1678 657.6899,100.1678 Q658.3931,100.1678 659.0337,100.3241 Q659.6899,100.4803 660.2524,100.7772 L660.2524,103.4959 Q659.6274,102.9178 659.0337,102.6522 Q658.4399,102.3709 657.8149,102.3709 Q656.4712,102.3709 655.7837,103.4491 Q655.0962,104.5116 655.0962,106.6053 Q655.0962,108.6991 655.7837,109.7772 Q656.4712,110.8397 657.8149,110.8397 Q658.4399,110.8397 659.0337,110.5741 Q659.6274,110.2928 660.2524,109.7147 L660.2524,112.4334 Z " fill="#000000"/><text fill="#000000" font-family="sans-serif" font-size="12" font-style="italic" lengthAdjust="spacing" textLength="49.5176" x="703.249" y="102.7987">&#171;entity&#187;</text><text fill="#000000" font-family="sans-serif" font-size="14" lengthAdjust="spacing" textLength="108.7666" x="673.6245" y="118.6239">NOTIFICATIONS</text><line style="stroke:#181818;stroke-width:0.5;" x1="632.75" x2="794.9248" y1="126.9256" y2="126.9256"/><text fill="#000000" font-family="sans-serif" font-size="14" lengthAdjust="spacing" textLength="107.8096" x="637.75" y="143.9207">-content : TEXT</text><line style="stroke:#181818;stroke-width:0.5;" x1="632.75" x2="794.9248" y1="151.2225" y2="151.2225"/><text fill="#000000" font-family="sans-serif" font-size="14" lengthAdjust="spacing" textLength="128.6729" x="637.75" y="168.2176">-id : VARCHAR(36)</text><text fill="#000000" font-family="sans-serif" font-size="14" lengthAdjust="spacing" textLength="152.1748" x="637.75" y="184.5145">-title : VARCHAR(255)</text></g><!--link DatLichUI to LichHenController--><g class="link" data-entity-1="ent0001" data-entity-2="ent0002" data-link-type="association" data-source-line="42" id="lnk6"><path codeLine="42" d="M297.17,139.24 C308.46,139.24 319.74,139.24 331.03,139.24" fill="none" id="DatLichUI-LichHenController" style="stroke:#181818;stroke-width:1;"/><text fill="#000000" font-family="sans-serif" font-size="13" lengthAdjust="spacing" textLength="8.271" x="304.8769" y="135.9239">1</text><text fill="#000000" font-family="sans-serif" font-size="13" lengthAdjust="spacing" textLength="8.271" x="315.1284" y="135.8773">1</text></g><!--link LichHenController to APPOINTMENTS--><g class="link" data-entity-1="ent0002" data-entity-2="ent0003" data-link-type="association" data-source-line="43" id="lnk7"><path codeLine="43" d="M539.4,78.1 C566.72,59.61 598.88,41.7 631.34,32.21 C717.73,6.97 950.24,6 1036.34,32.21 C1058.19,38.87 1079.77,49.62 1099.65,61.81" fill="none" id="LichHenController-APPOINTMENTS" style="stroke:#181818;stroke-width:1;"/><text fill="#000000" font-family="sans-serif" font-size="13" lengthAdjust="spacing" textLength="8.271" x="539.6896" y="67.2385">1</text><text fill="#000000" font-family="sans-serif" font-size="13" lengthAdjust="spacing" textLength="8.2393" x="1082.4251" y="51.0541">n</text></g><!--link LichHenController to CUSTOMERS--><g class="link" data-entity-1="ent0002" data-entity-2="ent0004" data-link-type="association" data-source-line="44" id="lnk8"><path codeLine="44" d="M539.4,78.1 C566.72,59.61 598.88,41.7 631.34,32.21 C701.73,11.65 726.98,8.4 796.34,32.21 C824.38,41.84 851.1,59.78 873.4,78.26" fill="none" id="LichHenController-CUSTOMERS" style="stroke:#181818;stroke-width:1;"/><text fill="#000000" font-family="sans-serif" font-size="13" lengthAdjust="spacing" textLength="8.271" x="548.6146" y="67.2385">1</text><text fill="#000000" font-family="sans-serif" font-size="13" lengthAdjust="spacing" textLength="8.2393" x="857.9637" y="67.417">n</text></g><!--link LichHenController to NOTIFICATIONS--><g class="link" data-entity-1="ent0002" data-entity-2="ent0005" data-link-type="association" data-source-line="45" id="lnk9"><path codeLine="45" d="M596.65,139.24 C608.25,139.24 619.84,139.24 631.44,139.24" fill="none" id="LichHenController-NOTIFICATIONS" style="stroke:#181818;stroke-width:1;"/><text fill="#000000" font-family="sans-serif" font-size="13" lengthAdjust="spacing" textLength="8.271" x="604.1391" y="135.9006">1</text><text fill="#000000" font-family="sans-serif" font-size="13" lengthAdjust="spacing" textLength="8.2393" x="615.4863" y="135.6218">n</text></g><?plantuml-src ZPBVQzim4CVV_LU8FALiWQuZUnYbu7bkOrex8L5AtyBLKIqHMpBIYTAD_UyxEtP-aBJqnKRt-Pxkgxjp6wLhi52nocYJIsigmT1w4RWTSHBMvbNfWhr0wGv9Ne9p8Q9Lpnv5aXkzK7y4kmo2bh3VW0ygbyk4NLy_6w_NODzkRjZVWB4lkJJwIJn2HFzEDxneW5H2SwbkZQsEubf2pKbSSAMtQLa1RtVARF66X9d7Ew_EtTOc_WBJCIv1ouX29FhNkst0H6WAepLbAIovphU7tlH6YOfRk9TU5qtbDQ3uob1LeYs6OBfBXlrvOY2FeCuauBq4Og2BQ9xkU6-ioqkDEhGKpcRJ9EDfdF45kH4Q5VOT7Aar-yaUmtaq2UV3xp-Q6qSvsDNPk7T8exKh3JJWFRuQZuzvJNuE1UFBbaDT6wMn8WUhvj6au4aQBtYOpXhk4D0xYiRPCjtxZvOBFatZ-UVCl_YoVC_WExweRY5EocPJdjmcKSYJQVQvqiJBitsX-LDsyzpuYJSLzZiz-3PWe_PxiZd1wIvrQZqu6kg7mbttFbGTFVO_?></g></svg>