<svg xmlns="http://www.w3.org/2000/svg" xmlns:xlink="http://www.w3.org/1999/xlink" contentStyleType="text/css" data-diagram-type="CLASS" height="143px" preserveAspectRatio="none" style="width:768px;height:143px;background:#FFFFFF;" version="1.1" viewBox="0 0 768 143" width="768px" zoomAndPan="magnify"><?plantuml 1.2026.5?><defs/><g><!--class TinhTraGopUI--><g class="entity" data-qualified-name="TinhTraGopUI" data-source-line="5" id="ent0001"><rect fill="#F1F1F1" height="121.4531" rx="2.5" ry="2.5" style="stroke:#181818;stroke-width:0.5;" width="204.4453" x="7" y="7"/><ellipse cx="57.0972" cy="27.1328" fill="#C2C2C2" rx="11" ry="11" style="stroke:#181818;stroke-width:1;"/><path d="M60.0659,32.7734 Q59.4878,33.0703 58.8472,33.2109 Q58.2065,33.3672 57.5034,33.3672 Q55.0034,33.3672 53.6753,31.7266 Q52.3628,30.0703 52.3628,26.9453 Q52.3628,23.8203 53.6753,22.1641 Q55.0034,20.5078 57.5034,20.5078 Q58.2065,20.5078 58.8472,20.6641 Q59.5034,20.8203 60.0659,21.1172 L60.0659,23.8359 Q59.4409,23.2578 58.8472,22.9922 Q58.2534,22.7109 57.6284,22.7109 Q56.2847,22.7109 55.5972,23.7891 Q54.9097,24.8516 54.9097,26.9453 Q54.9097,29.0391 55.5972,30.1172 Q56.2847,31.1797 57.6284,31.1797 Q58.2534,31.1797 58.8472,30.9141 Q59.4409,30.6328 60.0659,30.0547 L60.0659,32.7734 Z " fill="#000000"/><text fill="#000000" font-family="sans-serif" font-size="12" font-style="italic" lengthAdjust="spacing" textLength="71.8594" x="89.543" y="23.1387">&#171;boundary&#187;</text><text fill="#000000" font-family="sans-serif" font-size="14" lengthAdjust="spacing" textLength="95.751" x="77.5972" y="38.9639">TinhTraGopUI</text><line style="stroke:#181818;stroke-width:0.5;" x1="8" x2="210.4453" y1="47.2656" y2="47.2656"/><line style="stroke:#181818;stroke-width:0.5;" x1="8" x2="210.4453" y1="55.2656" y2="55.2656"/><text fill="#000000" font-family="sans-serif" font-size="14" lengthAdjust="spacing" textLength="160.583" x="13" y="72.2607">+chonXeCanTinhGop()</text><text fill="#000000" font-family="sans-serif" font-size="14" lengthAdjust="spacing" textLength="119.0684" x="13" y="88.5576">+nhapThongSo()</text><text fill="#000000" font-family="sans-serif" font-size="14" lengthAdjust="spacing" textLength="118.6924" x="13" y="104.8545">+clickTinhToan()</text><text fill="#000000" font-family="sans-serif" font-size="14" lengthAdjust="spacing" textLength="192.4453" x="13" y="121.1514">+hienThiBangTinhLaiSuat()</text></g><!--class LoanController--><g class="entity" data-qualified-name="LoanController" data-source-line="12" id="ent0002"><rect fill="#F1F1F1" height="105.1563" rx="2.5" ry="2.5" style="stroke:#181818;stroke-width:0.5;" width="331.0537" x="246.7" y="15.15"/><ellipse cx="356.4817" cy="35.2828" fill="#C2C2C2" rx="11" ry="11" style="stroke:#181818;stroke-width:1;"/><path d="M359.4505,40.9234 Q358.8724,41.2203 358.2317,41.3609 Q357.5911,41.5172 356.888,41.5172 Q354.388,41.5172 353.0599,39.8766 Q351.7474,38.2203 351.7474,35.0953 Q351.7474,31.9703 353.0599,30.3141 Q354.388,28.6578 356.888,28.6578 Q357.5911,28.6578 358.2317,28.8141 Q358.888,28.9703 359.4505,29.2672 L359.4505,31.9859 Q358.8255,31.4078 358.2317,31.1422 Q357.638,30.8609 357.013,30.8609 Q355.6692,30.8609 354.9817,31.9391 Q354.2942,33.0016 354.2942,35.0953 Q354.2942,37.1891 354.9817,38.2672 Q355.6692,39.3297 357.013,39.3297 Q357.638,39.3297 358.2317,39.0641 Q358.8255,38.7828 359.4505,38.2047 L359.4505,40.9234 Z " fill="#000000"/><text fill="#000000" font-family="sans-serif" font-size="12" font-style="italic" lengthAdjust="spacing" textLength="56.543" x="400.2054" y="31.2887">&#171;control&#187;</text><text fill="#000000" font-family="sans-serif" font-size="14" lengthAdjust="spacing" textLength="102.9902" x="376.9817" y="47.1139">LoanController</text><line style="stroke:#181818;stroke-width:0.5;" x1="247.7" x2="576.7537" y1="55.4156" y2="55.4156"/><line style="stroke:#181818;stroke-width:0.5;" x1="247.7" x2="576.7537" y1="63.4156" y2="63.4156"/><text fill="#000000" font-family="sans-serif" font-size="14" lengthAdjust="spacing" textLength="119.9775" x="252.7" y="80.4107">+layGiaXe(carId)</text><text fill="#000000" font-family="sans-serif" font-size="14" lengthAdjust="spacing" textLength="319.0537" x="252.7" y="96.7076">+tinhTraGop(giaXe, traTruoc, laiSuat, kyHan)</text><text fill="#000000" font-family="sans-serif" font-size="14" lengthAdjust="spacing" textLength="183.5381" x="252.7" y="113.0045">-tinhLaiSuatVaLichTraNo()</text></g><!--class CARS--><g class="entity" data-qualified-name="CARS" data-source-line="18" id="ent0003"><rect fill="#F1F1F1" height="88.8594" rx="2.5" ry="2.5" style="stroke:#181818;stroke-width:0.5;" width="140.6729" x="612.89" y="23.29"/><ellipse cx="656.3099" cy="43.4228" fill="#C2C2C2" rx="11" ry="11" style="stroke:#181818;stroke-width:1;"/><path d="M659.2786,49.0634 Q658.7005,49.3603 658.0599,49.5009 Q657.4192,49.6572 656.7161,49.6572 Q654.2161,49.6572 652.888,48.0166 Q651.5755,46.3603 651.5755,43.2353 Q651.5755,40.1103 652.888,38.4541 Q654.2161,36.7978 656.7161,36.7978 Q657.4192,36.7978 658.0599,36.9541 Q658.7161,37.1103 659.2786,37.4072 L659.2786,40.1259 Q658.6536,39.5478 658.0599,39.2822 Q657.4661,39.0009 656.8411,39.0009 Q655.4974,39.0009 654.8099,40.0791 Q654.1224,41.1416 654.1224,43.2353 Q654.1224,45.3291 654.8099,46.4072 Q655.4974,47.4697 656.8411,47.4697 Q657.4661,47.4697 658.0599,47.2041 Q658.6536,46.9228 659.2786,46.3447 L659.2786,49.0634 Z " fill="#000000"/><text fill="#000000" font-family="sans-serif" font-size="12" font-style="italic" lengthAdjust="spacing" textLength="49.5176" x="674.6254" y="39.4287">&#171;entity&#187;</text><text fill="#000000" font-family="sans-serif" font-size="14" lengthAdjust="spacing" textLength="37.9668" x="680.4008" y="55.2539">CARS</text><line style="stroke:#181818;stroke-width:0.5;" x1="613.89" x2="752.5629" y1="63.5556" y2="63.5556"/><text fill="#000000" font-family="sans-serif" font-size="14" lengthAdjust="spacing" textLength="101.2471" x="618.89" y="80.5507">-price : BIGINT</text><line style="stroke:#181818;stroke-width:0.5;" x1="613.89" x2="752.5629" y1="87.8525" y2="87.8525"/><text fill="#000000" font-family="sans-serif" font-size="14" lengthAdjust="spacing" textLength="128.6729" x="618.89" y="104.8476">-id : VARCHAR(36)</text></g><!--link TinhTraGopUI to LoanController--><g class="link" data-entity-1="ent0001" data-entity-2="ent0002" data-link-type="association" data-source-line="23" id="lnk4"><path codeLine="23" d="M211.9,67.72 C223.38,67.72 234.85,67.72 246.33,67.72" fill="none" id="TinhTraGopUI-LoanController" style="stroke:#181818;stroke-width:1;"/><text fill="#000000" font-family="sans-serif" font-size="13" lengthAdjust="spacing" textLength="8.271" x="219.4103" y="64.2638">1</text><text fill="#000000" font-family="sans-serif" font-size="13" lengthAdjust="spacing" textLength="8.271" x="230.6377" y="64.4497">1</text></g><!--link LoanController to CARS--><g class="link" data-entity-1="ent0002" data-entity-2="ent0003" data-link-type="association" data-source-line="24" id="lnk5"><path codeLine="24" d="M578.16,67.72 C589.65,67.72 601.14,67.72 612.63,67.72" fill="none" id="LoanController-CARS" style="stroke:#181818;stroke-width:1;"/><text fill="#000000" font-family="sans-serif" font-size="13" lengthAdjust="spacing" textLength="8.271" x="585.8662" y="64.4497">1</text><text fill="#000000" font-family="sans-serif" font-size="13" lengthAdjust="spacing" textLength="8.2393" x="596.4841" y="63.9739">n</text></g><?plantuml-src NP11Qy9048Nl-HM3fvGgj1HwA2B473GW7amgNiVDDZkupeJDXc9B_titIRNgPM7Vz_QzcMqEn3KwFC9HM9HnSjJWNQkZva8QWwLy4bVmWRQv9ifYqoJUEzgtNcTAEASl3KzHr1CeY4tXS27rUmRJwLvQBj6TPZFuZW0UbH7UwHIvymLJ_D2fRB0k0gbo6GHbIHtwA44U94EQ2qDpvAe3AwIyHH_Opxbw5Rofi7TYhNQXN0sNSxV5qu9mfsE5BYlxK7-PDguwD0uVWOLhHOt13WrZE9oMo9rzul-BjxWYrRrTo_KCQRB9GxDcJ_wyz8HAU8DjiacNoIP-UUsZQaTA1tcUBR9rqGNS_DpeUGIJ_hpTAhfRyi_7exxv5m00?></g></svg>