<svg xmlns="http://www.w3.org/2000/svg" xmlns:xlink="http://www.w3.org/1999/xlink" contentStyleType="text/css" data-diagram-type="CLASS" height="212px" preserveAspectRatio="none" style="width:1262px;height:212px;background:#FFFFFF;" version="1.1" viewBox="0 0 1262 212" width="1262px" zoomAndPan="magnify"><?plantuml 1.2026.5?><defs/><g><!--class LienHeUI--><g class="entity" data-qualified-name="LienHeUI" data-source-line="5" id="ent0001"><rect fill="#F1F1F1" height="137.75" rx="2.5" ry="2.5" style="stroke:#181818;stroke-width:0.5;" width="260.1787" x="7" y="60.14"/><ellipse cx="98.9097" cy="80.2728" fill="#C2C2C2" rx="11" ry="11" style="stroke:#181818;stroke-width:1;"/><path d="M101.8784,85.9134 Q101.3003,86.2103 100.6597,86.3509 Q100.019,86.5072 99.3159,86.5072 Q96.8159,86.5072 95.4878,84.8666 Q94.1753,83.2103 94.1753,80.0853 Q94.1753,76.9603 95.4878,75.3041 Q96.8159,73.6478 99.3159,73.6478 Q100.019,73.6478 100.6597,73.8041 Q101.3159,73.9603 101.8784,74.2572 L101.8784,76.9759 Q101.2534,76.3978 100.6597,76.1322 Q100.0659,75.8509 99.4409,75.8509 Q98.0972,75.8509 97.4097,76.9291 Q96.7222,77.9916 96.7222,80.0853 Q96.7222,82.1791 97.4097,83.2572 Q98.0972,84.3197 99.4409,84.3197 Q100.0659,84.3197 100.6597,84.0541 Q101.2534,83.7728 101.8784,83.1947 L101.8784,85.9134 Z " fill="#000000"/><text fill="#000000" font-family="sans-serif" font-size="12" font-style="italic" lengthAdjust="spacing" textLength="71.8594" x="117.4097" y="76.2787">&#171;boundary&#187;</text><text fill="#000000" font-family="sans-serif" font-size="14" lengthAdjust="spacing" textLength="62.6924" x="121.9932" y="92.1039">LienHeUI</text><line style="stroke:#181818;stroke-width:0.5;" x1="8" x2="266.1787" y1="100.4056" y2="100.4056"/><line style="stroke:#181818;stroke-width:0.5;" x1="8" x2="266.1787" y1="108.4056" y2="108.4056"/><text fill="#000000" font-family="sans-serif" font-size="14" lengthAdjust="spacing" textLength="143.418" x="13" y="125.4007">+chonMenuLienHe()</text><text fill="#000000" font-family="sans-serif" font-size="14" lengthAdjust="spacing" textLength="158.5459" x="13" y="141.6976">+hienThiFormLienHe()</text><text fill="#000000" font-family="sans-serif" font-size="14" lengthAdjust="spacing" textLength="171.2471" x="13" y="157.9945">+nhapThongTinLienHe()</text><text fill="#000000" font-family="sans-serif" font-size="14" lengthAdjust="spacing" textLength="99.668" x="13" y="174.2914">+kichNutGui()</text><text fill="#000000" font-family="sans-serif" font-size="14" lengthAdjust="spacing" textLength="248.1787" x="13" y="190.5882">+hienThiThongBaoGuiThanhCong()</text></g><!--class LienHeController--><g class="entity" data-qualified-name="LienHeController" data-source-line="13" id="ent0002"><rect fill="#F1F1F1" height="137.75" rx="2.5" ry="2.5" style="stroke:#181818;stroke-width:0.5;" width="233.3818" x="302.4" y="60.14"/><ellipse cx="356.0963" cy="80.2728" fill="#C2C2C2" rx="11" ry="11" style="stroke:#181818;stroke-width:1;"/><path d="M359.065,85.9134 Q358.4869,86.2103 357.8463,86.3509 Q357.2057,86.5072 356.5025,86.5072 Q354.0025,86.5072 352.6744,84.8666 Q351.3619,83.2103 351.3619,80.0853 Q351.3619,76.9603 352.6744,75.3041 Q354.0025,73.6478 356.5025,73.6478 Q357.2057,73.6478 357.8463,73.8041 Q358.5025,73.9603 359.065,74.2572 L359.065,76.9759 Q358.44,76.3978 357.8463,76.1322 Q357.2525,75.8509 356.6275,75.8509 Q355.2838,75.8509 354.5963,76.9291 Q353.9088,77.9916 353.9088,80.0853 Q353.9088,82.1791 354.5963,83.2572 Q355.2838,84.3197 356.6275,84.3197 Q357.2525,84.3197 357.8463,84.0541 Q358.44,83.7728 359.065,83.1947 L359.065,85.9134 Z " fill="#000000"/><text fill="#000000" font-family="sans-serif" font-size="12" font-style="italic" lengthAdjust="spacing" textLength="56.543" x="407.0694" y="76.2787">&#171;control&#187;</text><text fill="#000000" font-family="sans-serif" font-size="14" lengthAdjust="spacing" textLength="117.4893" x="376.5963" y="92.1039">LienHeController</text><line style="stroke:#181818;stroke-width:0.5;" x1="303.4" x2="534.7818" y1="100.4056" y2="100.4056"/><line style="stroke:#181818;stroke-width:0.5;" x1="303.4" x2="534.7818" y1="108.4056" y2="108.4056"/><text fill="#000000" font-family="sans-serif" font-size="14" lengthAdjust="spacing" textLength="145.8857" x="308.4" y="125.4007">+guiYeuCauLienHe()</text><text fill="#000000" font-family="sans-serif" font-size="14" lengthAdjust="spacing" textLength="145.8721" x="308.4" y="141.6976">+luuYeuCauLienHe()</text><text fill="#000000" font-family="sans-serif" font-size="14" lengthAdjust="spacing" textLength="221.3818" x="308.4" y="157.9945">+taoHoacCapNhatKhachHang()</text><text fill="#000000" font-family="sans-serif" font-size="14" lengthAdjust="spacing" textLength="187.8652" x="308.4" y="174.2914">+taoThongBaoChoAdmin()</text><text fill="#000000" font-family="sans-serif" font-size="14" lengthAdjust="spacing" textLength="145.8105" x="308.4" y="190.5882">+guiEmailXacNhan()</text></g><!--class CONTACT_REQUESTS--><g class="entity" data-qualified-name="CONTACT_REQUESTS" data-source-line="21" id="ent0003"><rect fill="#F1F1F1" height="137.75" rx="2.5" ry="2.5" style="stroke:#181818;stroke-width:0.5;" width="261.1563" x="986.51" y="60.14"/><ellipse cx="1037.9709" cy="80.2728" fill="#C2C2C2" rx="11" ry="11" style="stroke:#181818;stroke-width:1;"/><path d="M1040.9397,85.9134 Q1040.3616,86.2103 1039.7209,86.3509 Q1039.0803,86.5072 1038.3772,86.5072 Q1035.8772,86.5072 1034.5491,84.8666 Q1033.2366,83.2103 1033.2366,80.0853 Q1033.2366,76.9603 1034.5491,75.3041 Q1035.8772,73.6478 1038.3772,73.6478 Q1039.0803,73.6478 1039.7209,73.8041 Q1040.3772,73.9603 1040.9397,74.2572 L1040.9397,76.9759 Q1040.3147,76.3978 1039.7209,76.1322 Q1039.1272,75.8509 1038.5022,75.8509 Q1037.1584,75.8509 1036.4709,76.9291 Q1035.7834,77.9916 1035.7834,80.0853 Q1035.7834,82.1791 1036.4709,83.2572 Q1037.1584,84.3197 1038.5022,84.3197 Q1039.1272,84.3197 1039.7209,84.0541 Q1040.3147,83.7728 1040.9397,83.1947 L1040.9397,85.9134 Z " fill="#000000"/><text fill="#000000" font-family="sans-serif" font-size="12" font-style="italic" lengthAdjust="spacing" textLength="49.5176" x="1108.5793" y="76.2787">&#171;entity&#187;</text><text fill="#000000" font-family="sans-serif" font-size="14" lengthAdjust="spacing" textLength="149.7344" x="1058.4709" y="92.1039">CONTACT_REQUESTS</text><line style="stroke:#181818;stroke-width:0.5;" x1="987.51" x2="1246.6663" y1="100.4056" y2="100.4056"/><text fill="#000000" font-family="sans-serif" font-size="14" lengthAdjust="spacing" textLength="99.1758" x="992.51" y="117.4007">-stage : ENUM</text><line style="stroke:#181818;stroke-width:0.5;" x1="987.51" x2="1246.6663" y1="124.7025" y2="124.7025"/><text fill="#000000" font-family="sans-serif" font-size="14" lengthAdjust="spacing" textLength="128.6729" x="992.51" y="141.6976">-id : VARCHAR(36)</text><text fill="#000000" font-family="sans-serif" font-size="14" lengthAdjust="spacing" textLength="193.0879" x="992.51" y="157.9945">-full_name : VARCHAR(255)</text><text fill="#000000" font-family="sans-serif" font-size="14" lengthAdjust="spacing" textLength="159.708" x="992.51" y="174.2914">-phone : VARCHAR(50)</text><text fill="#000000" font-family="sans-serif" font-size="14" lengthAdjust="spacing" textLength="249.1563" x="992.51" y="190.5882">-consultation_type : VARCHAR(100)</text></g><!--class CUSTOMERS--><g class="entity" data-qualified-name="CUSTOMERS" data-source-line="29" id="ent0004"><rect fill="#F1F1F1" height="121.4531" rx="2.5" ry="2.5" style="stroke:#181818;stroke-width:0.5;" width="205.0879" x="746.55" y="68.29"/><ellipse cx="800.8342" cy="88.4228" fill="#C2C2C2" rx="11" ry="11" style="stroke:#181818;stroke-width:1;"/><path d="M803.8029,94.0634 Q803.2248,94.3603 802.5842,94.5009 Q801.9436,94.6572 801.2404,94.6572 Q798.7404,94.6572 797.4123,93.0166 Q796.0998,91.3603 796.0998,88.2353 Q796.0998,85.1103 797.4123,83.4541 Q798.7404,81.7978 801.2404,81.7978 Q801.9436,81.7978 802.5842,81.9541 Q803.2404,82.1103 803.8029,82.4072 L803.8029,85.1259 Q803.1779,84.5478 802.5842,84.2822 Q801.9904,84.0009 801.3654,84.0009 Q800.0217,84.0009 799.3342,85.0791 Q798.6467,86.1416 798.6467,88.2353 Q798.6467,90.3291 799.3342,91.4072 Q800.0217,92.4697 801.3654,92.4697 Q801.9904,92.4697 802.5842,92.2041 Q803.1779,91.9228 803.8029,91.3447 L803.8029,94.0634 Z " fill="#000000"/><text fill="#000000" font-family="sans-serif" font-size="12" font-style="italic" lengthAdjust="spacing" textLength="49.5176" x="840.5852" y="84.4287">&#171;entity&#187;</text><text fill="#000000" font-family="sans-serif" font-size="14" lengthAdjust="spacing" textLength="88.0195" x="821.3342" y="100.2539">CUSTOMERS</text><line style="stroke:#181818;stroke-width:0.5;" x1="747.55" x2="950.6379" y1="108.5556" y2="108.5556"/><line style="stroke:#181818;stroke-width:0.5;" x1="747.55" x2="950.6379" y1="116.5556" y2="116.5556"/><text fill="#000000" font-family="sans-serif" font-size="14" lengthAdjust="spacing" textLength="128.6729" x="752.55" y="133.5507">-id : VARCHAR(36)</text><text fill="#000000" font-family="sans-serif" font-size="14" lengthAdjust="spacing" textLength="193.0879" x="752.55" y="149.8476">-full_name : VARCHAR(255)</text><text fill="#000000" font-family="sans-serif" font-size="14" lengthAdjust="spacing" textLength="159.708" x="752.55" y="166.1445">-phone : VARCHAR(50)</text><text fill="#000000" font-family="sans-serif" font-size="14" lengthAdjust="spacing" textLength="163.4131" x="752.55" y="182.4414">-email : VARCHAR(255)</text></g><!--class NOTIFICATIONS--><g class="entity" data-qualified-name="NOTIFICATIONS" data-source-line="36" id="ent0005"><rect fill="#F1F1F1" height="88.8594" rx="2.5" ry="2.5" style="stroke:#181818;stroke-width:0.5;" width="140.7666" x="570.71" y="84.59"/><ellipse cx="585.71" cy="104.7228" fill="#C2C2C2" rx="11" ry="11" style="stroke:#181818;stroke-width:1;"/><path d="M588.6788,110.3634 Q588.1006,110.6603 587.46,110.8009 Q586.8194,110.9572 586.1163,110.9572 Q583.6163,110.9572 582.2881,109.3166 Q580.9756,107.6603 580.9756,104.5353 Q580.9756,101.4103 582.2881,99.7541 Q583.6163,98.0978 586.1163,98.0978 Q586.8194,98.0978 587.46,98.2541 Q588.1163,98.4103 588.6788,98.7072 L588.6788,101.4259 Q588.0538,100.8478 587.46,100.5822 Q586.8663,100.3009 586.2413,100.3009 Q584.8975,100.3009 584.21,101.3791 Q583.5225,102.4416 583.5225,104.5353 Q583.5225,106.6291 584.21,107.7072 Q584.8975,108.7697 586.2413,108.7697 Q586.8663,108.7697 587.46,108.5041 Q588.0538,108.2228 588.6788,107.6447 L588.6788,110.3634 Z " fill="#000000"/><text fill="#000000" font-family="sans-serif" font-size="12" font-style="italic" lengthAdjust="spacing" textLength="49.5176" x="629.3345" y="100.7287">&#171;entity&#187;</text><text fill="#000000" font-family="sans-serif" font-size="14" lengthAdjust="spacing" textLength="108.7666" x="599.71" y="116.5539">NOTIFICATIONS</text><line style="stroke:#181818;stroke-width:0.5;" x1="571.71" x2="710.4766" y1="124.8556" y2="124.8556"/><text fill="#000000" font-family="sans-serif" font-size="14" lengthAdjust="spacing" textLength="107.8096" x="576.71" y="141.8507">-content : TEXT</text><line style="stroke:#181818;stroke-width:0.5;" x1="571.71" x2="710.4766" y1="149.1525" y2="149.1525"/><text fill="#000000" font-family="sans-serif" font-size="14" lengthAdjust="spacing" textLength="128.6729" x="576.71" y="166.1476">-id : VARCHAR(36)</text></g><!--link LienHeUI to LienHeController--><g class="link" data-entity-1="ent0001" data-entity-2="ent0002" data-link-type="association" data-source-line="41" id="lnk6"><path codeLine="41" d="M267.62,129.02 C279.06,129.02 290.5,129.02 301.94,129.02" fill="none" id="LienHeUI-LienHeController" style="stroke:#181818;stroke-width:1;"/><text fill="#000000" font-family="sans-serif" font-size="13" lengthAdjust="spacing" textLength="8.271" x="274.9846" y="125.6806">1</text><text fill="#000000" font-family="sans-serif" font-size="13" lengthAdjust="spacing" textLength="8.271" x="286.1874" y="125.611">1</text></g><!--link LienHeController to CONTACT_REQUESTS--><g class="link" data-entity-1="ent0002" data-entity-2="ent0003" data-link-type="association" data-source-line="42" id="lnk7"><path codeLine="42" d="M506.97,59.7 C526.85,47.53 548.61,36.68 570.59,30.14 C651.74,6 869.97,7.62 951.59,30.14 C975.3,36.68 999.04,47.62 1020.84,59.89" fill="none" id="LienHeController-CONTACT_REQUESTS" style="stroke:#181818;stroke-width:1;"/><text fill="#000000" font-family="sans-serif" font-size="13" lengthAdjust="spacing" textLength="8.271" x="507.634" y="48.8522">1</text><text fill="#000000" font-family="sans-serif" font-size="13" lengthAdjust="spacing" textLength="8.2393" x="1002.5142" y="49.0618">n</text></g><!--link LienHeController to CUSTOMERS--><g class="link" data-entity-1="ent0002" data-entity-2="ent0004" data-link-type="association" data-source-line="43" id="lnk8"><path codeLine="43" d="M506.97,59.7 C526.85,47.53 548.61,36.68 570.59,30.14 C630.66,12.27 651.94,10.92 711.59,30.14 C736.5,38.17 760.7,52.56 781.69,67.93" fill="none" id="LienHeController-CUSTOMERS" style="stroke:#181818;stroke-width:1;"/><text fill="#000000" font-family="sans-serif" font-size="13" lengthAdjust="spacing" textLength="8.271" x="516.459" y="48.8522">1</text><text fill="#000000" font-family="sans-serif" font-size="13" lengthAdjust="spacing" textLength="8.2393" x="765.4478" y="57.0743">n</text></g><!--link LienHeController to NOTIFICATIONS--><g class="link" data-entity-1="ent0002" data-entity-2="ent0005" data-link-type="association" data-source-line="44" id="lnk9"><path codeLine="44" d="M536.16,129.02 C547.64,129.02 559.11,129.02 570.59,129.02" fill="none" id="LienHeController-NOTIFICATIONS" style="stroke:#181818;stroke-width:1;"/><text fill="#000000" font-family="sans-serif" font-size="13" lengthAdjust="spacing" textLength="8.271" x="543.9247" y="125.611">1</text><text fill="#000000" font-family="sans-serif" font-size="13" lengthAdjust="spacing" textLength="8.2393" x="554.4543" y="125.2739">n</text></g><?plantuml-src jP9HQy8m58NV-ok2JuuXw8Px629qfSwoMPd6uPxa6gC9fZUbJHXkxBylRQUh2hANlPJcd9ERBpSttqfC8OE491er4vbEE36PvLv-S781A_qkSKFMeFAwmnJakMzC9fVMy8XfdCeFJjgULphaMN8Sybb4UhsbjhY2RDVlaq-Fa6icD8uusYhIl2equVwfa0ET9NKP1QJKnJTKObtVIYPYQnwjFDfUHXz0EvqAG16ufGjy7KCvrMHQAPuvE5OjzcmRAz-u3U08JbbxBXhGGmqiW3GMO9u4C364yhZAtBC4GlkhH69bkFfX0bBDWRbjM8SBnZ7r0xgOX2-pS4gd3ewZaMRVjvPSaNlowa-2eJzftjuLzLfhgzG2mRtShtNJxPPUwWZgUhTTokx6kLK6ZDIuCBkq7kcqgqnkO5FeOJmRrGXdKpeUXPD_G-D5QqxZX-FZCOq6KU3JQ1p_3Q5uN9To1WtdjAXq6Cj6fq5QvVTqABopAVd9OkFiZIvczzsw53gwqpS0?></g></svg>