<svg xmlns="http://www.w3.org/2000/svg" xmlns:xlink="http://www.w3.org/1999/xlink" contentStyleType="text/css" data-diagram-type="CLASS" height="208px" preserveAspectRatio="none" style="width:784px;height:208px;background:#FFFFFF;" version="1.1" viewBox="0 0 784 208" width="784px" zoomAndPan="magnify"><?plantuml 1.2026.5?><defs/><g><!--class ChatUI--><g class="entity" data-qualified-name="ChatUI" data-source-line="5" id="ent0001"><rect fill="#F1F1F1" height="137.75" rx="2.5" ry="2.5" style="stroke:#181818;stroke-width:0.5;" width="188.3193" x="7" y="31.44"/><ellipse cx="62.98" cy="51.5728" fill="#C2C2C2" rx="11" ry="11" style="stroke:#181818;stroke-width:1;"/><path d="M65.9487,57.2134 Q65.3706,57.5103 64.73,57.6509 Q64.0894,57.8072 63.3862,57.8072 Q60.8862,57.8072 59.5581,56.1666 Q58.2456,54.5103 58.2456,51.3853 Q58.2456,48.2603 59.5581,46.6041 Q60.8862,44.9478 63.3862,44.9478 Q64.0894,44.9478 64.73,45.1041 Q65.3862,45.2603 65.9487,45.5572 L65.9487,48.2759 Q65.3237,47.6978 64.73,47.4322 Q64.1362,47.1509 63.5112,47.1509 Q62.1675,47.1509 61.48,48.2291 Q60.7925,49.2916 60.7925,51.3853 Q60.7925,53.4791 61.48,54.5572 Q62.1675,55.6197 63.5112,55.6197 Q64.1362,55.6197 64.73,55.3541 Q65.3237,55.0728 65.9487,54.4947 L65.9487,57.2134 Z " fill="#000000"/><text fill="#000000" font-family="sans-serif" font-size="12" font-style="italic" lengthAdjust="spacing" textLength="71.8594" x="81.48" y="47.5787">&#171;boundary&#187;</text><text fill="#000000" font-family="sans-serif" font-size="14" lengthAdjust="spacing" textLength="47.0928" x="93.8633" y="63.4039">ChatUI</text><line style="stroke:#181818;stroke-width:0.5;" x1="8" x2="194.3193" y1="71.7056" y2="71.7056"/><line style="stroke:#181818;stroke-width:0.5;" x1="8" x2="194.3193" y1="79.7056" y2="79.7056"/><text fill="#000000" font-family="sans-serif" font-size="14" lengthAdjust="spacing" textLength="122.2539" x="13" y="96.7007">+moCuaSoChat()</text><text fill="#000000" font-family="sans-serif" font-size="14" lengthAdjust="spacing" textLength="152.9541" x="13" y="112.9976">+hienThiLichSuChat()</text><text fill="#000000" font-family="sans-serif" font-size="14" lengthAdjust="spacing" textLength="176.3193" x="13" y="129.2945">+nhapNoiDungTinNhan()</text><text fill="#000000" font-family="sans-serif" font-size="14" lengthAdjust="spacing" textLength="157.7803" x="13" y="145.5914">+kichNutGuiTinNhan()</text><text fill="#000000" font-family="sans-serif" font-size="14" lengthAdjust="spacing" textLength="175.6426" x="13" y="161.8882">+capNhatManHinhChat()</text></g><!--class ChatController--><g class="entity" data-qualified-name="ChatController" data-source-line="13" id="ent0002"><rect fill="#F1F1F1" height="88.8594" rx="2.5" ry="2.5" style="stroke:#181818;stroke-width:0.5;" width="272.9688" x="230.68" y="55.89"/><ellipse cx="311.9696" cy="76.0228" fill="#C2C2C2" rx="11" ry="11" style="stroke:#181818;stroke-width:1;"/><path d="M314.9383,81.6634 Q314.3602,81.9603 313.7196,82.1009 Q313.0789,82.2572 312.3758,82.2572 Q309.8758,82.2572 308.5477,80.6166 Q307.2352,78.9603 307.2352,75.8353 Q307.2352,72.7103 308.5477,71.0541 Q309.8758,69.3978 312.3758,69.3978 Q313.0789,69.3978 313.7196,69.5541 Q314.3758,69.7103 314.9383,70.0072 L314.9383,72.7259 Q314.3133,72.1478 313.7196,71.8822 Q313.1258,71.6009 312.5008,71.6009 Q311.1571,71.6009 310.4696,72.6791 Q309.7821,73.7416 309.7821,75.8353 Q309.7821,77.9291 310.4696,79.0072 Q311.1571,80.0697 312.5008,80.0697 Q313.1258,80.0697 313.7196,79.8041 Q314.3133,79.5228 314.9383,78.9447 L314.9383,81.6634 Z " fill="#000000"/><text fill="#000000" font-family="sans-serif" font-size="12" font-style="italic" lengthAdjust="spacing" textLength="56.543" x="355.1429" y="72.0287">&#171;control&#187;</text><text fill="#000000" font-family="sans-serif" font-size="14" lengthAdjust="spacing" textLength="101.8896" x="332.4696" y="87.8539">ChatController</text><line style="stroke:#181818;stroke-width:0.5;" x1="231.68" x2="502.6488" y1="96.1556" y2="96.1556"/><line style="stroke:#181818;stroke-width:0.5;" x1="231.68" x2="502.6488" y1="104.1556" y2="104.1556"/><text fill="#000000" font-family="sans-serif" font-size="14" lengthAdjust="spacing" textLength="212.3789" x="236.68" y="121.1507">+layLichSuTinNhan(sessionId)</text><text fill="#000000" font-family="sans-serif" font-size="14" lengthAdjust="spacing" textLength="260.9688" x="236.68" y="137.4476">+guiTinNhan(sessionId, sender, text)</text></g><!--class CHAT_MESSAGES--><g class="entity" data-qualified-name="CHAT_MESSAGES" data-source-line="18" id="ent0003"><rect fill="#F1F1F1" height="186.6406" rx="2.5" ry="2.5" style="stroke:#181818;stroke-width:0.5;" width="231.543" x="538.39" y="7"/><ellipse cx="588.7674" cy="27.1328" fill="#C2C2C2" rx="11" ry="11" style="stroke:#181818;stroke-width:1;"/><path d="M591.7362,32.7734 Q591.1581,33.0703 590.5174,33.2109 Q589.8768,33.3672 589.1737,33.3672 Q586.6737,33.3672 585.3456,31.7266 Q584.0331,30.0703 584.0331,26.9453 Q584.0331,23.8203 585.3456,22.1641 Q586.6737,20.5078 589.1737,20.5078 Q589.8768,20.5078 590.5174,20.6641 Q591.1737,20.8203 591.7362,21.1172 L591.7362,23.8359 Q591.1112,23.2578 590.5174,22.9922 Q589.9237,22.7109 589.2987,22.7109 Q587.9549,22.7109 587.2674,23.7891 Q586.5799,24.8516 586.5799,26.9453 Q586.5799,29.0391 587.2674,30.1172 Q587.9549,31.1797 589.2987,31.1797 Q589.9237,31.1797 590.5174,30.9141 Q591.1112,30.6328 591.7362,30.0547 L591.7362,32.7734 Z " fill="#000000"/><text fill="#000000" font-family="sans-serif" font-size="12" font-style="italic" lengthAdjust="spacing" textLength="49.5176" x="645.6527" y="23.1387">&#171;entity&#187;</text><text fill="#000000" font-family="sans-serif" font-size="14" lengthAdjust="spacing" textLength="122.2881" x="609.2674" y="38.9639">CHAT_MESSAGES</text><line style="stroke:#181818;stroke-width:0.5;" x1="539.39" x2="768.933" y1="47.2656" y2="47.2656"/><text fill="#000000" font-family="sans-serif" font-size="14" lengthAdjust="spacing" textLength="142.1738" x="544.39" y="64.2607">-sender_role : ENUM</text><text fill="#000000" font-family="sans-serif" font-size="14" lengthAdjust="spacing" textLength="152.0039" x="544.39" y="80.5576">-message_text : TEXT</text><line style="stroke:#181818;stroke-width:0.5;" x1="539.39" x2="768.933" y1="87.8594" y2="87.8594"/><text fill="#000000" font-family="sans-serif" font-size="14" lengthAdjust="spacing" textLength="128.6729" x="544.39" y="104.8545">-id : VARCHAR(36)</text><text fill="#000000" font-family="sans-serif" font-size="14" lengthAdjust="spacing" textLength="187.4961" x="544.39" y="121.1514">-session_id : VARCHAR(50)</text><text fill="#000000" font-family="sans-serif" font-size="14" lengthAdjust="spacing" textLength="219.543" x="544.39" y="137.4482">-sender_name : VARCHAR(255)</text><text fill="#000000" font-family="sans-serif" font-size="14" lengthAdjust="spacing" textLength="112.0752" x="544.39" y="153.7451">+getSessionId()</text><text fill="#000000" font-family="sans-serif" font-size="14" lengthAdjust="spacing" textLength="126.0684" x="544.39" y="170.042">+getSenderRole()</text><text fill="#000000" font-family="sans-serif" font-size="14" lengthAdjust="spacing" textLength="137.9424" x="544.39" y="186.3389">+getMessageText()</text></g><!--link ChatUI to ChatController--><g class="link" data-entity-1="ent0001" data-entity-2="ent0002" data-link-type="association" data-source-line="29" id="lnk4"><path codeLine="29" d="M195.71,100.32 C207.21,100.32 218.71,100.32 230.2,100.32" fill="none" id="ChatUI-ChatController" style="stroke:#181818;stroke-width:1;"/><text fill="#000000" font-family="sans-serif" font-size="13" lengthAdjust="spacing" textLength="8.271" x="203.2656" y="96.8181">1</text><text fill="#000000" font-family="sans-serif" font-size="13" lengthAdjust="spacing" textLength="8.271" x="214.4984" y="96.9804">1</text></g><!--link ChatController to CHAT_MESSAGES--><g class="link" data-entity-1="ent0002" data-entity-2="ent0003" data-link-type="association" data-source-line="30" id="lnk5"><path codeLine="30" d="M503.93,100.32 C515.28,100.32 526.62,100.32 537.97,100.32" fill="none" id="ChatController-CHAT_MESSAGES" style="stroke:#181818;stroke-width:1;"/><text fill="#000000" font-family="sans-serif" font-size="13" lengthAdjust="spacing" textLength="8.271" x="511.6355" y="96.9804">1</text><text fill="#000000" font-family="sans-serif" font-size="13" lengthAdjust="spacing" textLength="8.2393" x="522.2779" y="96.9107">n</text></g><?plantuml-src NL5DQy905BpdLooUB5MmBVPGH0WsgD3au4RfBQp9QtOnUIlxGMjB_titNvhqih0pxytCpkgJm3DJh2IbH9bo9KiWHbdmz9NHd6NoKs1EFbYX-qnQCArzOvGuMWFRL28Ltq1cdbSpPCMPsM_9Od6K5ZEcBiib-V48kI_boZ8gAtvyLm5S0CPSl8cKKtk3aRDp9CMhnJmM67663NvoSv4rQoi6SEgctMx8S2EGjpA__JGhYKR9eW3bKgNDfGjLi4lZtsbgq5f8t6QrU7upkn8JeW4pK1DYuClqlJP-d8G1fVuweCuAq0ZJFNygCl923lxEJUt6Jy-L_BJLJ0RSVDPobKdYie8ZWsWVzb1a9VHM7kVpUgTqUYo7f0hcw3XuZ-jNWA5T-gQq6gcKTax-2eNDUkoscmxRlnmzZCYqFeTrUl_QRUTmDApY3m00?></g></svg>