<svg xmlns="http://www.w3.org/2000/svg" xmlns:xlink="http://www.w3.org/1999/xlink" contentStyleType="text/css" data-diagram-type="CLASS" height="198px" preserveAspectRatio="none" style="width:1106px;height:198px;background:#FFFFFF;" version="1.1" viewBox="0 0 1106 198" width="1106px" zoomAndPan="magnify"><?plantuml 1.2026.5?><defs/><g><!--class QLLichHenUI--><g class="entity" data-qualified-name="QLLichHenUI" data-source-line="5" id="ent0001"><rect fill="#F1F1F1" height="121.4531" rx="2.5" ry="2.5" style="stroke:#181818;stroke-width:0.5;" width="213.6328" x="7" y="62.27"/><ellipse cx="64.832" cy="82.4028" fill="#C2C2C2" rx="11" ry="11" style="stroke:#181818;stroke-width:1;"/><path d="M67.8008,88.0434 Q67.2227,88.3403 66.582,88.4809 Q65.9414,88.6372 65.2383,88.6372 Q62.7383,88.6372 61.4102,86.9966 Q60.0977,85.3403 60.0977,82.2153 Q60.0977,79.0903 61.4102,77.4341 Q62.7383,75.7778 65.2383,75.7778 Q65.9414,75.7778 66.582,75.9341 Q67.2383,76.0903 67.8008,76.3872 L67.8008,79.1059 Q67.1758,78.5278 66.582,78.2622 Q65.9883,77.9809 65.3633,77.9809 Q64.0195,77.9809 63.332,79.0591 Q62.6445,80.1216 62.6445,82.2153 Q62.6445,84.3091 63.332,85.3872 Q64.0195,86.4497 65.3633,86.4497 Q65.9883,86.4497 66.582,86.1841 Q67.1758,85.9028 67.8008,85.3247 L67.8008,88.0434 Z " fill="#000000"/><text fill="#000000" font-family="sans-serif" font-size="12" font-style="italic" lengthAdjust="spacing" textLength="71.8594" x="94.1367" y="78.4087">&#171;boundary&#187;</text><text fill="#000000" font-family="sans-serif" font-size="14" lengthAdjust="spacing" textLength="89.4688" x="85.332" y="94.2339">QLLichHenUI</text><line style="stroke:#181818;stroke-width:0.5;" x1="8" x2="219.6328" y1="102.5356" y2="102.5356"/><line style="stroke:#181818;stroke-width:0.5;" x1="8" x2="219.6328" y1="110.5356" y2="110.5356"/><text fill="#000000" font-family="sans-serif" font-size="14" lengthAdjust="spacing" textLength="166.3662" x="13" y="127.5307">+chonQuanLyLichHen()</text><text fill="#000000" font-family="sans-serif" font-size="14" lengthAdjust="spacing" textLength="201.6328" x="13" y="143.8276">+hienThiDanhSachLichHen()</text><text fill="#000000" font-family="sans-serif" font-size="14" lengthAdjust="spacing" textLength="187.8584" x="13" y="160.1245">+chonCapNhatTrangThai()</text><text fill="#000000" font-family="sans-serif" font-size="14" lengthAdjust="spacing" textLength="142.9258" x="13" y="176.4214">+capNhatManHinh()</text></g><!--class QLLichHenController--><g class="entity" data-qualified-name="QLLichHenController" data-source-line="12" id="ent0002"><rect fill="#F1F1F1" height="88.8594" rx="2.5" ry="2.5" style="stroke:#181818;stroke-width:0.5;" width="284.7402" x="255.45" y="78.56"/><ellipse cx="321.4373" cy="98.6928" fill="#C2C2C2" rx="11" ry="11" style="stroke:#181818;stroke-width:1;"/><path d="M324.4061,104.3334 Q323.8279,104.6303 323.1873,104.7709 Q322.5467,104.9272 321.8436,104.9272 Q319.3436,104.9272 318.0154,103.2866 Q316.7029,101.6303 316.7029,98.5053 Q316.7029,95.3803 318.0154,93.7241 Q319.3436,92.0678 321.8436,92.0678 Q322.5467,92.0678 323.1873,92.2241 Q323.8436,92.3803 324.4061,92.6772 L324.4061,95.3959 Q323.7811,94.8178 323.1873,94.5522 Q322.5936,94.2709 321.9686,94.2709 Q320.6248,94.2709 319.9373,95.3491 Q319.2498,96.4116 319.2498,98.5053 Q319.2498,100.5991 319.9373,101.6772 Q320.6248,102.7397 321.9686,102.7397 Q322.5936,102.7397 323.1873,102.4741 Q323.7811,102.1928 324.4061,101.6147 L324.4061,104.3334 Z " fill="#000000"/><text fill="#000000" font-family="sans-serif" font-size="12" font-style="italic" lengthAdjust="spacing" textLength="56.543" x="385.7986" y="94.6987">&#171;control&#187;</text><text fill="#000000" font-family="sans-serif" font-size="14" lengthAdjust="spacing" textLength="144.2656" x="341.9373" y="110.5239">QLLichHenController</text><line style="stroke:#181818;stroke-width:0.5;" x1="256.45" x2="539.1902" y1="118.8256" y2="118.8256"/><line style="stroke:#181818;stroke-width:0.5;" x1="256.45" x2="539.1902" y1="126.8256" y2="126.8256"/><text fill="#000000" font-family="sans-serif" font-size="14" lengthAdjust="spacing" textLength="170.8232" x="261.45" y="143.8207">+layDanhSachLichHen()</text><text fill="#000000" font-family="sans-serif" font-size="14" lengthAdjust="spacing" textLength="272.7402" x="261.45" y="160.1176">+capNhatTrangThaiLichHen(id, status)</text></g><!--class APPOINTMENTS--><g class="entity" data-qualified-name="APPOINTMENTS" data-source-line="17" id="ent0003"><rect fill="#F1F1F1" height="88.8594" rx="2.5" ry="2.5" style="stroke:#181818;stroke-width:0.5;" width="141.4707" x="950.08" y="78.56"/><ellipse cx="965.08" cy="98.6928" fill="#C2C2C2" rx="11" ry="11" style="stroke:#181818;stroke-width:1;"/><path d="M968.0488,104.3334 Q967.4706,104.6303 966.83,104.7709 Q966.1894,104.9272 965.4863,104.9272 Q962.9863,104.9272 961.6581,103.2866 Q960.3456,101.6303 960.3456,98.5053 Q960.3456,95.3803 961.6581,93.7241 Q962.9863,92.0678 965.4863,92.0678 Q966.1894,92.0678 966.83,92.2241 Q967.4863,92.3803 968.0488,92.6772 L968.0488,95.3959 Q967.4238,94.8178 966.83,94.5522 Q966.2363,94.2709 965.6113,94.2709 Q964.2675,94.2709 963.58,95.3491 Q962.8925,96.4116 962.8925,98.5053 Q962.8925,100.5991 963.58,101.6772 Q964.2675,102.7397 965.6113,102.7397 Q966.2363,102.7397 966.83,102.4741 Q967.4238,102.1928 968.0488,101.6147 L968.0488,104.3334 Z " fill="#000000"/><text fill="#000000" font-family="sans-serif" font-size="12" font-style="italic" lengthAdjust="spacing" textLength="49.5176" x="1009.0566" y="94.6987">&#171;entity&#187;</text><text fill="#000000" font-family="sans-serif" font-size="14" lengthAdjust="spacing" textLength="109.4707" x="979.08" y="110.5239">APPOINTMENTS</text><line style="stroke:#181818;stroke-width:0.5;" x1="951.08" x2="1090.5507" y1="118.8256" y2="118.8256"/><text fill="#000000" font-family="sans-serif" font-size="14" lengthAdjust="spacing" textLength="103.332" x="956.08" y="135.8207">-status : ENUM</text><line style="stroke:#181818;stroke-width:0.5;" x1="951.08" x2="1090.5507" y1="143.1225" y2="143.1225"/><text fill="#000000" font-family="sans-serif" font-size="14" lengthAdjust="spacing" textLength="128.6729" x="956.08" y="160.1176">-id : VARCHAR(36)</text></g><!--class CARS--><g class="entity" data-qualified-name="CARS" data-source-line="22" id="ent0004"><rect fill="#F1F1F1" height="88.8594" rx="2.5" ry="2.5" style="stroke:#181818;stroke-width:0.5;" width="164.1748" x="750.73" y="78.56"/><ellipse cx="805.8086" cy="98.6928" fill="#C2C2C2" rx="11" ry="11" style="stroke:#181818;stroke-width:1;"/><path d="M808.7774,104.3334 Q808.1992,104.6303 807.5586,104.7709 Q806.918,104.9272 806.2149,104.9272 Q803.7149,104.9272 802.3867,103.2866 Q801.0742,101.6303 801.0742,98.5053 Q801.0742,95.3803 802.3867,93.7241 Q803.7149,92.0678 806.2149,92.0678 Q806.918,92.0678 807.5586,92.2241 Q808.2149,92.3803 808.7774,92.6772 L808.7774,95.3959 Q808.1524,94.8178 807.5586,94.5522 Q806.9649,94.2709 806.3399,94.2709 Q804.9961,94.2709 804.3086,95.3491 Q803.6211,96.4116 803.6211,98.5053 Q803.6211,100.5991 804.3086,101.6772 Q804.9961,102.7397 806.3399,102.7397 Q806.9649,102.7397 807.5586,102.4741 Q808.1524,102.1928 808.7774,101.6147 L808.7774,104.3334 Z " fill="#000000"/><text fill="#000000" font-family="sans-serif" font-size="12" font-style="italic" lengthAdjust="spacing" textLength="49.5176" x="824.3086" y="94.6987">&#171;entity&#187;</text><text fill="#000000" font-family="sans-serif" font-size="14" lengthAdjust="spacing" textLength="37.9668" x="830.084" y="110.5239">CARS</text><line style="stroke:#181818;stroke-width:0.5;" x1="751.73" x2="913.9048" y1="118.8256" y2="118.8256"/><line style="stroke:#181818;stroke-width:0.5;" x1="751.73" x2="913.9048" y1="126.8256" y2="126.8256"/><text fill="#000000" font-family="sans-serif" font-size="14" lengthAdjust="spacing" textLength="128.6729" x="756.73" y="143.8207">-id : VARCHAR(36)</text><text fill="#000000" font-family="sans-serif" font-size="14" lengthAdjust="spacing" textLength="152.1748" x="756.73" y="160.1176">-title : VARCHAR(255)</text></g><!--class NOTIFICATIONS--><g class="entity" data-qualified-name="NOTIFICATIONS" data-source-line="27" id="ent0005"><rect fill="#F1F1F1" height="88.8594" rx="2.5" ry="2.5" style="stroke:#181818;stroke-width:0.5;" width="140.7666" x="575.43" y="78.56"/><ellipse cx="590.43" cy="98.6928" fill="#C2C2C2" rx="11" ry="11" style="stroke:#181818;stroke-width:1;"/><path d="M593.3988,104.3334 Q592.8206,104.6303 592.18,104.7709 Q591.5394,104.9272 590.8363,104.9272 Q588.3363,104.9272 587.0081,103.2866 Q585.6956,101.6303 585.6956,98.5053 Q585.6956,95.3803 587.0081,93.7241 Q588.3363,92.0678 590.8363,92.0678 Q591.5394,92.0678 592.18,92.2241 Q592.8363,92.3803 593.3988,92.6772 L593.3988,95.3959 Q592.7738,94.8178 592.18,94.5522 Q591.5863,94.2709 590.9613,94.2709 Q589.6175,94.2709 588.93,95.3491 Q588.2425,96.4116 588.2425,98.5053 Q588.2425,100.5991 588.93,101.6772 Q589.6175,102.7397 590.9613,102.7397 Q591.5863,102.7397 592.18,102.4741 Q592.7738,102.1928 593.3988,101.6147 L593.3988,104.3334 Z " fill="#000000"/><text fill="#000000" font-family="sans-serif" font-size="12" font-style="italic" lengthAdjust="spacing" textLength="49.5176" x="634.0545" y="94.6987">&#171;entity&#187;</text><text fill="#000000" font-family="sans-serif" font-size="14" lengthAdjust="spacing" textLength="108.7666" x="604.43" y="110.5239">NOTIFICATIONS</text><line style="stroke:#181818;stroke-width:0.5;" x1="576.43" x2="715.1966" y1="118.8256" y2="118.8256"/><text fill="#000000" font-family="sans-serif" font-size="14" lengthAdjust="spacing" textLength="107.8096" x="581.43" y="135.8207">-content : TEXT</text><line style="stroke:#181818;stroke-width:0.5;" x1="576.43" x2="715.1966" y1="143.1225" y2="143.1225"/><text fill="#000000" font-family="sans-serif" font-size="14" lengthAdjust="spacing" textLength="128.6729" x="581.43" y="160.1176">-id : VARCHAR(36)</text></g><!--link QLLichHenUI to QLLichHenController--><g class="link" data-entity-1="ent0001" data-entity-2="ent0002" data-link-type="association" data-source-line="32" id="lnk6"><path codeLine="32" d="M220.87,122.99 C232.28,122.99 243.68,122.99 255.09,122.99" fill="none" id="QLLichHenUI-QLLichHenController" style="stroke:#181818;stroke-width:1;"/><text fill="#000000" font-family="sans-serif" font-size="13" lengthAdjust="spacing" textLength="8.271" x="228.688" y="119.5338">1</text><text fill="#000000" font-family="sans-serif" font-size="13" lengthAdjust="spacing" textLength="8.271" x="239.0731" y="119.6504">1</text></g><!--link QLLichHenController to APPOINTMENTS--><g class="link" data-entity-1="ent0002" data-entity-2="ent0003" data-link-type="association" data-source-line="33" id="lnk7"><path codeLine="33" d="M466.51,78.26 C498.26,60.17 537.3,41.42 575.32,32.27 C648.77,14.58 844.48,6 915.32,32.27 C940.68,41.67 964.05,60.22 982.31,78.1" fill="none" id="QLLichHenController-APPOINTMENTS" style="stroke:#181818;stroke-width:1;"/><text fill="#000000" font-family="sans-serif" font-size="13" lengthAdjust="spacing" textLength="8.271" x="468.4364" y="67.3394">1</text><text fill="#000000" font-family="sans-serif" font-size="13" lengthAdjust="spacing" textLength="8.2393" x="968.0846" y="67.4819">n</text></g><!--link QLLichHenController to CARS--><g class="link" data-entity-1="ent0002" data-entity-2="ent0004" data-link-type="association" data-source-line="34" id="lnk8"><path codeLine="34" d="M466.51,78.26 C498.26,60.17 537.3,41.42 575.32,32.27 C636.24,17.6 657.05,11.91 716.32,32.27 C743.59,41.63 769.39,60.29 789.75,78.26" fill="none" id="QLLichHenController-CARS" style="stroke:#181818;stroke-width:1;"/><text fill="#000000" font-family="sans-serif" font-size="13" lengthAdjust="spacing" textLength="8.271" x="477.6614" y="67.3394">1</text><text fill="#000000" font-family="sans-serif" font-size="13" lengthAdjust="spacing" textLength="8.2393" x="774.5611" y="67.3394">n</text></g><!--link QLLichHenController to NOTIFICATIONS--><g class="link" data-entity-1="ent0002" data-entity-2="ent0005" data-link-type="association" data-source-line="35" id="lnk9"><path codeLine="35" d="M540.22,122.99 C551.91,122.99 563.6,122.99 575.28,122.99" fill="none" id="QLLichHenController-NOTIFICATIONS" style="stroke:#181818;stroke-width:1;"/><text fill="#000000" font-family="sans-serif" font-size="13" lengthAdjust="spacing" textLength="8.271" x="548.2337" y="119.6504">1</text><text fill="#000000" font-family="sans-serif" font-size="13" lengthAdjust="spacing" textLength="8.2393" x="559.141" y="119.2439">n</text></g><?plantuml-src ZL5TQy9047pFhrXyihH2Fx0FHOIGfXZG-7MMlgwNgtSqxidTXM9B_tilnhIn5VGbS3ExCxCJ-wPeWmRNiDQakJHwBS2PGWJsXx4IC_skQ0MlcDicmtEqDdJEg6NXHC8rpTM7WEiWs34m7GuLbmD1YmHwlQKkA4EpxVVXCm2uv5BJj40QRlTJxOiIbaeGa-eHISwHomEkN8bmaqfqp22jc4IrPofqX3HG93tszIz4fCaPdUV2-32yUjHPSjmUD_nZLfCgkmBhq1MsuHHE9kCaPQCuPNDl8SWfLr_RKHaym7CuYmRXh7rtNwftAWMFn-bYzAiJXRFpzZsVYmPys-qsugHZbZmbKSYISNgUNbcAd_84YrzOgTJyWwsR5dHstoEL1iTgtczGww2Q4wFbzIT63Yxx1W00?></g></svg>