<svg xmlns="http://www.w3.org/2000/svg" xmlns:xlink="http://www.w3.org/1999/xlink" contentStyleType="text/css" data-diagram-type="CLASS" height="241px" preserveAspectRatio="none" style="width:1298px;height:241px;background:#FFFFFF;" version="1.1" viewBox="0 0 1298 241" width="1298px" zoomAndPan="magnify"><?plantuml 1.2026.5?><defs/><g><!--class DanhSachXeUI--><g class="entity" data-qualified-name="DanhSachXeUI" data-source-line="5" id="ent0001"><rect fill="#F1F1F1" height="72.5625" rx="2.5" ry="2.5" style="stroke:#181818;stroke-width:0.5;" width="145.9365" x="7" y="113.01"/><ellipse cx="26.5967" cy="133.1428" fill="#C2C2C2" rx="11" ry="11" style="stroke:#181818;stroke-width:1;"/><path d="M29.5654,138.7834 Q28.9873,139.0803 28.3467,139.2209 Q27.7061,139.3772 27.0029,139.3772 Q24.5029,139.3772 23.1748,137.7366 Q21.8623,136.0803 21.8623,132.9553 Q21.8623,129.8303 23.1748,128.1741 Q24.5029,126.5178 27.0029,126.5178 Q27.7061,126.5178 28.3467,126.6741 Q29.0029,126.8303 29.5654,127.1272 L29.5654,129.8459 Q28.9404,129.2678 28.3467,129.0022 Q27.7529,128.7209 27.1279,128.7209 Q25.7842,128.7209 25.0967,129.7991 Q24.4092,130.8616 24.4092,132.9553 Q24.4092,135.0491 25.0967,136.1272 Q25.7842,137.1897 27.1279,137.1897 Q27.7529,137.1897 28.3467,136.9241 Q28.9404,136.6428 29.5654,136.0647 L29.5654,138.7834 Z " fill="#000000"/><text fill="#000000" font-family="sans-serif" font-size="12" font-style="italic" lengthAdjust="spacing" textLength="71.8594" x="57.5493" y="129.1487">&#171;boundary&#187;</text><text fill="#000000" font-family="sans-serif" font-size="14" lengthAdjust="spacing" textLength="103.7217" x="41.6182" y="144.9739">DanhSachXeUI</text><line style="stroke:#181818;stroke-width:0.5;" x1="8" x2="151.9365" y1="153.2756" y2="153.2756"/><line style="stroke:#181818;stroke-width:0.5;" x1="8" x2="151.9365" y1="161.2756" y2="161.2756"/><text fill="#000000" font-family="sans-serif" font-size="14" lengthAdjust="spacing" textLength="133.9365" x="13" y="178.2707">+chonXeCanXem()</text></g><!--class ChiTietXeUI--><g class="entity" data-qualified-name="ChiTietXeUI" data-source-line="9" id="ent0002"><rect fill="#F1F1F1" height="72.5625" rx="2.5" ry="2.5" style="stroke:#181818;stroke-width:0.5;" width="215.1982" x="188.37" y="113.01"/><ellipse cx="250.8881" cy="133.1428" fill="#C2C2C2" rx="11" ry="11" style="stroke:#181818;stroke-width:1;"/><path d="M253.8568,138.7834 Q253.2787,139.0803 252.6381,139.2209 Q251.9974,139.3772 251.2943,139.3772 Q248.7943,139.3772 247.4662,137.7366 Q246.1537,136.0803 246.1537,132.9553 Q246.1537,129.8303 247.4662,128.1741 Q248.7943,126.5178 251.2943,126.5178 Q251.9974,126.5178 252.6381,126.6741 Q253.2943,126.8303 253.8568,127.1272 L253.8568,129.8459 Q253.2318,129.2678 252.6381,129.0022 Q252.0443,128.7209 251.4193,128.7209 Q250.0756,128.7209 249.3881,129.7991 Q248.7006,130.8616 248.7006,132.9553 Q248.7006,135.0491 249.3881,136.1272 Q250.0756,137.1897 251.4193,137.1897 Q252.0443,137.1897 252.6381,136.9241 Q253.2318,136.6428 253.8568,136.0647 L253.8568,138.7834 Z " fill="#000000"/><text fill="#000000" font-family="sans-serif" font-size="12" font-style="italic" lengthAdjust="spacing" textLength="71.8594" x="276.2894" y="129.1487">&#171;boundary&#187;</text><text fill="#000000" font-family="sans-serif" font-size="14" lengthAdjust="spacing" textLength="81.6621" x="271.3881" y="144.9739">ChiTietXeUI</text><line style="stroke:#181818;stroke-width:0.5;" x1="189.37" x2="402.5682" y1="153.2756" y2="153.2756"/><line style="stroke:#181818;stroke-width:0.5;" x1="189.37" x2="402.5682" y1="161.2756" y2="161.2756"/><text fill="#000000" font-family="sans-serif" font-size="14" lengthAdjust="spacing" textLength="203.1982" x="194.37" y="178.2707">+hienThiManHinhChiTietXe()</text></g><!--class XeController--><g class="entity" data-qualified-name="XeController" data-source-line="13" id="ent0003"><rect fill="#F1F1F1" height="121.4531" rx="2.5" ry="2.5" style="stroke:#181818;stroke-width:0.5;" width="222.8066" x="438.56" y="88.56"/><ellipse cx="502.0248" cy="108.6928" fill="#C2C2C2" rx="11" ry="11" style="stroke:#181818;stroke-width:1;"/><path d="M504.9936,114.3334 Q504.4155,114.6303 503.7748,114.7709 Q503.1342,114.9272 502.4311,114.9272 Q499.9311,114.9272 498.603,113.2866 Q497.2905,111.6303 497.2905,108.5053 Q497.2905,105.3803 498.603,103.7241 Q499.9311,102.0678 502.4311,102.0678 Q503.1342,102.0678 503.7748,102.2241 Q504.4311,102.3803 504.9936,102.6772 L504.9936,105.3959 Q504.3686,104.8178 503.7748,104.5522 Q503.1811,104.2709 502.5561,104.2709 Q501.2123,104.2709 500.5248,105.3491 Q499.8373,106.4116 499.8373,108.5053 Q499.8373,110.5991 500.5248,111.6772 Q501.2123,112.7397 502.5561,112.7397 Q503.1811,112.7397 503.7748,112.4741 Q504.3686,112.1928 504.9936,111.6147 L504.9936,114.3334 Z " fill="#000000"/><text fill="#000000" font-family="sans-serif" font-size="12" font-style="italic" lengthAdjust="spacing" textLength="56.543" x="537.9418" y="104.6987">&#171;control&#187;</text><text fill="#000000" font-family="sans-serif" font-size="14" lengthAdjust="spacing" textLength="87.377" x="522.5248" y="120.5239">XeController</text><line style="stroke:#181818;stroke-width:0.5;" x1="439.56" x2="660.3666" y1="128.8256" y2="128.8256"/><line style="stroke:#181818;stroke-width:0.5;" x1="439.56" x2="660.3666" y1="136.8256" y2="136.8256"/><text fill="#000000" font-family="sans-serif" font-size="14" lengthAdjust="spacing" textLength="210.8066" x="444.56" y="153.8207">+layThongTinChiTietXe(carId)</text><text fill="#000000" font-family="sans-serif" font-size="14" lengthAdjust="spacing" textLength="126.6768" x="444.56" y="170.1176">+layThongTinXe()</text><text fill="#000000" font-family="sans-serif" font-size="14" lengthAdjust="spacing" textLength="141.873" x="444.56" y="186.4145">+layDanhSachAnh()</text><text fill="#000000" font-family="sans-serif" font-size="14" lengthAdjust="spacing" textLength="122.0352" x="444.56" y="202.7114">+layDanhGiaXe()</text></g><!--class CARS--><g class="entity" data-qualified-name="CARS" data-source-line="20" id="ent0004"><rect fill="#F1F1F1" height="154.0469" rx="2.5" ry="2.5" style="stroke:#181818;stroke-width:0.5;" width="177.7852" x="1106.08" y="72.26"/><ellipse cx="1167.9638" cy="92.3928" fill="#C2C2C2" rx="11" ry="11" style="stroke:#181818;stroke-width:1;"/><path d="M1170.9325,98.0334 Q1170.3544,98.3303 1169.7138,98.4709 Q1169.0732,98.6272 1168.37,98.6272 Q1165.87,98.6272 1164.5419,96.9866 Q1163.2294,95.3303 1163.2294,92.2053 Q1163.2294,89.0803 1164.5419,87.4241 Q1165.87,85.7678 1168.37,85.7678 Q1169.0732,85.7678 1169.7138,85.9241 Q1170.37,86.0803 1170.9325,86.3772 L1170.9325,89.0959 Q1170.3075,88.5178 1169.7138,88.2522 Q1169.12,87.9709 1168.495,87.9709 Q1167.1513,87.9709 1166.4638,89.0491 Q1165.7763,90.1116 1165.7763,92.2053 Q1165.7763,94.2991 1166.4638,95.3772 Q1167.1513,96.4397 1168.495,96.4397 Q1169.12,96.4397 1169.7138,96.1741 Q1170.3075,95.8928 1170.9325,95.3147 L1170.9325,98.0334 Z " fill="#000000"/><text fill="#000000" font-family="sans-serif" font-size="12" font-style="italic" lengthAdjust="spacing" textLength="49.5176" x="1186.4638" y="88.3987">&#171;entity&#187;</text><text fill="#000000" font-family="sans-serif" font-size="14" lengthAdjust="spacing" textLength="37.9668" x="1192.2392" y="104.2239">CARS</text><line style="stroke:#181818;stroke-width:0.5;" x1="1107.08" x2="1282.8652" y1="112.5256" y2="112.5256"/><text fill="#000000" font-family="sans-serif" font-size="14" lengthAdjust="spacing" textLength="101.2471" x="1112.08" y="129.5207">-price : BIGINT</text><text fill="#000000" font-family="sans-serif" font-size="14" lengthAdjust="spacing" textLength="73.0557" x="1112.08" y="145.8176">-year : INT</text><text fill="#000000" font-family="sans-serif" font-size="14" lengthAdjust="spacing" textLength="81.3545" x="1112.08" y="162.1145">-views : INT</text><line style="stroke:#181818;stroke-width:0.5;" x1="1107.08" x2="1282.8652" y1="169.4163" y2="169.4163"/><text fill="#000000" font-family="sans-serif" font-size="14" lengthAdjust="spacing" textLength="128.6729" x="1112.08" y="186.4114">-id : VARCHAR(36)</text><text fill="#000000" font-family="sans-serif" font-size="14" lengthAdjust="spacing" textLength="152.1748" x="1112.08" y="202.7082">-title : VARCHAR(255)</text><text fill="#000000" font-family="sans-serif" font-size="14" lengthAdjust="spacing" textLength="165.7852" x="1112.08" y="219.0051">-brand : VARCHAR(100)</text></g><!--class CAR_IMAGES--><g class="entity" data-qualified-name="CAR_IMAGES" data-source-line="29" id="ent0005"><rect fill="#F1F1F1" height="105.1563" rx="2.5" ry="2.5" style="stroke:#181818;stroke-width:0.5;" width="169.7051" x="901.12" y="96.71"/><ellipse cx="937.3865" cy="116.8428" fill="#C2C2C2" rx="11" ry="11" style="stroke:#181818;stroke-width:1;"/><path d="M940.3552,122.4834 Q939.7771,122.7803 939.1365,122.9209 Q938.4958,123.0772 937.7927,123.0772 Q935.2927,123.0772 933.9646,121.4366 Q932.6521,119.7803 932.6521,116.6553 Q932.6521,113.5303 933.9646,111.8741 Q935.2927,110.2178 937.7927,110.2178 Q938.4958,110.2178 939.1365,110.3741 Q939.7927,110.5303 940.3552,110.8272 L940.3552,113.5459 Q939.7302,112.9678 939.1365,112.7022 Q938.5427,112.4209 937.9177,112.4209 Q936.574,112.4209 935.8865,113.4991 Q935.199,114.5616 935.199,116.6553 Q935.199,118.7491 935.8865,119.8272 Q936.574,120.8897 937.9177,120.8897 Q938.5427,120.8897 939.1365,120.6241 Q939.7302,120.3428 940.3552,119.7647 L940.3552,122.4834 Z " fill="#000000"/><text fill="#000000" font-family="sans-serif" font-size="12" font-style="italic" lengthAdjust="spacing" textLength="49.5176" x="976.5767" y="112.8487">&#171;entity&#187;</text><text fill="#000000" font-family="sans-serif" font-size="14" lengthAdjust="spacing" textLength="90.4463" x="956.1123" y="128.6739">CAR_IMAGES</text><line style="stroke:#181818;stroke-width:0.5;" x1="902.12" x2="1069.8251" y1="136.9756" y2="136.9756"/><text fill="#000000" font-family="sans-serif" font-size="14" lengthAdjust="spacing" textLength="123.334" x="907.12" y="153.9707">-image_url : TEXT</text><line style="stroke:#181818;stroke-width:0.5;" x1="902.12" x2="1069.8251" y1="161.2725" y2="161.2725"/><text fill="#000000" font-family="sans-serif" font-size="14" lengthAdjust="spacing" textLength="128.6729" x="907.12" y="178.2676">-id : VARCHAR(36)</text><text fill="#000000" font-family="sans-serif" font-size="14" lengthAdjust="spacing" textLength="157.7051" x="907.12" y="194.5645">-car_id : VARCHAR(36)</text></g><!--class CAR_REVIEWS--><g class="entity" data-qualified-name="CAR_REVIEWS" data-source-line="35" id="ent0006"><rect fill="#F1F1F1" height="121.4531" rx="2.5" ry="2.5" style="stroke:#181818;stroke-width:0.5;" width="169.7051" x="696.12" y="88.56"/><ellipse cx="728.1167" cy="108.6928" fill="#C2C2C2" rx="11" ry="11" style="stroke:#181818;stroke-width:1;"/><path d="M731.0855,114.3334 Q730.5074,114.6303 729.8667,114.7709 Q729.2261,114.9272 728.523,114.9272 Q726.023,114.9272 724.6949,113.2866 Q723.3824,111.6303 723.3824,108.5053 Q723.3824,105.3803 724.6949,103.7241 Q726.023,102.0678 728.523,102.0678 Q729.2261,102.0678 729.8667,102.2241 Q730.523,102.3803 731.0855,102.6772 L731.0855,105.3959 Q730.4605,104.8178 729.8667,104.5522 Q729.273,104.2709 728.648,104.2709 Q727.3042,104.2709 726.6167,105.3491 Q725.9292,106.4116 725.9292,108.5053 Q725.9292,110.5991 726.6167,111.6772 Q727.3042,112.7397 728.648,112.7397 Q729.273,112.7397 729.8667,112.4741 Q730.4605,112.1928 731.0855,111.6147 L731.0855,114.3334 Z " fill="#000000"/><text fill="#000000" font-family="sans-serif" font-size="12" font-style="italic" lengthAdjust="spacing" textLength="49.5176" x="771.1023" y="104.6987">&#171;entity&#187;</text><text fill="#000000" font-family="sans-serif" font-size="14" lengthAdjust="spacing" textLength="99.9346" x="745.8938" y="120.5239">CAR_REVIEWS</text><line style="stroke:#181818;stroke-width:0.5;" x1="697.12" x2="864.8251" y1="128.8256" y2="128.8256"/><text fill="#000000" font-family="sans-serif" font-size="14" lengthAdjust="spacing" textLength="83.2959" x="702.12" y="145.8207">-rating : INT</text><text fill="#000000" font-family="sans-serif" font-size="14" lengthAdjust="spacing" textLength="107.8096" x="702.12" y="162.1176">-content : TEXT</text><line style="stroke:#181818;stroke-width:0.5;" x1="697.12" x2="864.8251" y1="169.4194" y2="169.4194"/><text fill="#000000" font-family="sans-serif" font-size="14" lengthAdjust="spacing" textLength="128.6729" x="702.12" y="186.4145">-id : VARCHAR(36)</text><text fill="#000000" font-family="sans-serif" font-size="14" lengthAdjust="spacing" textLength="157.7051" x="702.12" y="202.7114">-car_id : VARCHAR(36)</text></g><!--link DanhSachXeUI to XeController--><g class="link" data-entity-1="ent0001" data-entity-2="ent0003" data-link-type="association" data-source-line="42" id="lnk7"><path codeLine="42" d="M104.88,112.74 C124.34,87.67 153.83,56.47 188.47,42.26 C276.87,6 312.63,12.62 403.47,42.26 C432.81,51.84 461.16,69.77 484.97,88.25" fill="none" id="DanhSachXeUI-XeController" style="stroke:#181818;stroke-width:1;"/><text fill="#000000" font-family="sans-serif" font-size="13" lengthAdjust="spacing" textLength="8.271" x="100.629" y="101.9721">1</text><text fill="#000000" font-family="sans-serif" font-size="13" lengthAdjust="spacing" textLength="8.271" x="469.0083" y="77.4">1</text></g><!--link ChiTietXeUI to XeController--><g class="link" data-entity-1="ent0002" data-entity-2="ent0003" data-link-type="association" data-source-line="43" id="lnk8"><path codeLine="43" d="M403.62,149.29 C415.15,149.29 426.68,149.29 438.21,149.29" fill="none" id="ChiTietXeUI-XeController" style="stroke:#181818;stroke-width:1;"/><text fill="#000000" font-family="sans-serif" font-size="13" lengthAdjust="spacing" textLength="8.271" x="411.48" y="145.8341">1</text><text fill="#000000" font-family="sans-serif" font-size="13" lengthAdjust="spacing" textLength="8.271" x="422.4419" y="145.8577">1</text></g><!--link XeController to CARS--><g class="link" data-entity-1="ent0003" data-entity-2="ent0004" data-link-type="association" data-source-line="44" id="lnk9"><path codeLine="44" d="M614.96,88.25 C638.78,69.77 667.12,51.84 696.47,42.26 C775.48,16.48 992.54,13.37 1070.47,42.26 C1088.64,49 1105.94,59.71 1121.56,71.81" fill="none" id="XeController-CARS" style="stroke:#181818;stroke-width:1;"/><text fill="#000000" font-family="sans-serif" font-size="13" lengthAdjust="spacing" textLength="8.271" x="614.0284" y="77.4">1</text><text fill="#000000" font-family="sans-serif" font-size="13" lengthAdjust="spacing" textLength="8.2393" x="1106.6761" y="61.3149">n</text></g><!--link XeController to CAR_IMAGES--><g class="link" data-entity-1="ent0003" data-entity-2="ent0005" data-link-type="association" data-source-line="45" id="lnk10"><path codeLine="45" d="M614.96,88.25 C638.78,69.77 667.12,51.84 696.47,42.26 C767.87,18.96 795.25,15.58 865.47,42.26 C894.76,53.39 921.49,75.27 942.29,96.36" fill="none" id="XeController-CAR_IMAGES" style="stroke:#181818;stroke-width:1;"/><text fill="#000000" font-family="sans-serif" font-size="13" lengthAdjust="spacing" textLength="8.271" x="622.9534" y="77.4">1</text><text fill="#000000" font-family="sans-serif" font-size="13" lengthAdjust="spacing" textLength="8.2393" x="928.196" y="85.693">n</text></g><!--link XeController to CAR_REVIEWS--><g class="link" data-entity-1="ent0003" data-entity-2="ent0006" data-link-type="association" data-source-line="46" id="lnk11"><path codeLine="46" d="M661.86,149.29 C673.18,149.29 684.5,149.29 695.82,149.29" fill="none" id="XeController-CAR_REVIEWS" style="stroke:#181818;stroke-width:1;"/><text fill="#000000" font-family="sans-serif" font-size="13" lengthAdjust="spacing" textLength="8.271" x="669.2933" y="145.8809">1</text><text fill="#000000" font-family="sans-serif" font-size="13" lengthAdjust="spacing" textLength="8.2393" x="679.8905" y="145.6951">n</text></g><?plantuml-src fLB1Qi904BtdAnPFIX6qnHwA26aQD0TxY6dhJSPawmvDPcMpgTZIV-yc9dOZLGgzBCnxC-_Dpap-XhG51HdB9CbOA9bnfbN1dVp8v08IkKFQi5T8Svk9KyXpLsk5wqBp89Qqm0_E1evJCUm1I2mW5al-5B3nU2qBIa3j9nFswJ1s5Gj9I-w1UR9kp_bgoZo14N9zfaeWfqZW76Y698wvje0HbQILJ5EkZ49y21g15FQHSTv4I3_LCQWWwPtGbUe1QhxYacXXKuIsj-U62-F9IQDkUkvZmkxOinjwCpVitjoM0dt3fzo2hqUZ2byh83jzE1XK-5PXNERV1zFWCIgHFGTbW3fwHxxBwz3kPXNCtQd_jvxC55Q_uPZ1XgyAbHegyfSd1g7_7FWl_tDGeCiBE_wct9bHi_nQnzGPTbY_UkrTE_Rbd4bftKQTGvrgRHUuUeYNCkefV0C0?></g></svg>