<svg xmlns="http://www.w3.org/2000/svg" xmlns:xlink="http://www.w3.org/1999/xlink" contentStyleType="text/css" data-diagram-type="CLASS" height="199px" preserveAspectRatio="none" style="width:1520px;height:199px;background:#FFFFFF;" version="1.1" viewBox="0 0 1520 199" width="1520px" zoomAndPan="magnify"><?plantuml 1.2026.5?><defs/><g><!--class QLKhachHangUI--><g class="entity" data-qualified-name="QLKhachHangUI" data-source-line="5" id="ent0001"><rect fill="#F1F1F1" height="121.4531" rx="2.5" ry="2.5" style="stroke:#181818;stroke-width:0.5;" width="237.4287" x="7" y="63.5"/><ellipse cx="64.832" cy="83.6328" fill="#C2C2C2" rx="11" ry="11" style="stroke:#181818;stroke-width:1;"/><path d="M67.8008,89.2734 Q67.2227,89.5703 66.582,89.7109 Q65.9414,89.8672 65.2383,89.8672 Q62.7383,89.8672 61.4102,88.2266 Q60.0977,86.5703 60.0977,83.4453 Q60.0977,80.3203 61.4102,78.6641 Q62.7383,77.0078 65.2383,77.0078 Q65.9414,77.0078 66.582,77.1641 Q67.2383,77.3203 67.8008,77.6172 L67.8008,80.3359 Q67.1758,79.7578 66.582,79.4922 Q65.9883,79.2109 65.3633,79.2109 Q64.0195,79.2109 63.332,80.2891 Q62.6445,81.3516 62.6445,83.4453 Q62.6445,85.5391 63.332,86.6172 Q64.0195,87.6797 65.3633,87.6797 Q65.9883,87.6797 66.582,87.4141 Q67.1758,87.1328 67.8008,86.5547 L67.8008,89.2734 Z " fill="#000000"/><text fill="#000000" font-family="sans-serif" font-size="12" font-style="italic" lengthAdjust="spacing" textLength="71.8594" x="106.0347" y="79.6387">&#171;boundary&#187;</text><text fill="#000000" font-family="sans-serif" font-size="14" lengthAdjust="spacing" textLength="113.2646" x="85.332" y="95.4639">QLKhachHangUI</text><line style="stroke:#181818;stroke-width:0.5;" x1="8" x2="243.4287" y1="103.7656" y2="103.7656"/><line style="stroke:#181818;stroke-width:0.5;" x1="8" x2="243.4287" y1="111.7656" y2="111.7656"/><text fill="#000000" font-family="sans-serif" font-size="14" lengthAdjust="spacing" textLength="190.1621" x="13" y="128.7607">+chonQuanLyKhachHang()</text><text fill="#000000" font-family="sans-serif" font-size="14" lengthAdjust="spacing" textLength="225.4287" x="13" y="145.0576">+hienThiDanhSachKhachHang()</text><text fill="#000000" font-family="sans-serif" font-size="14" lengthAdjust="spacing" textLength="136.7324" x="13" y="161.3545">+chonKhachHang()</text><text fill="#000000" font-family="sans-serif" font-size="14" lengthAdjust="spacing" textLength="203.3691" x="13" y="177.6514">+hienThiChiTietKhachHang()</text></g><!--class QLKhachHangController--><g class="entity" data-qualified-name="QLKhachHangController" data-source-line="12" id="ent0002"><rect fill="#F1F1F1" height="88.8594" rx="2.5" ry="2.5" style="stroke:#181818;stroke-width:0.5;" width="263.501" x="278.96" y="79.79"/><ellipse cx="322.5078" cy="99.9228" fill="#C2C2C2" rx="11" ry="11" style="stroke:#181818;stroke-width:1;"/><path d="M325.4765,105.5634 Q324.8984,105.8603 324.2578,106.0009 Q323.6171,106.1572 322.914,106.1572 Q320.414,106.1572 319.0859,104.5166 Q317.7734,102.8603 317.7734,99.7353 Q317.7734,96.6103 319.0859,94.9541 Q320.414,93.2978 322.914,93.2978 Q323.6171,93.2978 324.2578,93.4541 Q324.914,93.6103 325.4765,93.9072 L325.4765,96.6259 Q324.8515,96.0478 324.2578,95.7822 Q323.664,95.5009 323.039,95.5009 Q321.6953,95.5009 321.0078,96.5791 Q320.3203,97.6416 320.3203,99.7353 Q320.3203,101.8291 321.0078,102.9072 Q321.6953,103.9697 323.039,103.9697 Q323.664,103.9697 324.2578,103.7041 Q324.8515,103.4228 325.4765,102.8447 L325.4765,105.5634 Z " fill="#000000"/><text fill="#000000" font-family="sans-serif" font-size="12" font-style="italic" lengthAdjust="spacing" textLength="56.543" x="398.611" y="95.9287">&#171;control&#187;</text><text fill="#000000" font-family="sans-serif" font-size="14" lengthAdjust="spacing" textLength="168.0615" x="342.8517" y="111.7539">QLKhachHangController</text><line style="stroke:#181818;stroke-width:0.5;" x1="279.96" x2="541.461" y1="120.0556" y2="120.0556"/><line style="stroke:#181818;stroke-width:0.5;" x1="279.96" x2="541.461" y1="128.0556" y2="128.0556"/><text fill="#000000" font-family="sans-serif" font-size="14" lengthAdjust="spacing" textLength="194.6191" x="284.96" y="145.0507">+layDanhSachKhachHang()</text><text fill="#000000" font-family="sans-serif" font-size="14" lengthAdjust="spacing" textLength="251.501" x="284.96" y="161.3476">+layChiTietKhachHang(customerId)</text></g><!--class CUSTOMERS--><g class="entity" data-qualified-name="CUSTOMERS" data-source-line="17" id="ent0003"><rect fill="#F1F1F1" height="121.4531" rx="2.5" ry="2.5" style="stroke:#181818;stroke-width:0.5;" width="205.0879" x="1300.17" y="63.5"/><ellipse cx="1354.4542" cy="83.6328" fill="#C2C2C2" rx="11" ry="11" style="stroke:#181818;stroke-width:1;"/><path d="M1357.4229,89.2734 Q1356.8448,89.5703 1356.2042,89.7109 Q1355.5636,89.8672 1354.8604,89.8672 Q1352.3604,89.8672 1351.0323,88.2266 Q1349.7198,86.5703 1349.7198,83.4453 Q1349.7198,80.3203 1351.0323,78.6641 Q1352.3604,77.0078 1354.8604,77.0078 Q1355.5636,77.0078 1356.2042,77.1641 Q1356.8604,77.3203 1357.4229,77.6172 L1357.4229,80.3359 Q1356.7979,79.7578 1356.2042,79.4922 Q1355.6104,79.2109 1354.9854,79.2109 Q1353.6417,79.2109 1352.9542,80.2891 Q1352.2667,81.3516 1352.2667,83.4453 Q1352.2667,85.5391 1352.9542,86.6172 Q1353.6417,87.6797 1354.9854,87.6797 Q1355.6104,87.6797 1356.2042,87.4141 Q1356.7979,87.1328 1357.4229,86.5547 L1357.4229,89.2734 Z " fill="#000000"/><text fill="#000000" font-family="sans-serif" font-size="12" font-style="italic" lengthAdjust="spacing" textLength="49.5176" x="1394.2052" y="79.6387">&#171;entity&#187;</text><text fill="#000000" font-family="sans-serif" font-size="14" lengthAdjust="spacing" textLength="88.0195" x="1374.9542" y="95.4639">CUSTOMERS</text><line style="stroke:#181818;stroke-width:0.5;" x1="1301.17" x2="1504.2579" y1="103.7656" y2="103.7656"/><text fill="#000000" font-family="sans-serif" font-size="14" lengthAdjust="spacing" textLength="99.1758" x="1306.17" y="120.7607">-stage : ENUM</text><line style="stroke:#181818;stroke-width:0.5;" x1="1301.17" x2="1504.2579" y1="128.0625" y2="128.0625"/><text fill="#000000" font-family="sans-serif" font-size="14" lengthAdjust="spacing" textLength="128.6729" x="1306.17" y="145.0576">-id : VARCHAR(36)</text><text fill="#000000" font-family="sans-serif" font-size="14" lengthAdjust="spacing" textLength="193.0879" x="1306.17" y="161.3545">-full_name : VARCHAR(255)</text><text fill="#000000" font-family="sans-serif" font-size="14" lengthAdjust="spacing" textLength="159.708" x="1306.17" y="177.6514">-phone : VARCHAR(50)</text></g><!--class CUSTOMER_NOTES--><g class="entity" data-qualified-name="CUSTOMER_NOTES" data-source-line="24" id="ent0004"><rect fill="#F1F1F1" height="105.1563" rx="2.5" ry="2.5" style="stroke:#181818;stroke-width:0.5;" width="213.5986" x="1051.92" y="71.65"/><ellipse cx="1088.3803" cy="91.7828" fill="#C2C2C2" rx="11" ry="11" style="stroke:#181818;stroke-width:1;"/><path d="M1091.349,97.4234 Q1090.7709,97.7203 1090.1303,97.8609 Q1089.4896,98.0172 1088.7865,98.0172 Q1086.2865,98.0172 1084.9584,96.3766 Q1083.6459,94.7203 1083.6459,91.5953 Q1083.6459,88.4703 1084.9584,86.8141 Q1086.2865,85.1578 1088.7865,85.1578 Q1089.4896,85.1578 1090.1303,85.3141 Q1090.7865,85.4703 1091.349,85.7672 L1091.349,88.4859 Q1090.724,87.9078 1090.1303,87.6422 Q1089.5365,87.3609 1088.9115,87.3609 Q1087.5678,87.3609 1086.8803,88.4391 Q1086.1928,89.5016 1086.1928,91.5953 Q1086.1928,93.6891 1086.8803,94.7672 Q1087.5678,95.8297 1088.9115,95.8297 Q1089.5365,95.8297 1090.1303,95.5641 Q1090.724,95.2828 1091.349,94.7047 L1091.349,97.4234 Z " fill="#000000"/><text fill="#000000" font-family="sans-serif" font-size="12" font-style="italic" lengthAdjust="spacing" textLength="49.5176" x="1149.345" y="87.7887">&#171;entity&#187;</text><text fill="#000000" font-family="sans-serif" font-size="14" lengthAdjust="spacing" textLength="133.9092" x="1107.1492" y="103.6139">CUSTOMER_NOTES</text><line style="stroke:#181818;stroke-width:0.5;" x1="1052.92" x2="1264.5186" y1="111.9156" y2="111.9156"/><text fill="#000000" font-family="sans-serif" font-size="14" lengthAdjust="spacing" textLength="107.8096" x="1057.92" y="128.9107">-content : TEXT</text><line style="stroke:#181818;stroke-width:0.5;" x1="1052.92" x2="1264.5186" y1="136.2125" y2="136.2125"/><text fill="#000000" font-family="sans-serif" font-size="14" lengthAdjust="spacing" textLength="128.6729" x="1057.92" y="153.2076">-id : VARCHAR(36)</text><text fill="#000000" font-family="sans-serif" font-size="14" lengthAdjust="spacing" textLength="201.5986" x="1057.92" y="169.5045">-customer_id : VARCHAR(36)</text></g><!--class APPOINTMENTS--><g class="entity" data-qualified-name="APPOINTMENTS" data-source-line="30" id="ent0005"><rect fill="#F1F1F1" height="105.1563" rx="2.5" ry="2.5" style="stroke:#181818;stroke-width:0.5;" width="240.1631" x="776.63" y="71.65"/><ellipse cx="837.7262" cy="91.7828" fill="#C2C2C2" rx="11" ry="11" style="stroke:#181818;stroke-width:1;"/><path d="M840.6949,97.4234 Q840.1168,97.7203 839.4762,97.8609 Q838.8356,98.0172 838.1324,98.0172 Q835.6324,98.0172 834.3043,96.3766 Q832.9918,94.7203 832.9918,91.5953 Q832.9918,88.4703 834.3043,86.8141 Q835.6324,85.1578 838.1324,85.1578 Q838.8356,85.1578 839.4762,85.3141 Q840.1324,85.4703 840.6949,85.7672 L840.6949,88.4859 Q840.0699,87.9078 839.4762,87.6422 Q838.8824,87.3609 838.2574,87.3609 Q836.9137,87.3609 836.2262,88.4391 Q835.5387,89.5016 835.5387,91.5953 Q835.5387,93.6891 836.2262,94.7672 Q836.9137,95.8297 838.2574,95.8297 Q838.8824,95.8297 839.4762,95.5641 Q840.0699,95.2828 840.6949,94.7047 L840.6949,97.4234 Z " fill="#000000"/><text fill="#000000" font-family="sans-serif" font-size="12" font-style="italic" lengthAdjust="spacing" textLength="49.5176" x="888.2028" y="87.7887">&#171;entity&#187;</text><text fill="#000000" font-family="sans-serif" font-size="14" lengthAdjust="spacing" textLength="109.4707" x="858.2262" y="103.6139">APPOINTMENTS</text><line style="stroke:#181818;stroke-width:0.5;" x1="777.63" x2="1015.7931" y1="111.9156" y2="111.9156"/><text fill="#000000" font-family="sans-serif" font-size="14" lengthAdjust="spacing" textLength="228.1631" x="782.63" y="128.9107">-appointment_date : TIMESTAMP</text><text fill="#000000" font-family="sans-serif" font-size="14" lengthAdjust="spacing" textLength="103.332" x="782.63" y="145.2076">-status : ENUM</text><line style="stroke:#181818;stroke-width:0.5;" x1="777.63" x2="1015.7931" y1="152.5094" y2="152.5094"/><text fill="#000000" font-family="sans-serif" font-size="14" lengthAdjust="spacing" textLength="128.6729" x="782.63" y="169.5045">-id : VARCHAR(36)</text></g><!--class CHAT_MESSAGES--><g class="entity" data-qualified-name="CHAT_MESSAGES" data-source-line="36" id="ent0006"><rect fill="#F1F1F1" height="88.8594" rx="2.5" ry="2.5" style="stroke:#181818;stroke-width:0.5;" width="164.0039" x="577.71" y="79.79"/><ellipse cx="597.0821" cy="99.9228" fill="#C2C2C2" rx="11" ry="11" style="stroke:#181818;stroke-width:1;"/><path d="M600.0509,105.5634 Q599.4727,105.8603 598.8321,106.0009 Q598.1915,106.1572 597.4884,106.1572 Q594.9884,106.1572 593.6602,104.5166 Q592.3477,102.8603 592.3477,99.7353 Q592.3477,96.6103 593.6602,94.9541 Q594.9884,93.2978 597.4884,93.2978 Q598.1915,93.2978 598.8321,93.4541 Q599.4884,93.6103 600.0509,93.9072 L600.0509,96.6259 Q599.4259,96.0478 598.8321,95.7822 Q598.2384,95.5009 597.6134,95.5009 Q596.2696,95.5009 595.5821,96.5791 Q594.8946,97.6416 594.8946,99.7353 Q594.8946,101.8291 595.5821,102.9072 Q596.2696,103.9697 597.6134,103.9697 Q598.2384,103.9697 598.8321,103.7041 Q599.4259,103.4228 600.0509,102.8447 L600.0509,105.5634 Z " fill="#000000"/><text fill="#000000" font-family="sans-serif" font-size="12" font-style="italic" lengthAdjust="spacing" textLength="49.5176" x="648.439" y="95.9287">&#171;entity&#187;</text><text fill="#000000" font-family="sans-serif" font-size="14" lengthAdjust="spacing" textLength="122.2881" x="612.0537" y="111.7539">CHAT_MESSAGES</text><line style="stroke:#181818;stroke-width:0.5;" x1="578.71" x2="740.7139" y1="120.0556" y2="120.0556"/><text fill="#000000" font-family="sans-serif" font-size="14" lengthAdjust="spacing" textLength="152.0039" x="583.71" y="137.0507">-message_text : TEXT</text><line style="stroke:#181818;stroke-width:0.5;" x1="578.71" x2="740.7139" y1="144.3525" y2="144.3525"/><text fill="#000000" font-family="sans-serif" font-size="14" lengthAdjust="spacing" textLength="128.6729" x="583.71" y="161.3476">-id : VARCHAR(36)</text></g><!--link QLKhachHangUI to QLKhachHangController--><g class="link" data-entity-1="ent0001" data-entity-2="ent0002" data-link-type="association" data-source-line="41" id="lnk7"><path codeLine="41" d="M244.84,124.22 C256.07,124.22 267.3,124.22 278.53,124.22" fill="none" id="QLKhachHangUI-QLKhachHangController" style="stroke:#181818;stroke-width:1;"/><text fill="#000000" font-family="sans-serif" font-size="13" lengthAdjust="spacing" textLength="8.271" x="252.3512" y="120.8335">1</text><text fill="#000000" font-family="sans-serif" font-size="13" lengthAdjust="spacing" textLength="8.271" x="262.6649" y="120.8572">1</text></g><!--link QLKhachHangController to CUSTOMERS--><g class="link" data-entity-1="ent0002" data-entity-2="ent0003" data-link-type="association" data-source-line="42" id="lnk8"><path codeLine="42" d="M474.79,79.52 C504.5,61.43 541.17,42.68 577.21,33.5 C651.29,14.62 1192,11.52 1265.21,33.5 C1286.72,39.95 1307.96,50.98 1327.08,63.17" fill="none" id="QLKhachHangController-CUSTOMERS" style="stroke:#181818;stroke-width:1;"/><text fill="#000000" font-family="sans-serif" font-size="13" lengthAdjust="spacing" textLength="8.271" x="476.0104" y="68.604">1</text><text fill="#000000" font-family="sans-serif" font-size="13" lengthAdjust="spacing" textLength="8.2393" x="1309.8862" y="52.3177">n</text></g><!--link QLKhachHangController to CUSTOMER_NOTES--><g class="link" data-entity-1="ent0002" data-entity-2="ent0004" data-link-type="association" data-source-line="43" id="lnk9"><path codeLine="43" d="M474.79,79.52 C504.5,61.43 541.17,42.68 577.21,33.5 C671.97,9.36 923.38,6 1017.21,33.5 C1043.96,41.33 1070.44,55.95 1093.13,71.2" fill="none" id="QLKhachHangController-CUSTOMER_NOTES" style="stroke:#181818;stroke-width:1;"/><text fill="#000000" font-family="sans-serif" font-size="13" lengthAdjust="spacing" textLength="8.271" x="485.2354" y="68.604">1</text><text fill="#000000" font-family="sans-serif" font-size="13" lengthAdjust="spacing" textLength="8.2393" x="1076.2292" y="60.5202">n</text></g><!--link QLKhachHangController to APPOINTMENTS--><g class="link" data-entity-1="ent0002" data-entity-2="ent0005" data-link-type="association" data-source-line="44" id="lnk10"><path codeLine="44" d="M474.79,79.52 C504.5,61.43 541.17,42.68 577.21,33.5 C648.28,15.39 671.45,14.26 742.21,33.5 C770.88,41.29 799.66,55.9 824.48,71.15" fill="none" id="QLKhachHangController-APPOINTMENTS" style="stroke:#181818;stroke-width:1;"/><text fill="#000000" font-family="sans-serif" font-size="13" lengthAdjust="spacing" textLength="8.271" x="476.0104" y="68.604">1</text><text fill="#000000" font-family="sans-serif" font-size="13" lengthAdjust="spacing" textLength="8.2393" x="806.7282" y="60.4638">n</text></g><!--link QLKhachHangController to CHAT_MESSAGES--><g class="link" data-entity-1="ent0002" data-entity-2="ent0006" data-link-type="association" data-source-line="45" id="lnk11"><path codeLine="45" d="M542.51,124.22 C554.11,124.22 565.71,124.22 577.3,124.22" fill="none" id="QLKhachHangController-CHAT_MESSAGES" style="stroke:#181818;stroke-width:1;"/><text fill="#000000" font-family="sans-serif" font-size="13" lengthAdjust="spacing" textLength="8.271" x="550.3687" y="120.8572">1</text><text fill="#000000" font-family="sans-serif" font-size="13" lengthAdjust="spacing" textLength="8.2393" x="561.3449" y="120.6016">n</text></g><?plantuml-src ZP9DIyD048Rl-HLBJnKfLAKUf1H233ROf1_PYhUmJRRTnMGsx6xGAlvtD-bNj97c4iWyC_E-CplgZKDE9CbG9a34J8gC8YqBQgaZKOmauft31gr9gkeaJebIjjQIhmfDlLX0o3yfwbjMHT1yyin8pCO4DaiF3OShKK12v7OqGbyMGjSn4p0l24osnxpkLGaOfu0PVoJ0GWF-qBAikS1X77Egw_2xmOmZG4kHfbGQK_7kv-0f9Tj_P0qvwnyNIfkLII-fAJdB44zzTn6QxXGqruU1Upn13-Z5NZXZUz6zko_RzjP5caP0pDvFw7Omg5Xk9gt71_qgh3JPb64tMFhdib4mnMuxxOFzg16QnPWM1c3t5PzqxDbiwWNOTmFSJeNakU2WCvCP9KINph7dko6s_Tb-75seytd6DevCMcW_jHmdeqgPpKIQVjHj_px3paq7zQfluqLOpNUohuBEwNLRP-uUv69wVQ-NUzUNymC0?></g></svg>