<svg xmlns="http://www.w3.org/2000/svg" xmlns:xlink="http://www.w3.org/1999/xlink" contentStyleType="text/css" data-diagram-type="CLASS" height="208px" preserveAspectRatio="none" style="width:823px;height:208px;background:#FFFFFF;" version="1.1" viewBox="0 0 823 208" width="823px" zoomAndPan="magnify"><?plantuml 1.2026.5?><defs/><g><!--class DangNhapUI--><g class="entity" data-qualified-name="DangNhapUI" data-source-line="5" id="ent0001"><rect fill="#F1F1F1" height="137.75" rx="2.5" ry="2.5" style="stroke:#181818;stroke-width:0.5;" width="227.4346" x="7" y="31.44"/><ellipse cx="72.314" cy="51.5728" fill="#C2C2C2" rx="11" ry="11" style="stroke:#181818;stroke-width:1;"/><path d="M75.2827,57.2134 Q74.7046,57.5103 74.064,57.6509 Q73.4233,57.8072 72.7202,57.8072 Q70.2202,57.8072 68.8921,56.1666 Q67.5796,54.5103 67.5796,51.3853 Q67.5796,48.2603 68.8921,46.6041 Q70.2202,44.9478 72.7202,44.9478 Q73.4233,44.9478 74.064,45.1041 Q74.7202,45.2603 75.2827,45.5572 L75.2827,48.2759 Q74.6577,47.6978 74.064,47.4322 Q73.4702,47.1509 72.8452,47.1509 Q71.5015,47.1509 70.814,48.2291 Q70.1265,49.2916 70.1265,51.3853 Q70.1265,53.4791 70.814,54.5572 Q71.5015,55.6197 72.8452,55.6197 Q73.4702,55.6197 74.064,55.3541 Q74.6577,55.0728 75.2827,54.4947 L75.2827,57.2134 Z " fill="#000000"/><text fill="#000000" font-family="sans-serif" font-size="12" font-style="italic" lengthAdjust="spacing" textLength="71.8594" x="101.0376" y="47.5787">&#171;boundary&#187;</text><text fill="#000000" font-family="sans-serif" font-size="14" lengthAdjust="spacing" textLength="88.3066" x="92.814" y="63.4039">DangNhapUI</text><line style="stroke:#181818;stroke-width:0.5;" x1="8" x2="233.4346" y1="71.7056" y2="71.7056"/><line style="stroke:#181818;stroke-width:0.5;" x1="8" x2="233.4346" y1="79.7056" y2="79.7056"/><text fill="#000000" font-family="sans-serif" font-size="14" lengthAdjust="spacing" textLength="164.0283" x="13" y="96.7007">+chonIconNguoiDung()</text><text fill="#000000" font-family="sans-serif" font-size="14" lengthAdjust="spacing" textLength="209.8428" x="13" y="112.9976">+hienThiManHinhDangNhap()</text><text fill="#000000" font-family="sans-serif" font-size="14" lengthAdjust="spacing" textLength="158.3613" x="13" y="129.2945">+nhapEmailMatKhau()</text><text fill="#000000" font-family="sans-serif" font-size="14" lengthAdjust="spacing" textLength="149.9873" x="13" y="145.5914">+kichNutDangNhap()</text><text fill="#000000" font-family="sans-serif" font-size="14" lengthAdjust="spacing" textLength="215.4346" x="13" y="161.8882">+hienThiManHinhTheoVaiTro()</text></g><!--class DangNhapController--><g class="entity" data-qualified-name="DangNhapController" data-source-line="13" id="ent0002"><rect fill="#F1F1F1" height="88.8594" rx="2.5" ry="2.5" style="stroke:#181818;stroke-width:0.5;" width="299.7861" x="269.82" y="55.89"/><ellipse cx="343.9113" cy="76.0228" fill="#C2C2C2" rx="11" ry="11" style="stroke:#181818;stroke-width:1;"/><path d="M346.8801,81.6634 Q346.3019,81.9603 345.6613,82.1009 Q345.0207,82.2572 344.3176,82.2572 Q341.8176,82.2572 340.4894,80.6166 Q339.1769,78.9603 339.1769,75.8353 Q339.1769,72.7103 340.4894,71.0541 Q341.8176,69.3978 344.3176,69.3978 Q345.0207,69.3978 345.6613,69.5541 Q346.3176,69.7103 346.8801,70.0072 L346.8801,72.7259 Q346.2551,72.1478 345.6613,71.8822 Q345.0676,71.6009 344.4426,71.6009 Q343.0988,71.6009 342.4113,72.6791 Q341.7238,73.7416 341.7238,75.8353 Q341.7238,77.9291 342.4113,79.0072 Q343.0988,80.0697 344.4426,80.0697 Q345.0676,80.0697 345.6613,79.8041 Q346.2551,79.5228 346.8801,78.9447 L346.8801,81.6634 Z " fill="#000000"/><text fill="#000000" font-family="sans-serif" font-size="12" font-style="italic" lengthAdjust="spacing" textLength="56.543" x="407.6916" y="72.0287">&#171;control&#187;</text><text fill="#000000" font-family="sans-serif" font-size="14" lengthAdjust="spacing" textLength="143.1035" x="364.4113" y="87.8539">DangNhapController</text><line style="stroke:#181818;stroke-width:0.5;" x1="270.82" x2="568.6061" y1="96.1556" y2="96.1556"/><line style="stroke:#181818;stroke-width:0.5;" x1="270.82" x2="568.6061" y1="104.1556" y2="104.1556"/><text fill="#000000" font-family="sans-serif" font-size="14" lengthAdjust="spacing" textLength="287.7861" x="275.82" y="121.1507">+layThongTinTaiKhoan(email, password)</text><text fill="#000000" font-family="sans-serif" font-size="14" lengthAdjust="spacing" textLength="141.4424" x="275.82" y="137.4476">+kiemTraMatKhau()</text></g><!--class USERS--><g class="entity" data-qualified-name="USERS" data-source-line="18" id="ent0003"><rect fill="#F1F1F1" height="186.6406" rx="2.5" ry="2.5" style="stroke:#181818;stroke-width:0.5;" width="203.5156" x="604.96" y="7"/><ellipse cx="679.1709" cy="27.1328" fill="#C2C2C2" rx="11" ry="11" style="stroke:#181818;stroke-width:1;"/><path d="M682.1397,32.7734 Q681.5616,33.0703 680.9209,33.2109 Q680.2803,33.3672 679.5772,33.3672 Q677.0772,33.3672 675.7491,31.7266 Q674.4366,30.0703 674.4366,26.9453 Q674.4366,23.8203 675.7491,22.1641 Q677.0772,20.5078 679.5772,20.5078 Q680.2803,20.5078 680.9209,20.6641 Q681.5772,20.8203 682.1397,21.1172 L682.1397,23.8359 Q681.5147,23.2578 680.9209,22.9922 Q680.3272,22.7109 679.7022,22.7109 Q678.3584,22.7109 677.6709,23.7891 Q676.9834,24.8516 676.9834,26.9453 Q676.9834,29.0391 677.6709,30.1172 Q678.3584,31.1797 679.7022,31.1797 Q680.3272,31.1797 680.9209,30.9141 Q681.5147,30.6328 682.1397,30.0547 L682.1397,32.7734 Z " fill="#000000"/><text fill="#000000" font-family="sans-serif" font-size="12" font-style="italic" lengthAdjust="spacing" textLength="49.5176" x="698.209" y="23.1387">&#171;entity&#187;</text><text fill="#000000" font-family="sans-serif" font-size="14" lengthAdjust="spacing" textLength="46.5938" x="699.6709" y="38.9639">USERS</text><line style="stroke:#181818;stroke-width:0.5;" x1="605.96" x2="807.4756" y1="47.2656" y2="47.2656"/><text fill="#000000" font-family="sans-serif" font-size="14" lengthAdjust="spacing" textLength="87.1377" x="610.96" y="64.2607">-role : ENUM</text><text fill="#000000" font-family="sans-serif" font-size="14" lengthAdjust="spacing" textLength="103.332" x="610.96" y="80.5576">-status : ENUM</text><line style="stroke:#181818;stroke-width:0.5;" x1="605.96" x2="807.4756" y1="87.8594" y2="87.8594"/><text fill="#000000" font-family="sans-serif" font-size="14" lengthAdjust="spacing" textLength="128.6729" x="610.96" y="104.8545">-id : VARCHAR(36)</text><text fill="#000000" font-family="sans-serif" font-size="14" lengthAdjust="spacing" textLength="163.4131" x="610.96" y="121.1514">-email : VARCHAR(255)</text><text fill="#000000" font-family="sans-serif" font-size="14" lengthAdjust="spacing" textLength="191.5156" x="610.96" y="137.4482">-password : VARCHAR(255)</text><text fill="#000000" font-family="sans-serif" font-size="14" lengthAdjust="spacing" textLength="84.4854" x="610.96" y="153.7451">+getEmail()</text><text fill="#000000" font-family="sans-serif" font-size="14" lengthAdjust="spacing" textLength="111.9111" x="610.96" y="170.042">+getPassword()</text><text fill="#000000" font-family="sans-serif" font-size="14" lengthAdjust="spacing" textLength="76.4395" x="610.96" y="186.3389">+getRole()</text></g><!--link DangNhapUI to DangNhapController--><g class="link" data-entity-1="ent0001" data-entity-2="ent0002" data-link-type="association" data-source-line="29" id="lnk4"><path codeLine="29" d="M234.89,100.32 C246.44,100.32 257.99,100.32 269.54,100.32" fill="none" id="DangNhapUI-DangNhapController" style="stroke:#181818;stroke-width:1;"/><text fill="#000000" font-family="sans-serif" font-size="13" lengthAdjust="spacing" textLength="8.271" x="242.4691" y="96.911">1</text><text fill="#000000" font-family="sans-serif" font-size="13" lengthAdjust="spacing" textLength="8.271" x="253.5974" y="97.0036">1</text></g><!--link DangNhapController to USERS--><g class="link" data-entity-1="ent0002" data-entity-2="ent0003" data-link-type="association" data-source-line="30" id="lnk5"><path codeLine="30" d="M569.94,100.32 C581.52,100.32 593.1,100.32 604.67,100.32" fill="none" id="DangNhapController-USERS" style="stroke:#181818;stroke-width:1;"/><text fill="#000000" font-family="sans-serif" font-size="13" lengthAdjust="spacing" textLength="8.271" x="577.4169" y="97.0268">1</text><text fill="#000000" font-family="sans-serif" font-size="13" lengthAdjust="spacing" textLength="8.2393" x="588.5599" y="96.8177">n</text></g><?plantuml-src RP5RQy9048NVyoiMdonMw0NxK4GG5HGnb1Xz7vDjTZ2PaRqWjlI_TvEOgAqloyuvksU-dJLxf0DeA4J1n8dIN4XXjPE1QHsZ8EKZKYO-8JVNJfA3CMDhDUwSbOk4QOrVKZm5GUM8AL0MAZXi5c8utB6Z5FHfD1BVWH2zH36LLyBCCKuTPTs7KbOeALQu0feZgIQXziZlPWLWlWAxLE1gTO-92fszFNeR4ol9My1OitT__k9DcApcF9VQOoPrqL3cS8ezQ1OZnO1BnK1TMI8yYeFFEB9Epn2oY3LSmDekc_KiMljWIHPjy_e-fk9TRCVHP3wEkgzlPKQ_ohsINmQ3IcyQtR4ygVJoBDoioj9OiCvSX5ucRJMmUYY--ZXdjKBa4shSgz_gF7T4lrh_poYuCxRpUUhKh_q5?></g></svg>