<svg xmlns="http://www.w3.org/2000/svg" xmlns:xlink="http://www.w3.org/1999/xlink" contentStyleType="text/css" data-diagram-type="CLASS" height="209px" preserveAspectRatio="none" style="width:887px;height:209px;background:#FFFFFF;" version="1.1" viewBox="0 0 887 209" width="887px" zoomAndPan="magnify"><?plantuml 1.2026.5?><defs/><g><!--class QLXeUI--><g class="entity" data-qualified-name="QLXeUI" data-source-line="5" id="ent0001"><rect fill="#F1F1F1" height="137.75" rx="2.5" ry="2.5" style="stroke:#181818;stroke-width:0.5;" width="236.5674" x="7" y="56.75"/><ellipse cx="87.104" cy="76.8828" fill="#C2C2C2" rx="11" ry="11" style="stroke:#181818;stroke-width:1;"/><path d="M90.0728,82.5234 Q89.4946,82.8203 88.854,82.9609 Q88.2134,83.1172 87.5103,83.1172 Q85.0103,83.1172 83.6821,81.4766 Q82.3696,79.8203 82.3696,76.6953 Q82.3696,73.5703 83.6821,71.9141 Q85.0103,70.2578 87.5103,70.2578 Q88.2134,70.2578 88.854,70.4141 Q89.5103,70.5703 90.0728,70.8672 L90.0728,73.5859 Q89.4478,73.0078 88.854,72.7422 Q88.2603,72.4609 87.6353,72.4609 Q86.2915,72.4609 85.604,73.5391 Q84.9165,74.6016 84.9165,76.6953 Q84.9165,78.7891 85.604,79.8672 Q86.2915,80.9297 87.6353,80.9297 Q88.2603,80.9297 88.854,80.6641 Q89.4478,80.3828 90.0728,79.8047 L90.0728,82.5234 Z " fill="#000000"/><text fill="#000000" font-family="sans-serif" font-size="12" font-style="italic" lengthAdjust="spacing" textLength="71.8594" x="105.604" y="72.8887">&#171;boundary&#187;</text><text fill="#000000" font-family="sans-serif" font-size="14" lengthAdjust="spacing" textLength="51.3994" x="115.834" y="88.7139">QLXeUI</text><line style="stroke:#181818;stroke-width:0.5;" x1="8" x2="242.5674" y1="97.0156" y2="97.0156"/><line style="stroke:#181818;stroke-width:0.5;" x1="8" x2="242.5674" y1="105.0156" y2="105.0156"/><text fill="#000000" font-family="sans-serif" font-size="14" lengthAdjust="spacing" textLength="128.2969" x="13" y="122.0107">+chonQuanLyXe()</text><text fill="#000000" font-family="sans-serif" font-size="14" lengthAdjust="spacing" textLength="163.5635" x="13" y="138.3076">+hienThiDanhSachXe()</text><text fill="#000000" font-family="sans-serif" font-size="14" lengthAdjust="spacing" textLength="141.1348" x="13" y="154.6045">+nhapThongTinXe()</text><text fill="#000000" font-family="sans-serif" font-size="14" lengthAdjust="spacing" textLength="119.8066" x="13" y="170.9014">+kichNutLuuXe()</text><text fill="#000000" font-family="sans-serif" font-size="14" lengthAdjust="spacing" textLength="224.5674" x="13" y="187.1982">+hienThiThongBaoThanhCong()</text></g><!--class QLXeController--><g class="entity" data-qualified-name="QLXeController" data-source-line="13" id="ent0002"><rect fill="#F1F1F1" height="88.8594" rx="2.5" ry="2.5" style="stroke:#181818;stroke-width:0.5;" width="205.874" x="278.35" y="81.2"/><ellipse cx="323.9389" cy="101.3328" fill="#C2C2C2" rx="11" ry="11" style="stroke:#181818;stroke-width:1;"/><path d="M326.9076,106.9734 Q326.3295,107.2703 325.6889,107.4109 Q325.0482,107.5672 324.3451,107.5672 Q321.8451,107.5672 320.517,105.9266 Q319.2045,104.2703 319.2045,101.1453 Q319.2045,98.0203 320.517,96.3641 Q321.8451,94.7078 324.3451,94.7078 Q325.0482,94.7078 325.6889,94.8641 Q326.3451,95.0203 326.9076,95.3172 L326.9076,98.0359 Q326.2826,97.4578 325.6889,97.1922 Q325.0951,96.9109 324.4701,96.9109 Q323.1264,96.9109 322.4389,97.9891 Q321.7514,99.0516 321.7514,101.1453 Q321.7514,103.2391 322.4389,104.3172 Q323.1264,105.3797 324.4701,105.3797 Q325.0951,105.3797 325.6889,105.1141 Q326.2826,104.8328 326.9076,104.2547 L326.9076,106.9734 Z " fill="#000000"/><text fill="#000000" font-family="sans-serif" font-size="12" font-style="italic" lengthAdjust="spacing" textLength="56.543" x="369.2655" y="97.3387">&#171;control&#187;</text><text fill="#000000" font-family="sans-serif" font-size="14" lengthAdjust="spacing" textLength="106.1963" x="344.4389" y="113.1639">QLXeController</text><line style="stroke:#181818;stroke-width:0.5;" x1="279.35" x2="483.224" y1="121.4656" y2="121.4656"/><line style="stroke:#181818;stroke-width:0.5;" x1="279.35" x2="483.224" y1="129.4656" y2="129.4656"/><text fill="#000000" font-family="sans-serif" font-size="14" lengthAdjust="spacing" textLength="132.7539" x="284.35" y="146.4607">+layDanhSachXe()</text><text fill="#000000" font-family="sans-serif" font-size="14" lengthAdjust="spacing" textLength="193.874" x="284.35" y="162.7576">+luuThongTinXe(formData)</text></g><!--class CARS--><g class="entity" data-qualified-name="CARS" data-source-line="18" id="ent0003"><rect fill="#F1F1F1" height="121.4531" rx="2.5" ry="2.5" style="stroke:#181818;stroke-width:0.5;" width="177.7852" x="694.39" y="64.9"/><ellipse cx="756.2738" cy="85.0328" fill="#C2C2C2" rx="11" ry="11" style="stroke:#181818;stroke-width:1;"/><path d="M759.2425,90.6734 Q758.6644,90.9703 758.0238,91.1109 Q757.3832,91.2672 756.68,91.2672 Q754.18,91.2672 752.8519,89.6266 Q751.5394,87.9703 751.5394,84.8453 Q751.5394,81.7203 752.8519,80.0641 Q754.18,78.4078 756.68,78.4078 Q757.3832,78.4078 758.0238,78.5641 Q758.68,78.7203 759.2425,79.0172 L759.2425,81.7359 Q758.6175,81.1578 758.0238,80.8922 Q757.43,80.6109 756.805,80.6109 Q755.4613,80.6109 754.7738,81.6891 Q754.0863,82.7516 754.0863,84.8453 Q754.0863,86.9391 754.7738,88.0172 Q755.4613,89.0797 756.805,89.0797 Q757.43,89.0797 758.0238,88.8141 Q758.6175,88.5328 759.2425,87.9547 L759.2425,90.6734 Z " fill="#000000"/><text fill="#000000" font-family="sans-serif" font-size="12" font-style="italic" lengthAdjust="spacing" textLength="49.5176" x="774.7738" y="81.0387">&#171;entity&#187;</text><text fill="#000000" font-family="sans-serif" font-size="14" lengthAdjust="spacing" textLength="37.9668" x="780.5492" y="96.8639">CARS</text><line style="stroke:#181818;stroke-width:0.5;" x1="695.39" x2="871.1752" y1="105.1656" y2="105.1656"/><text fill="#000000" font-family="sans-serif" font-size="14" lengthAdjust="spacing" textLength="101.2471" x="700.39" y="122.1607">-price : BIGINT</text><line style="stroke:#181818;stroke-width:0.5;" x1="695.39" x2="871.1752" y1="129.4625" y2="129.4625"/><text fill="#000000" font-family="sans-serif" font-size="14" lengthAdjust="spacing" textLength="128.6729" x="700.39" y="146.4576">-id : VARCHAR(36)</text><text fill="#000000" font-family="sans-serif" font-size="14" lengthAdjust="spacing" textLength="152.1748" x="700.39" y="162.7545">-title : VARCHAR(255)</text><text fill="#000000" font-family="sans-serif" font-size="14" lengthAdjust="spacing" textLength="165.7852" x="700.39" y="179.0514">-brand : VARCHAR(100)</text></g><!--class CAR_IMAGES--><g class="entity" data-qualified-name="CAR_IMAGES" data-source-line="25" id="ent0004"><rect fill="#F1F1F1" height="88.8594" rx="2.5" ry="2.5" style="stroke:#181818;stroke-width:0.5;" width="140.6729" x="518.95" y="81.2"/><ellipse cx="542.152" cy="101.3328" fill="#C2C2C2" rx="11" ry="11" style="stroke:#181818;stroke-width:1;"/><path d="M545.1207,106.9734 Q544.5426,107.2703 543.902,107.4109 Q543.2613,107.5672 542.5582,107.5672 Q540.0582,107.5672 538.7301,105.9266 Q537.4176,104.2703 537.4176,101.1453 Q537.4176,98.0203 538.7301,96.3641 Q540.0582,94.7078 542.5582,94.7078 Q543.2613,94.7078 543.902,94.8641 Q544.5582,95.0203 545.1207,95.3172 L545.1207,98.0359 Q544.4957,97.4578 543.902,97.1922 Q543.3082,96.9109 542.6832,96.9109 Q541.3395,96.9109 540.652,97.9891 Q539.9645,99.0516 539.9645,101.1453 Q539.9645,103.2391 540.652,104.3172 Q541.3395,105.3797 542.6832,105.3797 Q543.3082,105.3797 543.902,105.1141 Q544.4957,104.8328 545.1207,104.2547 L545.1207,106.9734 Z " fill="#000000"/><text fill="#000000" font-family="sans-serif" font-size="12" font-style="italic" lengthAdjust="spacing" textLength="49.5176" x="578.439" y="97.3387">&#171;entity&#187;</text><text fill="#000000" font-family="sans-serif" font-size="14" lengthAdjust="spacing" textLength="90.4463" x="557.9746" y="113.1639">CAR_IMAGES</text><line style="stroke:#181818;stroke-width:0.5;" x1="519.95" x2="658.6229" y1="121.4656" y2="121.4656"/><text fill="#000000" font-family="sans-serif" font-size="14" lengthAdjust="spacing" textLength="123.334" x="524.95" y="138.4607">-image_url : TEXT</text><line style="stroke:#181818;stroke-width:0.5;" x1="519.95" x2="658.6229" y1="145.7625" y2="145.7625"/><text fill="#000000" font-family="sans-serif" font-size="14" lengthAdjust="spacing" textLength="128.6729" x="524.95" y="162.7576">-id : VARCHAR(36)</text></g><!--link QLXeUI to QLXeController--><g class="link" data-entity-1="ent0001" data-entity-2="ent0002" data-link-type="association" data-source-line="30" id="lnk5"><path codeLine="30" d="M244.03,125.63 C255.38,125.63 266.73,125.63 278.08,125.63" fill="none" id="QLXeUI-QLXeController" style="stroke:#181818;stroke-width:1;"/><text fill="#000000" font-family="sans-serif" font-size="13" lengthAdjust="spacing" textLength="8.271" x="251.5181" y="122.2442">1</text><text fill="#000000" font-family="sans-serif" font-size="13" lengthAdjust="spacing" textLength="8.271" x="262.2169" y="122.151">1</text></g><!--link QLXeController to CARS--><g class="link" data-entity-1="ent0002" data-entity-2="ent0003" data-link-type="association" data-source-line="31" id="lnk6"><path codeLine="31" d="M428.04,80.72 C452.89,59.97 485.2,37.57 518.78,26.75 C578.43,7.53 600.65,6 659.78,26.75 C682.85,34.85 704.8,49.26 723.63,64.63" fill="none" id="QLXeController-CARS" style="stroke:#181818;stroke-width:1;"/><text fill="#000000" font-family="sans-serif" font-size="13" lengthAdjust="spacing" textLength="8.271" x="426.3392" y="70.099">1</text><text fill="#000000" font-family="sans-serif" font-size="13" lengthAdjust="spacing" textLength="8.2393" x="708.284" y="53.7847">n</text></g><!--link QLXeController to CAR_IMAGES--><g class="link" data-entity-1="ent0002" data-entity-2="ent0004" data-link-type="association" data-source-line="32" id="lnk7"><path codeLine="32" d="M484.47,125.63 C495.8,125.63 507.13,125.63 518.45,125.63" fill="none" id="QLXeController-CAR_IMAGES" style="stroke:#181818;stroke-width:1;"/><text fill="#000000" font-family="sans-serif" font-size="13" lengthAdjust="spacing" textLength="8.271" x="492.3512" y="122.151">1</text><text fill="#000000" font-family="sans-serif" font-size="13" lengthAdjust="spacing" textLength="8.2393" x="502.7448" y="121.9303">n</text></g><?plantuml-src ZL51Qy8m6BttLuIU74FG3NSO8jGghj09QZUyoMSQJJ3zKjA4qOtzzyNOZkfXx1AIzrxUUrzIdGIMeA4WXK95kLO58qPR5bI_JCKXLny2Z-G0ikeoL49LHSPeiRU69LJXHdmoCWW2pv1LkcLl2HcFzyfY3hgUJCXNGCWzvGfN5Z2jjwntTqQuO9XnCGFa6w2yXP53cJdnCHFOOYT1-TAQrDgRoruu1PLnvnAxlME_krqSPhIIacdNYLuERIK9zMsujBQJVL2wc861ZcSShJVEYQ4HffsjBtBoJDwZTVmIhNkFJsUdlkCbwy0Fev77zngmAnyE1XuljQ1d_JHP9CliAd2Nl4QB-VzYHG57jhDQEYgRRxrHyoVXC2Hzlru_J73pJeqEGp_idspJx0S0?></g></svg>