<svg xmlns="http://www.w3.org/2000/svg" xmlns:xlink="http://www.w3.org/1999/xlink" contentStyleType="text/css" data-diagram-type="CLASS" height="473px" preserveAspectRatio="none" style="width:425px;height:473px;background:#FFFFFF;" version="1.1" viewBox="0 0 425 473" width="425px" zoomAndPan="magnify"><?plantuml 1.2026.5?><defs/><g><!--class HoSoUI--><g class="entity" data-qualified-name="HoSoUI" data-source-line="5" id="ent0001"><rect fill="#F1F1F1" height="137.75" rx="2.5" ry="2.5" style="stroke:#181818;stroke-width:0.5;" width="236.5674" x="90.93" y="7"/><ellipse cx="171.034" cy="27.1328" fill="#C2C2C2" rx="11" ry="11" style="stroke:#181818;stroke-width:1;"/><path d="M174.0028,32.7734 Q173.4246,33.0703 172.784,33.2109 Q172.1434,33.3672 171.4403,33.3672 Q168.9403,33.3672 167.6121,31.7266 Q166.2996,30.0703 166.2996,26.9453 Q166.2996,23.8203 167.6121,22.1641 Q168.9403,20.5078 171.4403,20.5078 Q172.1434,20.5078 172.784,20.6641 Q173.4403,20.8203 174.0028,21.1172 L174.0028,23.8359 Q173.3778,23.2578 172.784,22.9922 Q172.1903,22.7109 171.5653,22.7109 Q170.2215,22.7109 169.534,23.7891 Q168.8465,24.8516 168.8465,26.9453 Q168.8465,29.0391 169.534,30.1172 Q170.2215,31.1797 171.5653,31.1797 Q172.1903,31.1797 172.784,30.9141 Q173.3778,30.6328 174.0028,30.0547 L174.0028,32.7734 Z " fill="#000000"/><text fill="#000000" font-family="sans-serif" font-size="12" font-style="italic" lengthAdjust="spacing" textLength="71.8594" x="189.534" y="23.1387">&#171;boundary&#187;</text><text fill="#000000" font-family="sans-serif" font-size="14" lengthAdjust="spacing" textLength="50.9209" x="200.0032" y="38.9639">HoSoUI</text><line style="stroke:#181818;stroke-width:0.5;" x1="91.93" x2="326.4974" y1="47.2656" y2="47.2656"/><line style="stroke:#181818;stroke-width:0.5;" x1="91.93" x2="326.4974" y1="55.2656" y2="55.2656"/><text fill="#000000" font-family="sans-serif" font-size="14" lengthAdjust="spacing" textLength="148.3604" x="96.93" y="72.2607">+chonHoSoCaNhan()</text><text fill="#000000" font-family="sans-serif" font-size="14" lengthAdjust="spacing" textLength="146.7744" x="96.93" y="88.5576">+hienThiFormHoSo()</text><text fill="#000000" font-family="sans-serif" font-size="14" lengthAdjust="spacing" textLength="146.2959" x="96.93" y="104.8545">+capNhatThongTin()</text><text fill="#000000" font-family="sans-serif" font-size="14" lengthAdjust="spacing" textLength="101.6025" x="96.93" y="121.1514">+kichNutLuu()</text><text fill="#000000" font-family="sans-serif" font-size="14" lengthAdjust="spacing" textLength="224.5674" x="96.93" y="137.4482">+hienThiThongBaoThanhCong()</text></g><!--class XacThucController--><g class="entity" data-qualified-name="XacThucController" data-source-line="13" id="ent0002"><rect fill="#F1F1F1" height="72.5625" rx="2.5" ry="2.5" style="stroke:#181818;stroke-width:0.5;" width="186.4326" x="7" y="204.75"/><ellipse cx="33.4289" cy="224.8828" fill="#C2C2C2" rx="11" ry="11" style="stroke:#181818;stroke-width:1;"/><path d="M36.3976,230.5234 Q35.8195,230.8203 35.1789,230.9609 Q34.5382,231.1172 33.8351,231.1172 Q31.3351,231.1172 30.007,229.4766 Q28.6945,227.8203 28.6945,224.6953 Q28.6945,221.5703 30.007,219.9141 Q31.3351,218.2578 33.8351,218.2578 Q34.5382,218.2578 35.1789,218.4141 Q35.8351,218.5703 36.3976,218.8672 L36.3976,221.5859 Q35.7726,221.0078 35.1789,220.7422 Q34.5851,220.4609 33.9601,220.4609 Q32.6164,220.4609 31.9289,221.5391 Q31.2414,222.6016 31.2414,224.6953 Q31.2414,226.7891 31.9289,227.8672 Q32.6164,228.9297 33.9601,228.9297 Q34.5851,228.9297 35.1789,228.6641 Q35.7726,228.3828 36.3976,227.8047 L36.3976,230.5234 Z " fill="#000000"/><text fill="#000000" font-family="sans-serif" font-size="12" font-style="italic" lengthAdjust="spacing" textLength="56.543" x="86.2147" y="220.8887">&#171;control&#187;</text><text fill="#000000" font-family="sans-serif" font-size="14" lengthAdjust="spacing" textLength="129.0352" x="49.9686" y="236.7139">XacThucController</text><line style="stroke:#181818;stroke-width:0.5;" x1="8" x2="192.4326" y1="245.0156" y2="245.0156"/><line style="stroke:#181818;stroke-width:0.5;" x1="8" x2="192.4326" y1="253.0156" y2="253.0156"/><text fill="#000000" font-family="sans-serif" font-size="14" lengthAdjust="spacing" textLength="174.4326" x="13" y="270.0107">+layNguoiDungHienTai()</text></g><!--class HoSoController--><g class="entity" data-qualified-name="HoSoController" data-source-line="17" id="ent0003"><rect fill="#F1F1F1" height="72.5625" rx="2.5" ry="2.5" style="stroke:#181818;stroke-width:0.5;" width="182.0234" x="228.2" y="204.75"/><ellipse cx="263.1375" cy="224.8828" fill="#C2C2C2" rx="11" ry="11" style="stroke:#181818;stroke-width:1;"/><path d="M266.1063,230.5234 Q265.5282,230.8203 264.8875,230.9609 Q264.2469,231.1172 263.5438,231.1172 Q261.0438,231.1172 259.7157,229.4766 Q258.4032,227.8203 258.4032,224.6953 Q258.4032,221.5703 259.7157,219.9141 Q261.0438,218.2578 263.5438,218.2578 Q264.2469,218.2578 264.8875,218.4141 Q265.5438,218.5703 266.1063,218.8672 L266.1063,221.5859 Q265.4813,221.0078 264.8875,220.7422 Q264.2938,220.4609 263.6688,220.4609 Q262.325,220.4609 261.6375,221.5391 Q260.95,222.6016 260.95,224.6953 Q260.95,226.7891 261.6375,227.8672 Q262.325,228.9297 263.6688,228.9297 Q264.2938,228.9297 264.8875,228.6641 Q265.4813,228.3828 266.1063,227.8047 L266.1063,230.5234 Z " fill="#000000"/><text fill="#000000" font-family="sans-serif" font-size="12" font-style="italic" lengthAdjust="spacing" textLength="56.543" x="306.1555" y="220.8887">&#171;control&#187;</text><text fill="#000000" font-family="sans-serif" font-size="14" lengthAdjust="spacing" textLength="105.7178" x="281.5681" y="236.7139">HoSoController</text><line style="stroke:#181818;stroke-width:0.5;" x1="229.2" x2="409.2234" y1="245.0156" y2="245.0156"/><line style="stroke:#181818;stroke-width:0.5;" x1="229.2" x2="409.2234" y1="253.0156" y2="253.0156"/><text fill="#000000" font-family="sans-serif" font-size="14" lengthAdjust="spacing" textLength="170.0234" x="234.2" y="270.0107">+guiThongTinCapNhat()</text></g><!--class USERS--><g class="entity" data-qualified-name="USERS" data-source-line="21" id="ent0004"><rect fill="#F1F1F1" height="121.4531" rx="2.5" ry="2.5" style="stroke:#181818;stroke-width:0.5;" width="205.0879" x="106.67" y="337.32"/><ellipse cx="181.6671" cy="357.4528" fill="#C2C2C2" rx="11" ry="11" style="stroke:#181818;stroke-width:1;"/><path d="M184.6358,363.0934 Q184.0577,363.3903 183.4171,363.5309 Q182.7764,363.6872 182.0733,363.6872 Q179.5733,363.6872 178.2452,362.0466 Q176.9327,360.3903 176.9327,357.2653 Q176.9327,354.1403 178.2452,352.4841 Q179.5733,350.8278 182.0733,350.8278 Q182.7764,350.8278 183.4171,350.9841 Q184.0733,351.1403 184.6358,351.4372 L184.6358,354.1559 Q184.0108,353.5778 183.4171,353.3122 Q182.8233,353.0309 182.1983,353.0309 Q180.8546,353.0309 180.1671,354.1091 Q179.4796,355.1716 179.4796,357.2653 Q179.4796,359.3591 180.1671,360.4372 Q180.8546,361.4997 182.1983,361.4997 Q182.8233,361.4997 183.4171,361.2341 Q184.0108,360.9528 184.6358,360.3747 L184.6358,363.0934 Z " fill="#000000"/><text fill="#000000" font-family="sans-serif" font-size="12" font-style="italic" lengthAdjust="spacing" textLength="49.5176" x="200.7052" y="353.4587">&#171;entity&#187;</text><text fill="#000000" font-family="sans-serif" font-size="14" lengthAdjust="spacing" textLength="46.5938" x="202.1671" y="369.2839">USERS</text><line style="stroke:#181818;stroke-width:0.5;" x1="107.67" x2="310.7579" y1="377.5856" y2="377.5856"/><line style="stroke:#181818;stroke-width:0.5;" x1="107.67" x2="310.7579" y1="385.5856" y2="385.5856"/><text fill="#000000" font-family="sans-serif" font-size="14" lengthAdjust="spacing" textLength="128.6729" x="112.67" y="402.5807">-id : VARCHAR(36)</text><text fill="#000000" font-family="sans-serif" font-size="14" lengthAdjust="spacing" textLength="193.0879" x="112.67" y="418.8776">-full_name : VARCHAR(255)</text><text fill="#000000" font-family="sans-serif" font-size="14" lengthAdjust="spacing" textLength="159.708" x="112.67" y="435.1745">-phone : VARCHAR(50)</text><text fill="#000000" font-family="sans-serif" font-size="14" lengthAdjust="spacing" textLength="191.5156" x="112.67" y="451.4714">-password : VARCHAR(255)</text></g><!--link HoSoUI to XacThucController--><g class="link" data-entity-1="ent0001" data-entity-2="ent0002" data-link-type="association" data-source-line="28" id="lnk5"><path codeLine="28" d="M163.62,145.13 C149.97,165.56 135.55,187.14 123.92,204.55" fill="none" id="HoSoUI-XacThucController" style="stroke:#181818;stroke-width:1;"/><text fill="#000000" font-family="sans-serif" font-size="13" lengthAdjust="spacing" textLength="8.271" x="150.7515" y="164.759">1</text><text fill="#000000" font-family="sans-serif" font-size="13" lengthAdjust="spacing" textLength="8.271" x="119.4539" y="193.7946">1</text></g><!--link HoSoUI to HoSoController--><g class="link" data-entity-1="ent0001" data-entity-2="ent0003" data-link-type="association" data-source-line="29" id="lnk6"><path codeLine="29" d="M255.23,145.13 C269.01,165.56 283.55,187.14 295.29,204.55" fill="none" id="HoSoUI-HoSoController" style="stroke:#181818;stroke-width:1;"/><text fill="#000000" font-family="sans-serif" font-size="13" lengthAdjust="spacing" textLength="8.271" x="251.3793" y="164.759">1</text><text fill="#000000" font-family="sans-serif" font-size="13" lengthAdjust="spacing" textLength="8.271" x="282.3406" y="193.7946">1</text></g><!--link XacThucController to USERS--><g class="link" data-entity-1="ent0002" data-entity-2="ent0004" data-link-type="association" data-source-line="30" id="lnk7"><path codeLine="30" d="M125.22,277.6 C137.61,295.21 152.89,316.95 167.02,337.03" fill="none" id="XacThucController-USERS" style="stroke:#181818;stroke-width:1;"/><text fill="#000000" font-family="sans-serif" font-size="13" lengthAdjust="spacing" textLength="8.271" x="120.8533" y="297.2526">1</text><text fill="#000000" font-family="sans-serif" font-size="13" lengthAdjust="spacing" textLength="8.2393" x="153.6927" y="326.1823">n</text></g><!--link HoSoController to USERS--><g class="link" data-entity-1="ent0003" data-entity-2="ent0004" data-link-type="association" data-source-line="31" id="lnk8"><path codeLine="31" d="M293.98,277.6 C281.48,295.21 266.06,316.95 251.8,337.03" fill="none" id="HoSoController-USERS" style="stroke:#181818;stroke-width:1;"/><text fill="#000000" font-family="sans-serif" font-size="13" lengthAdjust="spacing" textLength="8.271" x="280.9791" y="297.2526">1</text><text fill="#000000" font-family="sans-serif" font-size="13" lengthAdjust="spacing" textLength="8.2393" x="248.2753" y="326.1823">n</text></g><?plantuml-src VL7VIyCm47xlNn7sD972LEQ3ZC6ioWQoXxQJlSajpPfZQMwa2MEA_xjfkshNYKz9lXzttrtA7Uez62XOGPguD5G8PeqJGVd3b18oEg3EsHPKsMMuWhASMMjmuwnOSD89VWWs2eAQONDAQBLWayc6dCx07ATJzXamTiqbwOgCO2b13wygJABGgSGNCaL5DI27lLVOrElp54_A7NAvTFRLkJDdBNe4Idr96VcxPx_QA6lWgNJSmzQGKiBuLBnvjA4K79Uv8tnoEfzN9G6x5Ugy_zXpXstCg4dTTQ-IvpZn9g4jsdOF8MRiWRtDucW-YuTtzzKquTOfzQx1_yClTJiUrzpUD-ZYur43-mu7CbdVuRkVlc1mCs1XM1yNc_X3SpvhSBcyLgi7pMH1Rpjz_Xi0?></g></svg>