<svg xmlns="http://www.w3.org/2000/svg" xmlns:xlink="http://www.w3.org/1999/xlink" contentStyleType="text/css" data-diagram-type="CLASS" height="159px" preserveAspectRatio="none" style="width:668px;height:159px;background:#FFFFFF;" version="1.1" viewBox="0 0 668 159" width="668px" zoomAndPan="magnify"><?plantuml 1.2026.5?><defs/><g><!--class QLBaiVietUI--><g class="entity" data-qualified-name="QLBaiVietUI" data-source-line="5" id="ent0001"><rect fill="#F1F1F1" height="137.75" rx="2.5" ry="2.5" style="stroke:#181818;stroke-width:0.5;" width="236.5674" x="7" y="7"/><ellipse cx="79.6147" cy="27.1328" fill="#C2C2C2" rx="11" ry="11" style="stroke:#181818;stroke-width:1;"/><path d="M82.5835,32.7734 Q82.0054,33.0703 81.3647,33.2109 Q80.7241,33.3672 80.021,33.3672 Q77.521,33.3672 76.1929,31.7266 Q74.8804,30.0703 74.8804,26.9453 Q74.8804,23.8203 76.1929,22.1641 Q77.521,20.5078 80.021,20.5078 Q80.7241,20.5078 81.3647,20.6641 Q82.021,20.8203 82.5835,21.1172 L82.5835,23.8359 Q81.9585,23.2578 81.3647,22.9922 Q80.771,22.7109 80.146,22.7109 Q78.8022,22.7109 78.1147,23.7891 Q77.4272,24.8516 77.4272,26.9453 Q77.4272,29.0391 78.1147,30.1172 Q78.8022,31.1797 80.146,31.1797 Q80.771,31.1797 81.3647,30.9141 Q81.9585,30.6328 82.5835,30.0547 L82.5835,32.7734 Z " fill="#000000"/><text fill="#000000" font-family="sans-serif" font-size="12" font-style="italic" lengthAdjust="spacing" textLength="71.8594" x="105.604" y="23.1387">&#171;boundary&#187;</text><text fill="#000000" font-family="sans-serif" font-size="14" lengthAdjust="spacing" textLength="82.8379" x="100.1147" y="38.9639">QLBaiVietUI</text><line style="stroke:#181818;stroke-width:0.5;" x1="8" x2="242.5674" y1="47.2656" y2="47.2656"/><line style="stroke:#181818;stroke-width:0.5;" x1="8" x2="242.5674" y1="55.2656" y2="55.2656"/><text fill="#000000" font-family="sans-serif" font-size="14" lengthAdjust="spacing" textLength="159.7354" x="13" y="72.2607">+chonQuanLyBaiViet()</text><text fill="#000000" font-family="sans-serif" font-size="14" lengthAdjust="spacing" textLength="195.002" x="13" y="88.5576">+hienThiDanhSachBaiViet()</text><text fill="#000000" font-family="sans-serif" font-size="14" lengthAdjust="spacing" textLength="172.5732" x="13" y="104.8545">+nhapThongTinBaiViet()</text><text fill="#000000" font-family="sans-serif" font-size="14" lengthAdjust="spacing" textLength="101.6025" x="13" y="121.1514">+kichNutLuu()</text><text fill="#000000" font-family="sans-serif" font-size="14" lengthAdjust="spacing" textLength="224.5674" x="13" y="137.4482">+hienThiThongBaoThanhCong()</text></g><!--class QLBaiVietController--><g class="entity" data-qualified-name="QLBaiVietController" data-source-line="13" id="ent0002"><rect fill="#F1F1F1" height="88.8594" rx="2.5" ry="2.5" style="stroke:#181818;stroke-width:0.5;" width="176.1924" x="278.19" y="31.45"/><ellipse cx="296.1409" cy="51.5828" fill="#C2C2C2" rx="11" ry="11" style="stroke:#181818;stroke-width:1;"/><path d="M299.1097,57.2234 Q298.5316,57.5203 297.8909,57.6609 Q297.2503,57.8172 296.5472,57.8172 Q294.0472,57.8172 292.7191,56.1766 Q291.4066,54.5203 291.4066,51.3953 Q291.4066,48.2703 292.7191,46.6141 Q294.0472,44.9578 296.5472,44.9578 Q297.2503,44.9578 297.8909,45.1141 Q298.5472,45.2703 299.1097,45.5672 L299.1097,48.2859 Q298.4847,47.7078 297.8909,47.4422 Q297.2972,47.1609 296.6722,47.1609 Q295.3284,47.1609 294.6409,48.2391 Q293.9534,49.3016 293.9534,51.3953 Q293.9534,53.4891 294.6409,54.5672 Q295.3284,55.6297 296.6722,55.6297 Q297.2972,55.6297 297.8909,55.3641 Q298.4847,55.0828 299.1097,54.5047 L299.1097,57.2234 Z " fill="#000000"/><text fill="#000000" font-family="sans-serif" font-size="12" font-style="italic" lengthAdjust="spacing" textLength="56.543" x="351.3426" y="47.5887">&#171;control&#187;</text><text fill="#000000" font-family="sans-serif" font-size="14" lengthAdjust="spacing" textLength="137.6348" x="310.7967" y="63.4139">QLBaiVietController</text><line style="stroke:#181818;stroke-width:0.5;" x1="279.19" x2="453.3824" y1="71.7156" y2="71.7156"/><line style="stroke:#181818;stroke-width:0.5;" x1="279.19" x2="453.3824" y1="79.7156" y2="79.7156"/><text fill="#000000" font-family="sans-serif" font-size="14" lengthAdjust="spacing" textLength="164.1924" x="284.19" y="96.7107">+layDanhSachBaiViet()</text><text fill="#000000" font-family="sans-serif" font-size="14" lengthAdjust="spacing" textLength="160.248" x="284.19" y="113.0076">+luuBaiViet(formData)</text></g><!--class POSTS--><g class="entity" data-qualified-name="POSTS" data-source-line="18" id="ent0003"><rect fill="#F1F1F1" height="121.4531" rx="2.5" ry="2.5" style="stroke:#181818;stroke-width:0.5;" width="164.1748" x="489.2" y="15.15"/><ellipse cx="544.1438" cy="35.2828" fill="#C2C2C2" rx="11" ry="11" style="stroke:#181818;stroke-width:1;"/><path d="M547.1126,40.9234 Q546.5345,41.2203 545.8938,41.3609 Q545.2532,41.5172 544.5501,41.5172 Q542.0501,41.5172 540.722,39.8766 Q539.4095,38.2203 539.4095,35.0953 Q539.4095,31.9703 540.722,30.3141 Q542.0501,28.6578 544.5501,28.6578 Q545.2532,28.6578 545.8938,28.8141 Q546.5501,28.9703 547.1126,29.2672 L547.1126,31.9859 Q546.4876,31.4078 545.8938,31.1422 Q545.3001,30.8609 544.6751,30.8609 Q543.3313,30.8609 542.6438,31.9391 Q541.9563,33.0016 541.9563,35.0953 Q541.9563,37.1891 542.6438,38.2672 Q543.3313,39.3297 544.6751,39.3297 Q545.3001,39.3297 545.8938,39.0641 Q546.4876,38.7828 547.1126,38.2047 L547.1126,40.9234 Z " fill="#000000"/><text fill="#000000" font-family="sans-serif" font-size="12" font-style="italic" lengthAdjust="spacing" textLength="49.5176" x="562.7786" y="31.2887">&#171;entity&#187;</text><text fill="#000000" font-family="sans-serif" font-size="14" lengthAdjust="spacing" textLength="45.7871" x="564.6438" y="47.1139">POSTS</text><line style="stroke:#181818;stroke-width:0.5;" x1="490.2" x2="652.3748" y1="55.4156" y2="55.4156"/><text fill="#000000" font-family="sans-serif" font-size="14" lengthAdjust="spacing" textLength="107.8096" x="495.2" y="72.4107">-content : TEXT</text><text fill="#000000" font-family="sans-serif" font-size="14" lengthAdjust="spacing" textLength="103.332" x="495.2" y="88.7076">-status : ENUM</text><line style="stroke:#181818;stroke-width:0.5;" x1="490.2" x2="652.3748" y1="96.0094" y2="96.0094"/><text fill="#000000" font-family="sans-serif" font-size="14" lengthAdjust="spacing" textLength="128.6729" x="495.2" y="113.0045">-id : VARCHAR(36)</text><text fill="#000000" font-family="sans-serif" font-size="14" lengthAdjust="spacing" textLength="152.1748" x="495.2" y="129.3014">-title : VARCHAR(255)</text></g><!--link QLBaiVietUI to QLBaiVietController--><g class="link" data-entity-1="ent0001" data-entity-2="ent0002" data-link-type="association" data-source-line="25" id="lnk4"><path codeLine="25" d="M243.9,75.88 C255.21,75.88 266.53,75.88 277.84,75.88" fill="none" id="QLBaiVietUI-QLBaiVietController" style="stroke:#181818;stroke-width:1;"/><text fill="#000000" font-family="sans-serif" font-size="13" lengthAdjust="spacing" textLength="8.271" x="251.3802" y="72.4942">1</text><text fill="#000000" font-family="sans-serif" font-size="13" lengthAdjust="spacing" textLength="8.271" x="261.907" y="72.3081">1</text></g><!--link QLBaiVietController to POSTS--><g class="link" data-entity-1="ent0002" data-entity-2="ent0003" data-link-type="association" data-source-line="26" id="lnk5"><path codeLine="26" d="M454.77,75.88 C466.15,75.88 477.53,75.88 488.9,75.88" fill="none" id="QLBaiVietController-POSTS" style="stroke:#181818;stroke-width:1;"/><text fill="#000000" font-family="sans-serif" font-size="13" lengthAdjust="spacing" textLength="8.271" x="462.44" y="72.3313">1</text><text fill="#000000" font-family="sans-serif" font-size="13" lengthAdjust="spacing" textLength="8.2393" x="472.9472" y="72.2619">n</text></g><?plantuml-src RP3BQiCm44Nt_WhXLKe9z46wA27WFA01DsrY9NGxaPL8H1u5FIXkwRzNTk9YKs-4vfwPgpko9ubdC52GGgDcmkY24sSyZ-mViG9o_IdnI0wWR9im1TOcpXcvzuulcSPCVd5o5qKr8Ujq2d8dkTikoNYyrnvpCELaGhuZGcwPqBZsW6bvxHhSLBAG7AcGSq2H0HCTXWBED8mTgSGEE4acLjwbtdTCwjufQ2g2sopS0_tvbou0PxHIt8IKx58q8HMKlKcKzqrzqAQOWuEMzVjRHhDWnj59romyb3bv9hjaCtj9DeF7fyfd6BZYBVbXDAhrAaQO3eGkFcYbM0VEso0iLjlNwgdsxyRtCHdMPyzMKT-crmcCBs5_0G00?></g></svg>