<svg xmlns="http://www.w3.org/2000/svg" xmlns:xlink="http://www.w3.org/1999/xlink" contentStyleType="text/css" data-diagram-type="CLASS" height="208px" preserveAspectRatio="none" style="width:643px;height:208px;background:#FFFFFF;" version="1.1" viewBox="0 0 643 208" width="643px" zoomAndPan="magnify"><?plantuml 1.2026.5?><defs/><g><!--class TinTucUI--><g class="entity" data-qualified-name="TinTucUI" data-source-line="5" id="ent0001"><rect fill="#F1F1F1" height="121.4531" rx="2.5" ry="2.5" style="stroke:#181818;stroke-width:0.5;" width="203.7959" x="7" y="39.59"/><ellipse cx="70.7183" cy="59.7228" fill="#C2C2C2" rx="11" ry="11" style="stroke:#181818;stroke-width:1;"/><path d="M73.687,65.3634 Q73.1089,65.6603 72.4683,65.8009 Q71.8276,65.9572 71.1245,65.9572 Q68.6245,65.9572 67.2964,64.3166 Q65.9839,62.6603 65.9839,59.5353 Q65.9839,56.4103 67.2964,54.7541 Q68.6245,53.0978 71.1245,53.0978 Q71.8276,53.0978 72.4683,53.2541 Q73.1245,53.4103 73.687,53.7072 L73.687,56.4259 Q73.062,55.8478 72.4683,55.5822 Q71.8745,55.3009 71.2495,55.3009 Q69.9058,55.3009 69.2183,56.3791 Q68.5308,57.4416 68.5308,59.5353 Q68.5308,61.6291 69.2183,62.7072 Q69.9058,63.7697 71.2495,63.7697 Q71.8745,63.7697 72.4683,63.5041 Q73.062,63.2228 73.687,62.6447 L73.687,65.3634 Z " fill="#000000"/><text fill="#000000" font-family="sans-serif" font-size="12" font-style="italic" lengthAdjust="spacing" textLength="71.8594" x="89.2183" y="55.7287">&#171;boundary&#187;</text><text fill="#000000" font-family="sans-serif" font-size="14" lengthAdjust="spacing" textLength="60.8125" x="94.7417" y="71.5539">TinTucUI</text><line style="stroke:#181818;stroke-width:0.5;" x1="8" x2="209.7959" y1="79.8556" y2="79.8556"/><line style="stroke:#181818;stroke-width:0.5;" x1="8" x2="209.7959" y1="87.8556" y2="87.8556"/><text fill="#000000" font-family="sans-serif" font-size="14" lengthAdjust="spacing" textLength="141.5381" x="13" y="104.8507">+chonMenuTinTuc()</text><text fill="#000000" font-family="sans-serif" font-size="14" lengthAdjust="spacing" textLength="191.7959" x="13" y="121.1476">+hienThiDanhSachTinTuc()</text><text fill="#000000" font-family="sans-serif" font-size="14" lengthAdjust="spacing" textLength="106.3057" x="13" y="137.4445">+chonBaiViet()</text><text fill="#000000" font-family="sans-serif" font-size="14" lengthAdjust="spacing" textLength="169.7363" x="13" y="153.7414">+hienThiChiTietTinTuc()</text></g><!--class TinTucController--><g class="entity" data-qualified-name="TinTucController" data-source-line="12" id="ent0002"><rect fill="#F1F1F1" height="88.8594" rx="2.5" ry="2.5" style="stroke:#181818;stroke-width:0.5;" width="183.0762" x="245.36" y="55.89"/><ellipse cx="276.3201" cy="76.0228" fill="#C2C2C2" rx="11" ry="11" style="stroke:#181818;stroke-width:1;"/><path d="M279.2888,81.6634 Q278.7107,81.9603 278.0701,82.1009 Q277.4294,82.2572 276.7263,82.2572 Q274.2263,82.2572 272.8982,80.6166 Q271.5857,78.9603 271.5857,75.8353 Q271.5857,72.7103 272.8982,71.0541 Q274.2263,69.3978 276.7263,69.3978 Q277.4294,69.3978 278.0701,69.5541 Q278.7263,69.7103 279.2888,70.0072 L279.2888,72.7259 Q278.6638,72.1478 278.0701,71.8822 Q277.4763,71.6009 276.8513,71.6009 Q275.5076,71.6009 274.8201,72.6791 Q274.1326,73.7416 274.1326,75.8353 Q274.1326,77.9291 274.8201,79.0072 Q275.5076,80.0697 276.8513,80.0697 Q277.4763,80.0697 278.0701,79.8041 Q278.6638,79.5228 279.2888,78.9447 L279.2888,81.6634 Z " fill="#000000"/><text fill="#000000" font-family="sans-serif" font-size="12" font-style="italic" lengthAdjust="spacing" textLength="56.543" x="323.3999" y="72.0287">&#171;control&#187;</text><text fill="#000000" font-family="sans-serif" font-size="14" lengthAdjust="spacing" textLength="115.6094" x="293.8667" y="87.8539">TinTucController</text><line style="stroke:#181818;stroke-width:0.5;" x1="246.36" x2="427.4362" y1="96.1556" y2="96.1556"/><line style="stroke:#181818;stroke-width:0.5;" x1="246.36" x2="427.4362" y1="104.1556" y2="104.1556"/><text fill="#000000" font-family="sans-serif" font-size="14" lengthAdjust="spacing" textLength="160.9863" x="251.36" y="121.1507">+layDanhSachTinTuc()</text><text fill="#000000" font-family="sans-serif" font-size="14" lengthAdjust="spacing" textLength="171.0762" x="251.36" y="137.4476">+layChiTietBaiViet(slug)</text></g><!--class POSTS--><g class="entity" data-qualified-name="POSTS" data-source-line="17" id="ent0003"><rect fill="#F1F1F1" height="186.6406" rx="2.5" ry="2.5" style="stroke:#181818;stroke-width:0.5;" width="165.7471" x="463.02" y="7"/><ellipse cx="518.75" cy="27.1328" fill="#C2C2C2" rx="11" ry="11" style="stroke:#181818;stroke-width:1;"/><path d="M521.7187,32.7734 Q521.1406,33.0703 520.5,33.2109 Q519.8594,33.3672 519.1562,33.3672 Q516.6562,33.3672 515.3281,31.7266 Q514.0156,30.0703 514.0156,26.9453 Q514.0156,23.8203 515.3281,22.1641 Q516.6562,20.5078 519.1562,20.5078 Q519.8594,20.5078 520.5,20.6641 Q521.1562,20.8203 521.7187,21.1172 L521.7187,23.8359 Q521.0937,23.2578 520.5,22.9922 Q519.9062,22.7109 519.2812,22.7109 Q517.9375,22.7109 517.25,23.7891 Q516.5625,24.8516 516.5625,26.9453 Q516.5625,29.0391 517.25,30.1172 Q517.9375,31.1797 519.2812,31.1797 Q519.9062,31.1797 520.5,30.9141 Q521.0937,30.6328 521.7187,30.0547 L521.7187,32.7734 Z " fill="#000000"/><text fill="#000000" font-family="sans-serif" font-size="12" font-style="italic" lengthAdjust="spacing" textLength="49.5176" x="537.3847" y="23.1387">&#171;entity&#187;</text><text fill="#000000" font-family="sans-serif" font-size="14" lengthAdjust="spacing" textLength="45.7871" x="539.25" y="38.9639">POSTS</text><line style="stroke:#181818;stroke-width:0.5;" x1="464.02" x2="627.7671" y1="47.2656" y2="47.2656"/><text fill="#000000" font-family="sans-serif" font-size="14" lengthAdjust="spacing" textLength="107.8096" x="469.02" y="64.2607">-content : TEXT</text><text fill="#000000" font-family="sans-serif" font-size="14" lengthAdjust="spacing" textLength="103.332" x="469.02" y="80.5576">-status : ENUM</text><line style="stroke:#181818;stroke-width:0.5;" x1="464.02" x2="627.7671" y1="87.8594" y2="87.8594"/><text fill="#000000" font-family="sans-serif" font-size="14" lengthAdjust="spacing" textLength="128.6729" x="469.02" y="104.8545">-id : VARCHAR(36)</text><text fill="#000000" font-family="sans-serif" font-size="14" lengthAdjust="spacing" textLength="152.1748" x="469.02" y="121.1514">-title : VARCHAR(255)</text><text fill="#000000" font-family="sans-serif" font-size="14" lengthAdjust="spacing" textLength="153.7471" x="469.02" y="137.4482">-slug : VARCHAR(255)</text><text fill="#000000" font-family="sans-serif" font-size="14" lengthAdjust="spacing" textLength="76.0771" x="469.02" y="153.7451">+getTitle()</text><text fill="#000000" font-family="sans-serif" font-size="14" lengthAdjust="spacing" textLength="101.3223" x="469.02" y="170.042">+getContent()</text><text fill="#000000" font-family="sans-serif" font-size="14" lengthAdjust="spacing" textLength="76.1797" x="469.02" y="186.3389">+getSlug()</text></g><!--link TinTucUI to TinTucController--><g class="link" data-entity-1="ent0001" data-entity-2="ent0002" data-link-type="association" data-source-line="28" id="lnk4"><path codeLine="28" d="M210.87,100.32 C222.36,100.32 233.85,100.32 245.33,100.32" fill="none" id="TinTucUI-TinTucController" style="stroke:#181818;stroke-width:1;"/><text fill="#000000" font-family="sans-serif" font-size="13" lengthAdjust="spacing" textLength="8.271" x="218.6623" y="96.8412">1</text><text fill="#000000" font-family="sans-serif" font-size="13" lengthAdjust="spacing" textLength="8.271" x="229.1288" y="96.7481">1</text></g><!--link TinTucController to POSTS--><g class="link" data-entity-1="ent0002" data-entity-2="ent0003" data-link-type="association" data-source-line="29" id="lnk5"><path codeLine="29" d="M428.74,100.32 C440.03,100.32 451.32,100.32 462.61,100.32" fill="none" id="TinTucController-POSTS" style="stroke:#181818;stroke-width:1;"/><text fill="#000000" font-family="sans-serif" font-size="13" lengthAdjust="spacing" textLength="8.271" x="436.3882" y="96.7946">1</text><text fill="#000000" font-family="sans-serif" font-size="13" lengthAdjust="spacing" textLength="8.2393" x="446.847" y="96.7248">n</text></g><?plantuml-src RL3BQiCm4BpxAuHFASNG1-cXX83h1ff3sX8h8LT5LgsbygheGKbB_xsI7HkdpKMmCwEPsRNlW1_Ci8Oq6ZMNHZU2EED5OWV6IbRfJy2Ql35bnmnNpDhSEGDxxyIIQopXIv2h96aPGW6fvvibcStsscF5p64-9zy98PTSQbm9z9raSX4n2GAfX4U6icHSZgaeVs2m1U5Ej8K46h11-dCQNMXqHYibJAZ0kw5leDZXN5A0ZwPzdbM-7Zc_lfIq37O27RX-dmmgSa-s-RfuojUJsxjebGLUYH5yCvssU2mIVWU6BdOq8Z7YZD0wvhmDnE9viuhbwhXgCEsgXgdeh8Qv34RT6ORRfzSfoThtxqsIVqSwQZ7jjlm5?></g></svg>