<svg xmlns="http://www.w3.org/2000/svg" xmlns:xlink="http://www.w3.org/1999/xlink" contentStyleType="text/css" data-diagram-type="CLASS" height="194px" preserveAspectRatio="none" style="width:1199px;height:194px;background:#FFFFFF;" version="1.1" viewBox="0 0 1199 194" width="1199px" zoomAndPan="magnify"><?plantuml 1.2026.5?><defs/><g><!--class ThongKeUI--><g class="entity" data-qualified-name="ThongKeUI" data-source-line="5" id="ent0001"><rect fill="#F1F1F1" height="88.8594" rx="2.5" ry="2.5" style="stroke:#181818;stroke-width:0.5;" width="208.3691" x="7" y="82.83"/><ellipse cx="68.9746" cy="102.9628" fill="#C2C2C2" rx="11" ry="11" style="stroke:#181818;stroke-width:1;"/><path d="M71.9434,108.6034 Q71.3652,108.9003 70.7246,109.0409 Q70.084,109.1972 69.3809,109.1972 Q66.8809,109.1972 65.5527,107.5566 Q64.2402,105.9003 64.2402,102.7753 Q64.2402,99.6503 65.5527,97.9941 Q66.8809,96.3378 69.3809,96.3378 Q70.084,96.3378 70.7246,96.4941 Q71.3809,96.6503 71.9434,96.9472 L71.9434,99.6659 Q71.3184,99.0878 70.7246,98.8222 Q70.1309,98.5409 69.5059,98.5409 Q68.1621,98.5409 67.4746,99.6191 Q66.7871,100.6816 66.7871,102.7753 Q66.7871,104.8691 67.4746,105.9472 Q68.1621,107.0097 69.5059,107.0097 Q70.1309,107.0097 70.7246,106.7441 Q71.3184,106.4628 71.9434,105.8847 L71.9434,108.6034 Z " fill="#000000"/><text fill="#000000" font-family="sans-serif" font-size="12" font-style="italic" lengthAdjust="spacing" textLength="71.8594" x="91.5049" y="98.9687">&#171;boundary&#187;</text><text fill="#000000" font-family="sans-serif" font-size="14" lengthAdjust="spacing" textLength="75.9199" x="89.4746" y="114.7939">ThongKeUI</text><line style="stroke:#181818;stroke-width:0.5;" x1="8" x2="214.3691" y1="123.0956" y2="123.0956"/><line style="stroke:#181818;stroke-width:0.5;" x1="8" x2="214.3691" y1="131.0956" y2="131.0956"/><text fill="#000000" font-family="sans-serif" font-size="14" lengthAdjust="spacing" textLength="118.207" x="13" y="148.0907">+chonThongKe()</text><text fill="#000000" font-family="sans-serif" font-size="14" lengthAdjust="spacing" textLength="196.3691" x="13" y="164.3876">+hienThiBieuDoVaBaoCao()</text></g><!--class ThongKeController--><g class="entity" data-qualified-name="ThongKeController" data-source-line="10" id="ent0002"><rect fill="#F1F1F1" height="72.5625" rx="2.5" ry="2.5" style="stroke:#181818;stroke-width:0.5;" width="189.1738" x="250.6" y="90.98"/><ellipse cx="277.5057" cy="111.1128" fill="#C2C2C2" rx="11" ry="11" style="stroke:#181818;stroke-width:1;"/><path d="M280.4744,116.7534 Q279.8963,117.0503 279.2557,117.1909 Q278.615,117.3472 277.9119,117.3472 Q275.4119,117.3472 274.0838,115.7066 Q272.7713,114.0503 272.7713,110.9253 Q272.7713,107.8003 274.0838,106.1441 Q275.4119,104.4878 277.9119,104.4878 Q278.615,104.4878 279.2557,104.6441 Q279.9119,104.8003 280.4744,105.0972 L280.4744,107.8159 Q279.8494,107.2378 279.2557,106.9722 Q278.6619,106.6909 278.0369,106.6909 Q276.6932,106.6909 276.0057,107.7691 Q275.3182,108.8316 275.3182,110.9253 Q275.3182,113.0191 276.0057,114.0972 Q276.6932,115.1597 278.0369,115.1597 Q278.6619,115.1597 279.2557,114.8941 Q279.8494,114.6128 280.4744,114.0347 L280.4744,116.7534 Z " fill="#000000"/><text fill="#000000" font-family="sans-serif" font-size="12" font-style="italic" lengthAdjust="spacing" textLength="56.543" x="331.2383" y="107.1187">&#171;control&#187;</text><text fill="#000000" font-family="sans-serif" font-size="14" lengthAdjust="spacing" textLength="130.7168" x="294.1514" y="122.9439">ThongKeController</text><line style="stroke:#181818;stroke-width:0.5;" x1="251.6" x2="438.7738" y1="131.2456" y2="131.2456"/><line style="stroke:#181818;stroke-width:0.5;" x1="251.6" x2="438.7738" y1="139.2456" y2="139.2456"/><text fill="#000000" font-family="sans-serif" font-size="14" lengthAdjust="spacing" textLength="177.1738" x="256.6" y="156.2407">+layThongKeTongQuan()</text></g><!--class CARS--><g class="entity" data-qualified-name="CARS" data-source-line="14" id="ent0003"><rect fill="#F1F1F1" height="105.1563" rx="2.5" ry="2.5" style="stroke:#181818;stroke-width:0.5;" width="140.6729" x="1043.85" y="74.68"/><ellipse cx="1087.2699" cy="94.8128" fill="#C2C2C2" rx="11" ry="11" style="stroke:#181818;stroke-width:1;"/><path d="M1090.2386,100.4534 Q1089.6605,100.7503 1089.0199,100.8909 Q1088.3792,101.0472 1087.6761,101.0472 Q1085.1761,101.0472 1083.848,99.4066 Q1082.5355,97.7503 1082.5355,94.6253 Q1082.5355,91.5003 1083.848,89.8441 Q1085.1761,88.1878 1087.6761,88.1878 Q1088.3792,88.1878 1089.0199,88.3441 Q1089.6761,88.5003 1090.2386,88.7972 L1090.2386,91.5159 Q1089.6136,90.9378 1089.0199,90.6722 Q1088.4261,90.3909 1087.8011,90.3909 Q1086.4574,90.3909 1085.7699,91.4691 Q1085.0824,92.5316 1085.0824,94.6253 Q1085.0824,96.7191 1085.7699,97.7972 Q1086.4574,98.8597 1087.8011,98.8597 Q1088.4261,98.8597 1089.0199,98.5941 Q1089.6136,98.3128 1090.2386,97.7347 L1090.2386,100.4534 Z " fill="#000000"/><text fill="#000000" font-family="sans-serif" font-size="12" font-style="italic" lengthAdjust="spacing" textLength="49.5176" x="1105.5854" y="90.8187">&#171;entity&#187;</text><text fill="#000000" font-family="sans-serif" font-size="14" lengthAdjust="spacing" textLength="37.9668" x="1111.3608" y="106.6439">CARS</text><line style="stroke:#181818;stroke-width:0.5;" x1="1044.85" x2="1183.5229" y1="114.9456" y2="114.9456"/><text fill="#000000" font-family="sans-serif" font-size="14" lengthAdjust="spacing" textLength="101.2471" x="1049.85" y="131.9407">-price : BIGINT</text><text fill="#000000" font-family="sans-serif" font-size="14" lengthAdjust="spacing" textLength="103.332" x="1049.85" y="148.2376">-status : ENUM</text><line style="stroke:#181818;stroke-width:0.5;" x1="1044.85" x2="1183.5229" y1="155.5394" y2="155.5394"/><text fill="#000000" font-family="sans-serif" font-size="14" lengthAdjust="spacing" textLength="128.6729" x="1049.85" y="172.5345">-id : VARCHAR(36)</text></g><!--class CUSTOMERS--><g class="entity" data-qualified-name="CUSTOMERS" data-source-line="20" id="ent0004"><rect fill="#F1F1F1" height="88.8594" rx="2.5" ry="2.5" style="stroke:#181818;stroke-width:0.5;" width="140.6729" x="867.85" y="82.83"/><ellipse cx="892.144" cy="102.9628" fill="#C2C2C2" rx="11" ry="11" style="stroke:#181818;stroke-width:1;"/><path d="M895.1127,108.6034 Q894.5346,108.9003 893.894,109.0409 Q893.2534,109.1972 892.5502,109.1972 Q890.0502,109.1972 888.7221,107.5566 Q887.4096,105.9003 887.4096,102.7753 Q887.4096,99.6503 888.7221,97.9941 Q890.0502,96.3378 892.5502,96.3378 Q893.2534,96.3378 893.894,96.4941 Q894.5502,96.6503 895.1127,96.9472 L895.1127,99.6659 Q894.4877,99.0878 893.894,98.8222 Q893.3002,98.5409 892.6752,98.5409 Q891.3315,98.5409 890.644,99.6191 Q889.9565,100.6816 889.9565,102.7753 Q889.9565,104.8691 890.644,105.9472 Q891.3315,107.0097 892.6752,107.0097 Q893.3002,107.0097 893.894,106.7441 Q894.4877,106.4628 895.1127,105.8847 L895.1127,108.6034 Z " fill="#000000"/><text fill="#000000" font-family="sans-serif" font-size="12" font-style="italic" lengthAdjust="spacing" textLength="49.5176" x="927.4603" y="98.9687">&#171;entity&#187;</text><text fill="#000000" font-family="sans-serif" font-size="14" lengthAdjust="spacing" textLength="88.0195" x="908.2093" y="114.7939">CUSTOMERS</text><line style="stroke:#181818;stroke-width:0.5;" x1="868.85" x2="1007.5229" y1="123.0956" y2="123.0956"/><text fill="#000000" font-family="sans-serif" font-size="14" lengthAdjust="spacing" textLength="99.1758" x="873.85" y="140.0907">-stage : ENUM</text><line style="stroke:#181818;stroke-width:0.5;" x1="868.85" x2="1007.5229" y1="147.3925" y2="147.3925"/><text fill="#000000" font-family="sans-serif" font-size="14" lengthAdjust="spacing" textLength="128.6729" x="873.85" y="164.3876">-id : VARCHAR(36)</text></g><!--class APPOINTMENTS--><g class="entity" data-qualified-name="APPOINTMENTS" data-source-line="25" id="ent0005"><rect fill="#F1F1F1" height="88.8594" rx="2.5" ry="2.5" style="stroke:#181818;stroke-width:0.5;" width="141.4707" x="691.45" y="82.83"/><ellipse cx="706.45" cy="102.9628" fill="#C2C2C2" rx="11" ry="11" style="stroke:#181818;stroke-width:1;"/><path d="M709.4188,108.6034 Q708.8406,108.9003 708.2,109.0409 Q707.5594,109.1972 706.8563,109.1972 Q704.3563,109.1972 703.0281,107.5566 Q701.7156,105.9003 701.7156,102.7753 Q701.7156,99.6503 703.0281,97.9941 Q704.3563,96.3378 706.8563,96.3378 Q707.5594,96.3378 708.2,96.4941 Q708.8563,96.6503 709.4188,96.9472 L709.4188,99.6659 Q708.7938,99.0878 708.2,98.8222 Q707.6063,98.5409 706.9813,98.5409 Q705.6375,98.5409 704.95,99.6191 Q704.2625,100.6816 704.2625,102.7753 Q704.2625,104.8691 704.95,105.9472 Q705.6375,107.0097 706.9813,107.0097 Q707.6063,107.0097 708.2,106.7441 Q708.7938,106.4628 709.4188,105.8847 L709.4188,108.6034 Z " fill="#000000"/><text fill="#000000" font-family="sans-serif" font-size="12" font-style="italic" lengthAdjust="spacing" textLength="49.5176" x="750.4266" y="98.9687">&#171;entity&#187;</text><text fill="#000000" font-family="sans-serif" font-size="14" lengthAdjust="spacing" textLength="109.4707" x="720.45" y="114.7939">APPOINTMENTS</text><line style="stroke:#181818;stroke-width:0.5;" x1="692.45" x2="831.9207" y1="123.0956" y2="123.0956"/><text fill="#000000" font-family="sans-serif" font-size="14" lengthAdjust="spacing" textLength="103.332" x="697.45" y="140.0907">-status : ENUM</text><line style="stroke:#181818;stroke-width:0.5;" x1="692.45" x2="831.9207" y1="147.3925" y2="147.3925"/><text fill="#000000" font-family="sans-serif" font-size="14" lengthAdjust="spacing" textLength="128.6729" x="697.45" y="164.3876">-id : VARCHAR(36)</text></g><!--class CONTACT_REQUESTS--><g class="entity" data-qualified-name="CONTACT_REQUESTS" data-source-line="30" id="ent0006"><rect fill="#F1F1F1" height="88.8594" rx="2.5" ry="2.5" style="stroke:#181818;stroke-width:0.5;" width="181.7344" x="474.32" y="82.83"/><ellipse cx="489.32" cy="102.9628" fill="#C2C2C2" rx="11" ry="11" style="stroke:#181818;stroke-width:1;"/><path d="M492.2888,108.6034 Q491.7106,108.9003 491.07,109.0409 Q490.4294,109.1972 489.7263,109.1972 Q487.2263,109.1972 485.8981,107.5566 Q484.5856,105.9003 484.5856,102.7753 Q484.5856,99.6503 485.8981,97.9941 Q487.2263,96.3378 489.7263,96.3378 Q490.4294,96.3378 491.07,96.4941 Q491.7263,96.6503 492.2888,96.9472 L492.2888,99.6659 Q491.6638,99.0878 491.07,98.8222 Q490.4763,98.5409 489.8513,98.5409 Q488.5075,98.5409 487.82,99.6191 Q487.1325,100.6816 487.1325,102.7753 Q487.1325,104.8691 487.82,105.9472 Q488.5075,107.0097 489.8513,107.0097 Q490.4763,107.0097 491.07,106.7441 Q491.6638,106.4628 492.2888,105.8847 L492.2888,108.6034 Z " fill="#000000"/><text fill="#000000" font-family="sans-serif" font-size="12" font-style="italic" lengthAdjust="spacing" textLength="49.5176" x="553.4284" y="98.9687">&#171;entity&#187;</text><text fill="#000000" font-family="sans-serif" font-size="14" lengthAdjust="spacing" textLength="149.7344" x="503.32" y="114.7939">CONTACT_REQUESTS</text><line style="stroke:#181818;stroke-width:0.5;" x1="475.32" x2="655.0544" y1="123.0956" y2="123.0956"/><text fill="#000000" font-family="sans-serif" font-size="14" lengthAdjust="spacing" textLength="99.1758" x="480.32" y="140.0907">-stage : ENUM</text><line style="stroke:#181818;stroke-width:0.5;" x1="475.32" x2="655.0544" y1="147.3925" y2="147.3925"/><text fill="#000000" font-family="sans-serif" font-size="14" lengthAdjust="spacing" textLength="128.6729" x="480.32" y="164.3876">-id : VARCHAR(36)</text></g><!--link ThongKeUI to ThongKeController--><g class="link" data-entity-1="ent0001" data-entity-2="ent0002" data-link-type="association" data-source-line="35" id="lnk7"><path codeLine="35" d="M215.84,127.26 C227.3,127.26 238.75,127.26 250.2,127.26" fill="none" id="ThongKeUI-ThongKeController" style="stroke:#181818;stroke-width:1;"/><text fill="#000000" font-family="sans-serif" font-size="13" lengthAdjust="spacing" textLength="8.271" x="223.4894" y="123.8042">1</text><text fill="#000000" font-family="sans-serif" font-size="13" lengthAdjust="spacing" textLength="8.271" x="234.3228" y="123.7344">1</text></g><!--link ThongKeController to CARS--><g class="link" data-entity-1="ent0002" data-entity-2="ent0003" data-link-type="association" data-source-line="36" id="lnk8"><path codeLine="36" d="M388.81,90.56 C412.58,72.97 443.46,53.79 474.68,44.68 C588.6,11.45 896.5,6 1008.68,44.68 C1027.27,51.09 1045.07,62.27 1060.6,74.36" fill="none" id="ThongKeController-CARS" style="stroke:#181818;stroke-width:1;"/><text fill="#000000" font-family="sans-serif" font-size="13" lengthAdjust="spacing" textLength="8.271" x="387.6435" y="80.0412">1</text><text fill="#000000" font-family="sans-serif" font-size="13" lengthAdjust="spacing" textLength="8.2393" x="1045.2371" y="63.6969">n</text></g><!--link ThongKeController to CUSTOMERS--><g class="link" data-entity-1="ent0002" data-entity-2="ent0004" data-link-type="association" data-source-line="37" id="lnk9"><path codeLine="37" d="M388.81,90.56 C412.58,72.97 443.46,53.79 474.68,44.68 C551.06,22.41 757.47,18.75 832.68,44.68 C855.33,52.49 876.84,67.39 894.45,82.4" fill="none" id="ThongKeController-CUSTOMERS" style="stroke:#181818;stroke-width:1;"/><text fill="#000000" font-family="sans-serif" font-size="13" lengthAdjust="spacing" textLength="8.271" x="397.0185" y="80.0412">1</text><text fill="#000000" font-family="sans-serif" font-size="13" lengthAdjust="spacing" textLength="8.2393" x="879.4563" y="71.7863">n</text></g><!--link ThongKeController to APPOINTMENTS--><g class="link" data-entity-1="ent0002" data-entity-2="ent0005" data-link-type="association" data-source-line="38" id="lnk10"><path codeLine="38" d="M388.81,90.56 C412.58,72.97 443.46,53.79 474.68,44.68 C551.91,22.16 579.57,18.63 655.68,44.68 C678.48,52.49 700.18,67.38 717.96,82.39" fill="none" id="ThongKeController-APPOINTMENTS" style="stroke:#181818;stroke-width:1;"/><text fill="#000000" font-family="sans-serif" font-size="13" lengthAdjust="spacing" textLength="8.271" x="412.1199" y="79.6832">1</text><text fill="#000000" font-family="sans-serif" font-size="13" lengthAdjust="spacing" textLength="8.2393" x="702.8945" y="71.7749">n</text></g><!--link ThongKeController to CONTACT_REQUESTS--><g class="link" data-entity-1="ent0002" data-entity-2="ent0006" data-link-type="association" data-source-line="39" id="lnk11"><path codeLine="39" d="M440.15,127.26 C451.38,127.26 462.61,127.26 473.85,127.26" fill="none" id="ThongKeController-CONTACT_REQUESTS" style="stroke:#181818;stroke-width:1;"/><text fill="#000000" font-family="sans-serif" font-size="13" lengthAdjust="spacing" textLength="8.271" x="447.7372" y="123.7577">1</text><text fill="#000000" font-family="sans-serif" font-size="13" lengthAdjust="spacing" textLength="8.2393" x="457.9648" y="123.7113">n</text></g><?plantuml-src dP5VIyCm5CNV-ob2doOoK0GVP0pIMhH8swrDzofP6jjWcupyGQRutKrhgsMLCdova7DkVZcvLxqoVi0IDw0HN91AYeO2BGrrr8-ZAbo8DyPBy89hDNP8ZPM2MaksDvg6HF2ClLDmvJYT0r0bUFb4yn2iLdjXU87bSRq67mu0byHwlR-uQ8MAKIimZr5pBtROmyB7mbgV9pHVS2r5NLDfgUJxC41hVEoxaArRW_aOuCCqitSerqmFEPQi07TW1rF_4QQBczisol8W6Q5MziA7C4QjeZJMHbafYFDeHCmpb4J1cLWBAUc40JURnBuI1J4w6_DdbYH6q4VFQR3DWmpzBzBlnjnh5ooxEfcxCzr4tytTRiZp3SFCPhl6Kvd7dNpx2m00?></g></svg>