<?xml version="1.0" encoding="UTF-8" standalone="no"?>
<svg width="800" height="740" viewBox="0 0 800 740" xmlns="http://www.w3.org/2000/svg">
  <style>
    .title-main { font-family: "Times New Roman", Times, serif; font-size: 20px; font-weight: bold; fill: #000000; text-anchor: middle; }
    .title-sub { font-family: "Times New Roman", Times, serif; font-size: 16px; font-weight: bold; fill: #000000; text-anchor: start; }
    .box-rect { fill: #ffffff; stroke: #000000; stroke-width: 1.2; }
    .box-rect-main { fill: #fcfcfc; stroke: #000000; stroke-width: 1.8; }
    .box-text { font-family: "Times New Roman", Times, serif; font-size: 13px; fill: #000000; text-anchor: middle; dominant-baseline: middle; }
    .conn-line { fill: none; stroke: #000000; stroke-width: 1.2; }
  </style>
  <defs>
    <!-- Arrowhead marker -->
    <marker id="arrow" viewBox="0 0 10 10" refX="8" refY="5" markerWidth="6" markerHeight="6" orient="auto-start-reverse">
      <path d="M 0 1.5 L 9 5 L 0 8.5 z" fill="#000000" />
    </marker>
  </defs>
  <rect width="800" height="740" fill="#ffffff" />
  <text x="400" y="38" class="title-main">CHƯƠNG 3: KẾT QUẢ CÀI ĐẶT VÀ KIỂM THỬ HỆ THỐNG</text>
  <text x="40" y="72" class="title-sub">3.1. Sơ đồ điều hướng giữa các màn hình</text>
  <rect x="25" y="90" width="750" height="625" fill="none" stroke="#000000" stroke-width="1.0" />
  <!-- Connection Lines -->
  <line x1="400.00" y1="310.00" x2="400.00" y2="450.00" class="conn-line" marker-end="url(#arrow)" marker-start="url(#arrow)" />
  <line x1="366.25" y1="250.00" x2="248.12" y2="145.00" class="conn-line" marker-end="url(#arrow)" marker-start="url(#arrow)" />
  <line x1="388.75" y1="250.00" x2="349.38" y2="145.00" class="conn-line" marker-end="url(#arrow)" marker-start="url(#arrow)" />
  <line x1="411.25" y1="250.00" x2="450.62" y2="145.00" class="conn-line" marker-end="url(#arrow)" marker-start="url(#arrow)" />
  <line x1="433.75" y1="250.00" x2="551.88" y2="145.00" class="conn-line" marker-end="url(#arrow)" marker-start="url(#arrow)" />
  <line x1="450.00" y1="260.56" x2="530.00" y2="229.44" class="conn-line" marker-end="url(#arrow)" marker-start="url(#arrow)" />
  <line x1="450.00" y1="299.44" x2="530.00" y2="330.56" class="conn-line" marker-end="url(#arrow)" marker-start="url(#arrow)" />
  <line x1="350.91" y1="310.00" x2="260.91" y2="365.00" class="conn-line" marker-end="url(#arrow)" marker-start="url(#arrow)" />
  <line x1="350.00" y1="280.00" x2="270.00" y2="280.00" class="conn-line" marker-end="url(#arrow)" marker-start="url(#arrow)" />
  <line x1="170.00" y1="280.00" x2="130.00" y2="280.00" class="conn-line" marker-end="url(#arrow)" marker-start="url(#arrow)" />
  <line x1="630.00" y1="350.00" x2="650.00" y2="350.00" class="conn-line" marker-end="url(#arrow)" />
  <line x1="350.00" y1="480.00" x2="270.00" y2="480.00" class="conn-line" marker-end="url(#arrow)" marker-start="url(#arrow)" />
  <line x1="450.00" y1="480.00" x2="530.00" y2="480.00" class="conn-line" marker-end="url(#arrow)" marker-start="url(#arrow)" />
  <line x1="358.46" y1="510.00" x2="254.62" y2="585.00" class="conn-line" marker-end="url(#arrow)" marker-start="url(#arrow)" />
  <line x1="386.15" y1="510.00" x2="351.54" y2="585.00" class="conn-line" marker-end="url(#arrow)" marker-start="url(#arrow)" />
  <line x1="413.85" y1="510.00" x2="448.46" y2="585.00" class="conn-line" marker-end="url(#arrow)" marker-start="url(#arrow)" />
  <line x1="441.54" y1="510.00" x2="545.38" y2="585.00" class="conn-line" marker-end="url(#arrow)" marker-start="url(#arrow)" />
  <!-- Node Boxes -->
  <g id="node_trang_chu">
    <rect x="350.0" y="250.0" width="100" height="60" class="box-rect-main" />
    <text x="400" y="280" class="box-text">Trang chủ</text>
  </g>
  <g id="node_dang_nhap">
    <rect x="170.0" y="255.0" width="100" height="50" class="box-rect" />
    <text x="220" y="280" class="box-text">Đăng nhập</text>
  </g>
  <g id="node_dang_ky">
    <rect x="30.0" y="255.0" width="100" height="50" class="box-rect" />
    <text x="80" y="280" class="box-text">Đăng ký</text>
  </g>
  <g id="node_cap_nhat_tt">
    <rect x="170.0" y="95.0" width="100" height="50" class="box-rect" />
    <text x="220" y="113" class="box-text">Cập nhật</text>
    <text x="220" y="127" class="box-text">thông tin</text>
  </g>
  <g id="node_doi_mat_khau">
    <rect x="290.0" y="95.0" width="100" height="50" class="box-rect" />
    <text x="340" y="120" class="box-text">Đổi mật khẩu</text>
  </g>
  <g id="node_tim_kiem_xe">
    <rect x="410.0" y="95.0" width="100" height="50" class="box-rect" />
    <text x="460" y="113" class="box-text">Tìm kiếm &</text>
    <text x="460" y="127" class="box-text">lọc xe</text>
  </g>
  <g id="node_chi_tiet_xe">
    <rect x="530.0" y="95.0" width="100" height="50" class="box-rect" />
    <text x="580" y="120" class="box-text">Chi tiết xe</text>
  </g>
  <g id="node_lich_hen_ca_nhan">
    <rect x="530.0" y="185.0" width="100" height="50" class="box-rect" />
    <text x="580" y="203" class="box-text">Lịch hẹn</text>
    <text x="580" y="217" class="box-text">cá nhân</text>
  </g>
  <g id="node_xe_yeu_thich">
    <rect x="530.0" y="325.0" width="100" height="50" class="box-rect" />
    <text x="580" y="350" class="box-text">Xe yêu thích</text>
  </g>
  <g id="node_dat_lich_xem_xe">
    <rect x="650.0" y="325.0" width="100" height="50" class="box-rect" />
    <text x="700" y="343" class="box-text">Đặt lịch</text>
    <text x="700" y="357" class="box-text">xem xe</text>
  </g>
  <g id="node_xem_thong_bao">
    <rect x="170.0" y="365.0" width="100" height="50" class="box-rect" />
    <text x="220" y="390" class="box-text">Xem thông báo</text>
  </g>
  <g id="node_quan_tri">
    <rect x="350.0" y="450.0" width="100" height="60" class="box-rect-main" />
    <text x="400" y="480" class="box-text">Quản trị</text>
  </g>
  <g id="node_quan_ly_user">
    <rect x="170.0" y="455.0" width="100" height="50" class="box-rect" />
    <text x="220" y="473" class="box-text">Quản lý</text>
    <text x="220" y="487" class="box-text">người dùng</text>
  </g>
  <g id="node_quan_ly_crm">
    <rect x="530.0" y="455.0" width="100" height="50" class="box-rect" />
    <text x="580" y="473" class="box-text">Quản lý</text>
    <text x="580" y="487" class="box-text">khách hàng CRM</text>
  </g>
  <g id="node_thong_ke_bc">
    <rect x="170.0" y="585.0" width="100" height="50" class="box-rect" />
    <text x="220" y="603" class="box-text">Thống kê</text>
    <text x="220" y="617" class="box-text">báo cáo</text>
  </g>
  <g id="node_quan_ly_lead">
    <rect x="290.0" y="585.0" width="100" height="50" class="box-rect" />
    <text x="340" y="603" class="box-text">Quản lý</text>
    <text x="340" y="617" class="box-text">Lead tư vấn</text>
  </g>
  <g id="node_quan_ly_lich_hen">
    <rect x="410.0" y="585.0" width="100" height="50" class="box-rect" />
    <text x="460" y="603" class="box-text">Quản lý</text>
    <text x="460" y="617" class="box-text">lịch hẹn</text>
  </g>
  <g id="node_quan_ly_kho_xe">
    <rect x="530.0" y="585.0" width="100" height="50" class="box-rect" />
    <text x="580" y="603" class="box-text">Quản lý</text>
    <text x="580" y="617" class="box-text">kho xe</text>
  </g>
</svg>